SplineFontDB: 3.0
FontName: PatrickHand-Regular
FullName: Patrick Hand
FamilyName: Patrick Hand
Weight: Regular
Copyright: Copyright (c) 2010 by Patrick Wagesreiter. All rights reserved.
Version: 001.002
ItalicAngle: 0
UnderlinePosition: -73
UnderlineWidth: 71
Ascent: 740
Descent: 260
sfntRevision: 0x00010000
LayerCount: 2
Layer: 0 0 "Back"  1
Layer: 1 0 "Fore"  0
XUID: [1021 288 713564382 3562241]
FSType: 0
OS2Version: 2
OS2_WeightWidthSlopeOnly: 0
OS2_UseTypoMetrics: 1
CreationTime: 1285847470
ModificationTime: 1309528436
PfmFamily: 65
TTFWeight: 400
TTFWidth: 5
LineGap: 0
VLineGap: 0
Panose: 2 0 0 0 0 0 0 0 0 0
OS2TypoAscent: 890
OS2TypoAOffset: 0
OS2TypoDescent: -312
OS2TypoDOffset: 0
OS2TypoLinegap: 0
OS2WinAscent: 890
OS2WinAOffset: 0
OS2WinDescent: 312
OS2WinDOffset: 0
HheadAscent: 890
HheadAOffset: 0
HheadDescent: -312
HheadDOffset: 0
OS2SubXSize: 700
OS2SubYSize: 650
OS2SubXOff: 0
OS2SubYOff: 140
OS2SupXSize: 700
OS2SupYSize: 650
OS2SupXOff: 0
OS2SupYOff: 477
OS2StrikeYSize: 50
OS2StrikeYPos: 250
OS2Vendor: 'pyrs'
OS2CodePages: 00000001.00000000
OS2UnicodeRanges: 800000af.4000e04a.00000000.00000000
Lookup: 1 0 0 "'smcp' Lowercase to Small Capitals in Latin lookup 0"  {"'smcp' Lowercase to Small Capitals in Latin lookup 0 subtable"  } ['smcp' ('latn' <'dflt' > ) ]
Lookup: 1 0 0 "'c2sc' Capitals to Small Capitals in Latin lookup 1"  {"'c2sc' Capitals to Small Capitals in Latin lookup 1 subtable"  } ['c2sc' ('latn' <'dflt' > ) ]
Lookup: 4 0 1 "'liga' Standard Ligatures in Latin lookup 2"  {"'liga' Standard Ligatures in Latin lookup 2 subtable"  } ['liga' ('latn' <'dflt' > ) ]
Lookup: 1 0 0 "'onum' Oldstyle Figures in Latin lookup 3"  {"'onum' Oldstyle Figures in Latin lookup 3 subtable" ("oldstyle" ) } ['onum' ('latn' <'dflt' > ) ]
Lookup: 1 0 0 "'lnum' Lining Figures in Latin lookup 4"  {"'lnum' Lining Figures in Latin lookup 4 subtable"  } ['lnum' ('latn' <'dflt' > ) ]

StartChar: zero
Encoding: 48 48 1
Width: 448
VWidth: 1200
Flags: W
HStem: -1.2002 92.4004<182.428 277.913> 592.8 70.7998<185.715 273.58>
VStem: 31.2002 84<187.757 477.111> 332.4 82.7998<172.139 488.059>
LayerCount: 2
Fore
SplineSet
236.400390625 663.599609375 m 0
 352.799804688 663.599609375 415.200195312 488.400390625 415.200195312 316.799804688 c 0
 415.200195312 156 360 -1.2001953125 238.799804688 -1.2001953125 c 0
 110.400390625 -1.2001953125 31.2001953125 91.2001953125 31.2001953125 315.599609375 c 0
 31.2001953125 482.400390625 90 663.599609375 236.400390625 663.599609375 c 0
324 226.799804688 m 1
 328.799804688 253.200195312 332.400390625 286.799804688 332.400390625 324 c 0
 332.400390625 444 303.599609375 592.799804688 235.200195312 592.799804688 c 0
 148.799804688 592.799804688 115.200195312 435.599609375 115.200195312 307.200195312 c 0
 115.200195312 202.799804688 166.799804688 91.2001953125 229.200195312 91.2001953125 c 0
 298.799804688 91.2001953125 312 175.200195312 324 226.799804688 c 1
EndSplineSet
Substitution2: "'onum' Oldstyle Figures in Latin lookup 3 subtable" zero.onum
Substitution2: "'smcp' Lowercase to Small Capitals in Latin lookup 0 subtable" zero.smcp
EndChar

StartChar: one
Encoding: 49 49 2
Width: 363
VWidth: 1200
Flags: W
HStem: 637.6 20G<270 290.4>
VStem: 231.6 81.6006<7.95376 526.853> 235.2 85.2002<381.112 528>
LayerCount: 2
Fore
SplineSet
94.7998046875 376.799804688 m 1xa0
 85.2001953125 370.799804688 74.400390625 368.400390625 66 368.400390625 c 0
 43.2001953125 368.400390625 26.400390625 385.200195312 26.400390625 408 c 0
 26.400390625 416.400390625 28.7998046875 426 34.7998046875 435.599609375 c 1
 223.200195312 637.200195312 l 1
 235.200195312 648 259.200195312 657.599609375 280.799804688 657.599609375 c 0
 300 657.599609375 316.799804688 650.400390625 320.400390625 631.200195312 c 1xa0
 314.400390625 519.599609375 313.200195312 409.200195312 313.200195312 297.599609375 c 0xc0
 313.200195312 214.799804688 314.400390625 130.799804688 315.599609375 46.7998046875 c 1
 312 21.599609375 286.799804688 -2.400390625 265.200195312 -2.400390625 c 0
 253.200195312 -2.400390625 241.200195312 4.7998046875 235.200195312 22.7998046875 c 1xa0
 232.799804688 116.400390625 231.599609375 211.200195312 231.599609375 306 c 0xc0
 231.599609375 380.400390625 232.799804688 454.799804688 235.200195312 528 c 1
 166.799804688 468 159.599609375 440.400390625 94.7998046875 376.799804688 c 1xa0
EndSplineSet
Substitution2: "'sups' Superscript in Latin lookup 5 subtable" onesuperior
Substitution2: "'onum' Oldstyle Figures in Latin lookup 3 subtable" one.onum
Substitution2: "'smcp' Lowercase to Small Capitals in Latin lookup 0 subtable" one.smcp
EndChar

StartChar: two
Encoding: 50 50 3
Width: 468
VWidth: 1200
Flags: W
HStem: 0 84<136.439 420.957> 590.4 72<160.463 287.68>
VStem: 325.2 76.7998<395.176 550.423>
LayerCount: 2
Fore
SplineSet
124.799804688 543.599609375 m 0
 114 534 104.400390625 530.400390625 96 530.400390625 c 0
 79.2001953125 530.400390625 67.2001953125 546 67.2001953125 565.200195312 c 0
 67.2001953125 627.599609375 189.599609375 662.400390625 234 662.400390625 c 0
 325.200195312 662.400390625 402 596.400390625 402 490.799804688 c 0
 402 285.599609375 225.599609375 225.599609375 133.200195312 87.599609375 c 1
 174 85.2001953125 216 84 256.799804688 84 c 0
 312 84 367.200195312 86.400390625 423.599609375 91.2001953125 c 1
 446.400390625 86.400390625 454.799804688 74.400390625 454.799804688 61.2001953125 c 0
 454.799804688 -4.7998046875 316.799804688 0 230.400390625 0 c 0
 168 0 44.400390625 -2.400390625 44.400390625 54 c 0
 44.400390625 106.799804688 118.799804688 195.599609375 136.799804688 212.400390625 c 0
 207.599609375 278.400390625 325.200195312 363.599609375 325.200195312 480 c 0
 325.200195312 542.400390625 285.599609375 590.400390625 229.200195312 590.400390625 c 0
 198 590.400390625 162 576 124.799804688 543.599609375 c 0
EndSplineSet
Substitution2: "'sups' Superscript in Latin lookup 5 subtable" twosuperior
Substitution2: "'onum' Oldstyle Figures in Latin lookup 3 subtable" two.onum
Substitution2: "'smcp' Lowercase to Small Capitals in Latin lookup 0 subtable" two.smcp
EndChar

StartChar: three
Encoding: 51 51 4
Width: 448
VWidth: 1200
Flags: W
HStem: 0 79.2002<173.193 292.282> 324 64.7998<143.301 234.627> 588 79.2002<150.553 266.023>
VStem: 297.6 78<447.185 557.172> 333.6 82.8008<129.243 278.538>
LayerCount: 2
Fore
SplineSet
108 532.799804688 m 1xf0
 96 524.400390625 85.2001953125 522 76.7998046875 522 c 0
 58.7998046875 522 45.599609375 534 45.599609375 552 c 0
 45.599609375 606 170.400390625 667.200195312 235.200195312 667.200195312 c 0
 332.400390625 667.200195312 375.599609375 591.599609375 375.599609375 524.400390625 c 0xf0
 375.599609375 472.799804688 352.799804688 417.599609375 310.799804688 379.200195312 c 1
 374.400390625 355.200195312 416.400390625 292.799804688 416.400390625 212.400390625 c 0
 416.400390625 106.799804688 352.799804688 0 244.799804688 0 c 0
 177.599609375 0 32.400390625 69.599609375 32.400390625 116.400390625 c 0
 32.400390625 139.200195312 54 160.799804688 80.400390625 160.799804688 c 0
 87.599609375 160.799804688 96 159.599609375 103.200195312 154.799804688 c 0
 153.599609375 114 182.400390625 79.2001953125 247.200195312 79.2001953125 c 0
 300 79.2001953125 333.599609375 151.200195312 333.599609375 217.200195312 c 0xe8
 333.599609375 307.200195312 242.400390625 318 164.400390625 324 c 1
 147.599609375 328.799804688 140.400390625 340.799804688 140.400390625 352.799804688 c 0
 140.400390625 370.799804688 154.799804688 388.799804688 175.200195312 388.799804688 c 0
 229.200195312 388.799804688 297.599609375 450 297.599609375 500.400390625 c 0
 297.599609375 537.599609375 267.599609375 588 212.400390625 588 c 0
 174 588 129.599609375 555.599609375 108 532.799804688 c 1xf0
EndSplineSet
Substitution2: "'sups' Superscript in Latin lookup 5 subtable" threesuperior
Substitution2: "'onum' Oldstyle Figures in Latin lookup 3 subtable" three.onum
Substitution2: "'smcp' Lowercase to Small Capitals in Latin lookup 0 subtable" three.smcp
EndChar

StartChar: four
Encoding: 52 52 5
Width: 375
VWidth: 1200
Flags: W
HStem: -1.2002 21G<265.8 298.2> 214.8 87.6006<128.421 251.526> 446.8 20G<287.4 309.6> 644.8 20G<117 135>
VStem: 36 90<305.227 534.508> 73.2002 82.7998<496.149 653.344> 250.8 82.7998<8.18944 218.862>
LayerCount: 2
Fore
SplineSet
73.2001953125 625.200195312 m 1xf6
 81.599609375 649.200195312 106.799804688 664.799804688 127.200195312 664.799804688 c 0
 142.799804688 664.799804688 156 655.200195312 156 633.599609375 c 0
 156 631.200195312 156 627.599609375 156 625.200195312 c 0xf6
 141.599609375 530.400390625 126 442.799804688 126 349.200195312 c 0
 126 334.799804688 126 319.200195312 127.200195312 304.799804688 c 1
 140.400390625 302.400390625 153.599609375 302.400390625 166.799804688 302.400390625 c 0
 195.599609375 302.400390625 222 306 253.200195312 307.200195312 c 1
 265.200195312 469.200195312 255.599609375 457.200195312 272.400390625 464.400390625 c 0
 277.200195312 465.599609375 283.200195312 466.799804688 291.599609375 466.799804688 c 0
 327.599609375 466.799804688 340.799804688 466.799804688 340.799804688 404.400390625 c 0
 340.799804688 314.400390625 333.599609375 218.400390625 333.599609375 164.400390625 c 0
 333.599609375 124.799804688 334.799804688 86.400390625 339.599609375 44.400390625 c 1
 334.799804688 21.599609375 309.599609375 -1.2001953125 286.799804688 -1.2001953125 c 0
 244.799804688 -1.2001953125 250.799804688 115.200195312 250.799804688 165.599609375 c 0
 250.799804688 183.599609375 252 201.599609375 252 220.799804688 c 1
 237.599609375 218.400390625 202.799804688 214.799804688 165.599609375 214.799804688 c 0
 57.599609375 214.799804688 36 234 36 330 c 0xfa
 36 427.200195312 63.599609375 564 73.2001953125 625.200195312 c 1xf6
EndSplineSet
Substitution2: "'onum' Oldstyle Figures in Latin lookup 3 subtable" four.onum
Substitution2: "'smcp' Lowercase to Small Capitals in Latin lookup 0 subtable" four.smcp
EndChar

StartChar: five
Encoding: 53 53 6
Width: 423
VWidth: 1200
Flags: W
HStem: 3.59961 75.6006<164.265 269.017> 352.8 88.7998<121.267 263.672> 579.6 76.8008<98.6282 345.153>
VStem: 40.7998 76.7998<432.176 602.4> 51.5996 69.6006<430.8 506.528> 316.8 87.6006<136.15 302.578>
LayerCount: 2
Fore
SplineSet
356.400390625 640.799804688 m 1xf4
 369.599609375 632.400390625 375.599609375 618 375.599609375 604.799804688 c 0
 375.599609375 582 358.799804688 559.200195312 337.200195312 559.200195312 c 0
 304.799804688 559.200195312 250.799804688 579.599609375 204 579.599609375 c 0
 151.200195312 579.599609375 117.599609375 567.599609375 117.599609375 507.599609375 c 0xf4
 117.599609375 484.799804688 121.200195312 458.400390625 121.200195312 430.799804688 c 1
 140.400390625 438 166.799804688 441.599609375 193.200195312 441.599609375 c 0
 333.599609375 441.599609375 404.400390625 360 404.400390625 228 c 0
 404.400390625 117.599609375 340.799804688 3.599609375 214.799804688 3.599609375 c 0
 51.599609375 3.599609375 33.599609375 91.2001953125 33.599609375 109.200195312 c 0
 33.599609375 139.200195312 57.599609375 160.799804688 85.2001953125 160.799804688 c 0
 134.400390625 160.799804688 142.799804688 79.2001953125 219.599609375 79.2001953125 c 1
 284.400390625 81.599609375 316.799804688 163.200195312 316.799804688 228 c 0
 316.799804688 326.400390625 238.799804688 352.799804688 178.799804688 352.799804688 c 0
 148.799804688 352.799804688 130.799804688 343.200195312 108 343.200195312 c 0
 80.400390625 343.200195312 52.7998046875 357.599609375 51.599609375 394.799804688 c 0xec
 49.2001953125 453.599609375 40.7998046875 528 40.7998046875 582 c 0
 40.7998046875 622.799804688 45.599609375 651.599609375 63.599609375 651.599609375 c 0
 96 652.799804688 150 656.400390625 204 656.400390625 c 0
 260.400390625 656.400390625 319.200195312 652.799804688 356.400390625 640.799804688 c 1xf4
EndSplineSet
Substitution2: "'onum' Oldstyle Figures in Latin lookup 3 subtable" five.onum
Substitution2: "'smcp' Lowercase to Small Capitals in Latin lookup 0 subtable" five.smcp
EndChar

StartChar: six
Encoding: 54 54 7
Width: 399
VWidth: 1200
Flags: W
HStem: -1.2002 76.7998<143.076 237.456> 273.6 72<139.2 269.252> 644.8 20G<251.4 265.8>
VStem: 34.7998 80.4004<103.824 267.007> 292.8 75.6006<132.93 252.007>
LayerCount: 2
Fore
SplineSet
228 652.799804688 m 0
 234 661.200195312 246 664.799804688 256.799804688 664.799804688 c 0
 274.799804688 664.799804688 294 656.400390625 294 640.799804688 c 1
 292.799804688 628.799804688 211.200195312 499.200195312 195.599609375 472.799804688 c 0
 175.200195312 438 144 363.599609375 139.200195312 344.400390625 c 1
 159.599609375 344.400390625 181.200195312 345.599609375 204 345.599609375 c 0
 289.200195312 345.599609375 368.400390625 312 368.400390625 194.400390625 c 0
 368.400390625 82.7998046875 266.400390625 -1.2001953125 156 -1.2001953125 c 0
 34.7998046875 -1.2001953125 34.7998046875 126 34.7998046875 219.599609375 c 0
 34.7998046875 274.799804688 68.400390625 382.799804688 106.799804688 466.799804688 c 0
 152.400390625 565.200195312 211.200195312 628.799804688 228 652.799804688 c 0
283.200195312 236.400390625 m 0
 267.599609375 266.400390625 235.200195312 273.599609375 202.799804688 273.599609375 c 0
 175.200195312 273.599609375 147.599609375 268.799804688 130.799804688 268.799804688 c 1
 123.599609375 249.599609375 115.200195312 216 115.200195312 181.200195312 c 0
 115.200195312 140.400390625 136.799804688 75.599609375 177.599609375 75.599609375 c 0
 240 75.599609375 292.799804688 140.400390625 292.799804688 195.599609375 c 0
 292.799804688 210 289.200195312 223.200195312 283.200195312 236.400390625 c 0
EndSplineSet
Substitution2: "'onum' Oldstyle Figures in Latin lookup 3 subtable" six.onum
Substitution2: "'smcp' Lowercase to Small Capitals in Latin lookup 0 subtable" six.smcp
EndChar

StartChar: seven
Encoding: 55 55 8
Width: 495
VWidth: 1200
Flags: W
HStem: -1.2002 21G<271.8 294.6> 351.6 72<113.306 243.195> 360 70.7998<169.706 265.2 341.115 466.698> 646 20G<43.7998 54>
VStem: 255.6 73.2002<7.69376 310.44>
LayerCount: 2
Fore
SplineSet
133.200195312 351.599609375 m 2xd8
 115.200195312 351.599609375 103.200195312 363.599609375 103.200195312 375.599609375 c 0
 103.200195312 396 123.599609375 420 145.200195312 423.599609375 c 1xd8
 271.200195312 427.200195312 l 1
 274.799804688 469.200195312 276 508.799804688 279.599609375 550.799804688 c 1
 200.400390625 562.799804688 118.799804688 579.599609375 37.2001953125 592.799804688 c 1
 22.7998046875 601.200195312 16.7998046875 620.400390625 16.7998046875 631.200195312 c 0
 16.7998046875 646.799804688 34.7998046875 666 52.7998046875 666 c 0
 55.2001953125 666 57.599609375 664.799804688 60 664.799804688 c 0
 75.599609375 661.200195312 340.799804688 622.799804688 361.200195312 612 c 0
 373.200195312 604.799804688 388.799804688 596.400390625 388.799804688 579.599609375 c 0
 388.799804688 553.200195312 378 535.200195312 355.200195312 535.200195312 c 0
 352.799804688 535.200195312 350.400390625 536.400390625 348 536.400390625 c 1
 344.400390625 502.799804688 343.200195312 466.799804688 340.799804688 430.799804688 c 1
 376.799804688 430.799804688 412.799804688 432 445.200195312 432 c 1
 466.799804688 427.200195312 472.799804688 418.799804688 472.799804688 404.400390625 c 0
 472.799804688 364.799804688 433.200195312 358.799804688 391.200195312 358.799804688 c 0
 374.400390625 358.799804688 357.599609375 360 343.200195312 360 c 0
 327.599609375 360 328.799804688 181.200195312 328.799804688 148.799804688 c 0
 328.799804688 112.799804688 328.799804688 79.2001953125 331.200195312 43.2001953125 c 1
 325.200195312 20.400390625 304.799804688 -1.2001953125 284.400390625 -1.2001953125 c 0
 259.200195312 -1.2001953125 255.599609375 36 255.599609375 74.400390625 c 0
 255.599609375 172.799804688 258 262.799804688 265.200195312 360 c 1xb8
 133.200195312 351.599609375 l 2xd8
EndSplineSet
Substitution2: "'onum' Oldstyle Figures in Latin lookup 3 subtable" seven.onum
Substitution2: "'smcp' Lowercase to Small Capitals in Latin lookup 0 subtable" seven.smcp
EndChar

StartChar: eight
Encoding: 56 56 9
Width: 433
VWidth: 1200
Flags: W
HStem: 1.2002 75.5996<142.622 285.84> 595.2 69.5996<145.277 299.93>
VStem: 31.2002 74.3994<110.185 237.982> 55.2002 70.7998<478.717 576.904> 304.8 81.6006<95.6293 224.322> 324 67.2002<486.755 572.329>
LayerCount: 2
Fore
SplineSet
224.400390625 664.799804688 m 0xd0
 315.599609375 664.799804688 391.200195312 596.400390625 391.200195312 526.799804688 c 0xd4
 391.200195312 489.599609375 349.200195312 409.200195312 286.799804688 372 c 1
 338.400390625 312 386.400390625 231.599609375 386.400390625 158.400390625 c 0
 386.400390625 51.599609375 295.200195312 1.2001953125 208.799804688 1.2001953125 c 0
 120 1.2001953125 31.2001953125 52.7998046875 31.2001953125 147.599609375 c 0xe8
 31.2001953125 228 82.7998046875 314.400390625 154.799804688 368.400390625 c 1
 99.599609375 399.599609375 55.2001953125 472.799804688 55.2001953125 537.599609375 c 0
 55.2001953125 627.599609375 134.400390625 664.799804688 224.400390625 664.799804688 c 0xd0
304.799804688 142.799804688 m 1xe8
 304.799804688 208.799804688 260.400390625 271.200195312 212.400390625 322.799804688 c 1
 176.400390625 300 105.599609375 244.799804688 105.599609375 162 c 0
 105.599609375 109.200195312 157.200195312 76.7998046875 223.200195312 76.7998046875 c 0
 265.200195312 76.7998046875 303.599609375 94.7998046875 304.799804688 142.799804688 c 1xe8
235.200195312 595.200195312 m 0
 228 595.200195312 220.799804688 595.200195312 211.200195312 595.200195312 c 0
 171.599609375 595.200195312 126 583.200195312 126 525.599609375 c 0
 126 478.799804688 178.799804688 452.400390625 223.200195312 418.799804688 c 1
 235.200195312 427.200195312 324 488.400390625 324 526.799804688 c 0xd4
 324 571.200195312 280.799804688 595.200195312 235.200195312 595.200195312 c 0
EndSplineSet
Substitution2: "'onum' Oldstyle Figures in Latin lookup 3 subtable" eight.onum
Substitution2: "'smcp' Lowercase to Small Capitals in Latin lookup 0 subtable" eight.smcp
EndChar

StartChar: nine
Encoding: 57 57 10
Width: 367
VWidth: 1200
Flags: W
HStem: 304.8 80.4004<129.876 220.607> 596.4 69.5996<131.641 244.511>
VStem: 28.7998 73.2002<412.713 568.395> 256.8 75.6006<109.28 349.2> 260.4 74.3994<8.26862 262.72 411.754 590.258>
LayerCount: 2
Fore
SplineSet
336 44.400390625 m 1xf0
 333.599609375 21.599609375 312 1.2001953125 292.799804688 1.2001953125 c 0
 282 1.2001953125 271.200195312 7.2001953125 264 22.7998046875 c 1
 259.200195312 130.799804688 256.799804688 241.200195312 256.799804688 349.200195312 c 1xf0
 224.400390625 324 177.599609375 304.799804688 140.400390625 304.799804688 c 0
 63.599609375 304.799804688 28.7998046875 410.400390625 28.7998046875 494.400390625 c 0
 28.7998046875 530.400390625 34.7998046875 561.599609375 46.7998046875 583.200195312 c 0
 70.7998046875 626.400390625 157.200195312 666 226.799804688 666 c 0
 325.200195312 666 334.799804688 586.799804688 334.799804688 511.200195312 c 0xe8
 334.799804688 428.400390625 332.400390625 364.799804688 332.400390625 283.200195312 c 0
 332.400390625 140.400390625 332.400390625 133.200195312 336 44.400390625 c 1xf0
169.200195312 385.200195312 m 1
 202.799804688 396 231.599609375 403.200195312 259.200195312 424.799804688 c 1
 259.200195312 444 260.400390625 470.400390625 260.400390625 496.799804688 c 0xe8
 260.400390625 535.200195312 256.799804688 573.599609375 241.200195312 591.599609375 c 1
 231.599609375 595.200195312 218.400390625 596.400390625 204 596.400390625 c 0
 123.599609375 596.400390625 102 552 102 501.599609375 c 0
 102 457.200195312 116.400390625 385.200195312 169.200195312 385.200195312 c 1
EndSplineSet
Substitution2: "'onum' Oldstyle Figures in Latin lookup 3 subtable" nine.onum
Substitution2: "'smcp' Lowercase to Small Capitals in Latin lookup 0 subtable" nine.smcp
EndChar

StartChar: A
Encoding: 65 65 11
Width: 488
VWidth: 1200
Flags: W
HStem: -1.2002 21G<421.2 441.6> 243.6 75.6006<169.056 322.8> 638.8 20G<202.2 273>
VStem: 24 72<3.23637 134.441>
LayerCount: 2
Fore
SplineSet
96 20.400390625 m 0
 93.599609375 8.400390625 76.7998046875 1.2001953125 60 1.2001953125 c 0
 42 1.2001953125 24 9.599609375 24 30 c 0
 24 126 145.200195312 658.799804688 259.200195312 658.799804688 c 0
 286.799804688 658.799804688 372 439.200195312 412.799804688 274.799804688 c 0
 432 196.799804688 454.799804688 109.200195312 468 34.7998046875 c 1
 468 10.7998046875 452.400390625 -1.2001953125 430.799804688 -1.2001953125 c 0
 411.599609375 -1.2001953125 392.400390625 9.599609375 387.599609375 31.2001953125 c 2
 339.599609375 243.599609375 l 1
 279.599609375 243.599609375 207.599609375 244.799804688 145.200195312 262.799804688 c 1
 123.599609375 172.799804688 108 106.799804688 96 20.400390625 c 0
248.400390625 548.400390625 m 1
 212.400390625 481.200195312 187.200195312 415.200195312 166.799804688 340.799804688 c 1
 214.799804688 324 271.200195312 319.200195312 322.799804688 319.200195312 c 1
 301.200195312 397.200195312 279.599609375 472.799804688 248.400390625 548.400390625 c 1
EndSplineSet
Substitution2: "'c2sc' Capitals to Small Capitals in Latin lookup 1 subtable" A.smcp
EndChar

StartChar: B
Encoding: 66 66 12
Width: 507
VWidth: 1200
Flags: W
HStem: 3.59961 63.6006<138.764 339.72> 595.2 72<151.129 288.893>
VStem: 57.5996 78<144.939 304.218 373.2 580.063> 328.8 68.4004<432.688 556.346> 394.8 68.4004<125.367 275.422>
LayerCount: 2
Fore
SplineSet
70.7998046875 7.2001953125 m 1xe8
 60 49.2001953125 58.7998046875 355.200195312 58.7998046875 382.799804688 c 0
 58.7998046875 409.200195312 57.599609375 432 57.599609375 453.599609375 c 0
 57.599609375 538.799804688 78 667.200195312 202.799804688 667.200195312 c 0
 303.599609375 667.200195312 397.200195312 607.200195312 397.200195312 507.599609375 c 0xf0
 397.200195312 451.200195312 382.799804688 403.200195312 339.599609375 368.400390625 c 1
 418.799804688 361.200195312 463.200195312 270 463.200195312 195.599609375 c 0
 463.200195312 28.7998046875 330 3.599609375 198 3.599609375 c 0
 154.799804688 3.599609375 111.599609375 6 70.7998046875 7.2001953125 c 1xe8
140.400390625 70.7998046875 m 1
 178.799804688 67.2001953125 224.400390625 67.2001953125 268.799804688 67.2001953125 c 0
 356.400390625 67.2001953125 394.799804688 139.200195312 394.799804688 200.400390625 c 0xe8
 394.799804688 271.200195312 358.799804688 315.599609375 277.200195312 315.599609375 c 0
 236.400390625 315.599609375 188.400390625 308.400390625 133.200195312 301.200195312 c 1
 135.599609375 240 130.799804688 169.200195312 140.400390625 70.7998046875 c 1
135.599609375 475.200195312 m 0
 135.599609375 457.200195312 134.400390625 429.599609375 134.400390625 405.599609375 c 0
 134.400390625 393.599609375 134.400390625 381.599609375 135.599609375 373.200195312 c 1
 204 382.799804688 328.799804688 382.799804688 328.799804688 502.799804688 c 0xf0
 328.799804688 560.400390625 274.799804688 595.200195312 208.799804688 595.200195312 c 0
 141.599609375 595.200195312 134.400390625 552 134.400390625 507.599609375 c 0
 134.400390625 496.799804688 135.599609375 486 135.599609375 475.200195312 c 0
EndSplineSet
Substitution2: "'c2sc' Capitals to Small Capitals in Latin lookup 1 subtable" B.smcp
EndChar

StartChar: C
Encoding: 67 67 13
Width: 548
VWidth: 1200
Flags: W
HStem: 1.2002 80.3994<213.118 357.241> 570 84<243.222 457.809>
VStem: 42 85.2002<195.651 447.078>
LayerCount: 2
Fore
SplineSet
483.599609375 627.599609375 m 1
 495.599609375 619.200195312 501.599609375 609.599609375 501.599609375 598.799804688 c 0
 501.599609375 574.799804688 475.200195312 555.599609375 447.599609375 555.599609375 c 1
 417.599609375 564 382.799804688 570 346.799804688 570 c 0
 205.200195312 570 127.200195312 484.799804688 127.200195312 320.400390625 c 0
 127.200195312 208.799804688 175.200195312 81.599609375 276 81.599609375 c 0
 348 81.599609375 438 148.799804688 471.599609375 148.799804688 c 0
 489.599609375 148.799804688 498 136.799804688 498 121.200195312 c 0
 498 105.599609375 489.599609375 88.7998046875 472.799804688 76.7998046875 c 1
 416.400390625 46.7998046875 331.200195312 1.2001953125 256.799804688 1.2001953125 c 0
 103.200195312 1.2001953125 42 184.799804688 42 327.599609375 c 0
 42 549.599609375 178.799804688 654 336 654 c 0
 382.799804688 654 433.200195312 644.400390625 483.599609375 627.599609375 c 1
EndSplineSet
Substitution2: "'c2sc' Capitals to Small Capitals in Latin lookup 1 subtable" C.smcp
EndChar

StartChar: D
Encoding: 68 68 14
Width: 475
VWidth: 1200
Flags: W
HStem: -2.40039 78<153.431 334.106> 642.4 20G<82.7998 96.6001>
VStem: 36 82.7998<169.766 576> 72 84<-46.3292 4.2181> 387.6 80.4004<118.041 327.727>
LayerCount: 2
Fore
SplineSet
152.400390625 4.7998046875 m 1xe8
 154.799804688 -1.2001953125 156 -6 156 -12 c 0
 156 -36 129.599609375 -55.2001953125 105.599609375 -55.2001953125 c 0
 90 -55.2001953125 76.7998046875 -48 72 -27.599609375 c 2xd8
 58.7998046875 32.400390625 l 1
 49.2001953125 39.599609375 44.400390625 49.2001953125 44.400390625 57.599609375 c 0
 44.400390625 66 48 73.2001953125 55.2001953125 79.2001953125 c 1
 40.7998046875 189.599609375 36 297.599609375 36 406.799804688 c 0
 36 478.799804688 38.400390625 552 40.7998046875 625.200195312 c 1
 48 646.799804688 70.7998046875 662.400390625 94.7998046875 662.400390625 c 0
 98.400390625 662.400390625 103.200195312 662.400390625 108 661.200195312 c 0
 294 608.400390625 462 450 468 231.599609375 c 1
 468 63.599609375 361.200195312 -2.400390625 228 -2.400390625 c 0
 202.799804688 -2.400390625 177.599609375 0 152.400390625 4.7998046875 c 1xe8
123.599609375 576 m 1
 121.200195312 523.200195312 118.799804688 469.200195312 118.799804688 415.200195312 c 0xe8
 118.799804688 303.599609375 124.799804688 190.799804688 139.200195312 82.7998046875 c 1
 156 78 181.200195312 75.599609375 208.799804688 75.599609375 c 0
 284.400390625 75.599609375 380.400390625 94.7998046875 385.200195312 151.200195312 c 0
 386.400390625 165.599609375 387.599609375 180 387.599609375 194.400390625 c 0
 387.599609375 370.799804688 286.799804688 507.599609375 123.599609375 576 c 1
EndSplineSet
Substitution2: "'c2sc' Capitals to Small Capitals in Latin lookup 1 subtable" D.smcp
EndChar

StartChar: E
Encoding: 69 69 15
Width: 442
VWidth: 1200
Flags: W
HStem: 0 76.7998<133.2 382.239> 331.2 75.5996<132.394 363.206> 572.4 82.7998<129.719 413.294>
VStem: 51.5996 79.2002<408 579.6> 58.7998 76.7998<76.7998 333.6>
LayerCount: 2
Fore
SplineSet
388.799804688 655.200195312 m 1xf0
 416.400390625 649.200195312 427.200195312 636 427.200195312 621.599609375 c 0
 427.200195312 562.799804688 301.200195312 572.400390625 250.799804688 572.400390625 c 0
 218.400390625 572.400390625 181.200195312 574.799804688 127.200195312 579.599609375 c 1
 127.200195312 526.799804688 127.200195312 459.599609375 130.799804688 408 c 1xf0
 211.200195312 406.799804688 256.799804688 406.799804688 334.799804688 406.799804688 c 1
 361.200195312 402 370.799804688 388.799804688 370.799804688 374.400390625 c 0
 370.799804688 356.400390625 354 336 331.200195312 331.200195312 c 1
 266.400390625 331.200195312 255.599609375 333.599609375 158.400390625 333.599609375 c 0
 148.799804688 333.599609375 140.400390625 333.599609375 132 332.400390625 c 1
 132 273.599609375 135.599609375 213.599609375 135.599609375 159.599609375 c 0
 135.599609375 130.799804688 135.599609375 102 133.200195312 76.7998046875 c 1
 253.200195312 76.7998046875 247.200195312 80.400390625 364.799804688 80.400390625 c 1
 388.799804688 76.7998046875 397.200195312 66 397.200195312 52.7998046875 c 0
 397.200195312 32.400390625 375.599609375 9.599609375 351.599609375 3.599609375 c 1
 224.400390625 3.599609375 223.200195312 0 96 0 c 0
 64.7998046875 0 55.2001953125 10.7998046875 55.2001953125 37.2001953125 c 1
 58.7998046875 67.2001953125 58.7998046875 97.2001953125 58.7998046875 127.200195312 c 0
 58.7998046875 150 58.7998046875 174 58.7998046875 196.799804688 c 2xe8
 55.2001953125 344.400390625 l 1
 45.599609375 350.400390625 40.7998046875 360 40.7998046875 370.799804688 c 0
 40.7998046875 381.599609375 44.400390625 392.400390625 51.599609375 400.799804688 c 1
 49.2001953125 476.400390625 48 540 48 612 c 1
 56.400390625 644.400390625 72 656.400390625 103.200195312 661.200195312 c 1
 235.200195312 655.200195312 253.200195312 655.200195312 388.799804688 655.200195312 c 1xf0
EndSplineSet
Substitution2: "'c2sc' Capitals to Small Capitals in Latin lookup 1 subtable" E.smcp
EndChar

StartChar: F
Encoding: 70 70 16
Width: 375
VWidth: 1200
Flags: W
HStem: 313.2 69.5996<315.6 343.711> 572.4 70.7998<107.892 254.4 297.6 400.405> 576 75.5996<-12.6843 37.7998 106.2 246.352>
VStem: 37.7998 68.4004<81.4782 313.2>
LayerCount: 2
Fore
SplineSet
40.2001953125 175.200195312 m 0xb0
 40.2001953125 87.6005859375 33 0 78.599609375 0 c 0
 109.799804688 0 115.799804688 21.599609375 115.799804688 54 c 0
 115.799804688 121.200195312 112.200195312 241.200195312 108.599609375 313.200195312 c 1
 315.599609375 313.200195312 l 1
 334.799804688 319.200195312 351.599609375 339.599609375 351.599609375 356.400390625 c 0
 351.599609375 368.400390625 344.400390625 379.200195312 325.200195312 382.799804688 c 1
 106.200195312 382.799804688 l 1
 106.200195312 408 105 428.400390625 105 448.799804688 c 0
 105 488.400390625 106.200195312 524.400390625 106.200195312 574.799804688 c 1
 130.200195312 572.400390625 267.599609375 572.400390625 278.400390625 572.400390625 c 0
 294 572.400390625 301.200195312 573.599609375 315.599609375 573.599609375 c 0
 325.200195312 573.599609375 339.599609375 572.400390625 363.599609375 571.200195312 c 1
 387.599609375 571.200195312 405.599609375 591.599609375 405.599609375 610.799804688 c 0
 405.599609375 650.400390625 309.599609375 643.200195312 297.599609375 643.200195312 c 0xd0
 282 643.200195312 270 642 254.400390625 642 c 0
 79.2001953125 642 129.599609375 651.599609375 16.7998046875 651.599609375 c 1
 -4.7998046875 648 -18 627.599609375 -18 610.799804688 c 0
 -18 569.485602676 37.7998046875 576 37.7998046875 576 c 1
 37.7998046875 439.166531745 40.2001953125 314.682602855 40.2001953125 175.200195312 c 0xb0
EndSplineSet
Substitution2: "'c2sc' Capitals to Small Capitals in Latin lookup 1 subtable" F.smcp
EndChar

StartChar: G
Encoding: 71 71 17
Width: 480
VWidth: 1200
Flags: W
HStem: -1.2002 81.6006<203.461 326.294> 280.8 87.6006<259.795 365.058> 576 87.5996<245.237 403.321>
VStem: 44.4004 82.7998<186.83 429.107> 373.2 82.7998<51.4649 278.268> 409.2 6<544.802 547.2>
LayerCount: 2
Fore
SplineSet
471.599609375 603.599609375 m 1xf8
 472.799804688 595.200195312 475.200195312 589.200195312 475.200195312 580.799804688 c 0
 475.200195312 559.200195312 456 540 433.200195312 540 c 0
 428.400390625 540 421.200195312 541.200195312 415.200195312 547.200195312 c 1
 415.200195312 544.799804688 l 1
 415.200195312 544.799804688 409.200195312 548.400390625 409.200195312 550.799804688 c 1xf4
 380.400390625 568.799804688 360 576 322.799804688 576 c 0
 196.799804688 576 127.200195312 430.799804688 127.200195312 316.799804688 c 0
 127.200195312 176.400390625 188.400390625 80.400390625 259.200195312 80.400390625 c 0
 324 80.400390625 373.200195312 129.599609375 373.200195312 195.599609375 c 0
 373.200195312 270 355.200195312 280.799804688 343.200195312 280.799804688 c 0
 336 280.799804688 326.400390625 280.799804688 313.200195312 280.799804688 c 0
 290.400390625 280.799804688 250.799804688 294 250.799804688 316.799804688 c 0
 250.799804688 337.200195312 264 363.599609375 288 368.400390625 c 1
 354 368.400390625 420 356.400390625 435.599609375 301.200195312 c 0
 450 250.799804688 456 162 456 99.599609375 c 0
 456 31.2001953125 454.799804688 0 416.400390625 0 c 0
 388.799804688 0 380.400390625 7.2001953125 376.799804688 49.2001953125 c 1
 344.400390625 20.400390625 289.200195312 -1.2001953125 250.799804688 -1.2001953125 c 0
 118.799804688 -1.2001953125 44.400390625 171.599609375 44.400390625 307.200195312 c 0
 44.400390625 528 175.200195312 663.599609375 331.200195312 663.599609375 c 0
 379.200195312 663.599609375 427.200195312 648 471.599609375 603.599609375 c 1xf8
EndSplineSet
Substitution2: "'c2sc' Capitals to Small Capitals in Latin lookup 1 subtable" G.smcp
EndChar

StartChar: H
Encoding: 72 72 18
Width: 468
VWidth: 1200
Flags: W
HStem: 292.8 76.7998<134.427 358.8> 646 4.40039G<99 114.6 393.6 409.8>
VStem: 61.2002 74.3994<379.131 640.653> 358.8 74.4004<15.7442 295.2 370.8 658.212>
LayerCount: 2
Fore
SplineSet
356.400390625 625.200195312 m 1
 361.200195312 646.799804688 384 666 403.200195312 666 c 0
 416.400390625 666 427.200195312 658.799804688 430.799804688 639.599609375 c 1
 430.799804688 512.400390625 433.200195312 399.599609375 433.200195312 272.400390625 c 0
 433.200195312 199.200195312 430.799804688 127.200195312 428.400390625 46.7998046875 c 1
 424.799804688 20.400390625 399.599609375 1.2001953125 379.200195312 1.2001953125 c 0
 366 1.2001953125 355.200195312 9.599609375 355.200195312 32.400390625 c 0
 357.599609375 106.799804688 358.799804688 162 358.799804688 225.599609375 c 0
 358.799804688 247.200195312 358.799804688 270 358.799804688 295.200195312 c 1
 339.599609375 292.799804688 318 292.799804688 296.400390625 292.799804688 c 0
 240 292.799804688 180 297.599609375 132 304.799804688 c 1
 132 289.200195312 132 274.799804688 132 261.599609375 c 0
 132 183.599609375 134.400390625 126 144 43.2001953125 c 1
 139.200195312 19.2001953125 116.400390625 -3.599609375 96 -3.599609375 c 0
 85.2001953125 -3.599609375 75.599609375 2.400390625 68.400390625 19.2001953125 c 1
 57.599609375 103.200195312 54 176.400390625 54 252 c 0
 54 289.200195312 55.2001953125 326.400390625 56.400390625 367.200195312 c 2
 61.2001953125 610.799804688 l 1
 67.2001953125 632.400390625 90 650.400390625 108 650.400390625 c 0
 121.200195312 650.400390625 132 642 135.599609375 622.799804688 c 1
 132 382.799804688 l 1
 183.599609375 374.400390625 247.200195312 369.599609375 308.400390625 369.599609375 c 0
 325.200195312 369.599609375 342 369.599609375 358.799804688 370.799804688 c 1
 356.400390625 459.599609375 356.400390625 538.799804688 356.400390625 625.200195312 c 1
EndSplineSet
Substitution2: "'c2sc' Capitals to Small Capitals in Latin lookup 1 subtable" H.smcp
EndChar

StartChar: I
Encoding: 73 73 19
Width: 235
VWidth: 1200
Flags: W
HStem: -1.2002 21G<96.6001 115.2> 625.6 20G<120.6 138>
VStem: 86.4004 78<32.2312 640.466>
LayerCount: 2
Fore
SplineSet
80.400390625 612 m 1
 85.2001953125 631.200195312 110.400390625 645.599609375 130.799804688 645.599609375 c 0
 145.200195312 645.599609375 156 639.599609375 159.599609375 622.799804688 c 1
 159.599609375 507.599609375 164.400390625 391.200195312 164.400390625 276 c 0
 164.400390625 195.599609375 163.200195312 115.200195312 156 37.2001953125 c 0
 153.599609375 15.599609375 126 -1.2001953125 104.400390625 -1.2001953125 c 0
 88.7998046875 -1.2001953125 75.599609375 7.2001953125 75.599609375 27.599609375 c 1
 84 109.200195312 86.400390625 193.200195312 86.400390625 276 c 0
 86.400390625 388.799804688 81.599609375 501.599609375 80.400390625 612 c 1
EndSplineSet
Substitution2: "'c2sc' Capitals to Small Capitals in Latin lookup 1 subtable" I.smcp
EndChar

StartChar: J
Encoding: 74 74 20
Width: 370
VWidth: 1200
Flags: W
HStem: -3.59961 70.7998<152.152 239.551>
VStem: 34.7998 73.2002<114.377 215.668> 267.6 73.2002<99.7651 498.206>
LayerCount: 2
Fore
SplineSet
34.7998046875 183.599609375 m 1
 36 204 61.2001953125 224.400390625 81.599609375 224.400390625 c 0
 93.599609375 224.400390625 103.200195312 218.400390625 108 204 c 1
 115.200195312 151.200195312 110.400390625 122.400390625 148.799804688 91.2001953125 c 0
 168 75.599609375 183.599609375 67.2001953125 200.400390625 67.2001953125 c 0
 267.599609375 67.2001953125 267.599609375 193.200195312 267.599609375 265.200195312 c 0
 267.599609375 372 249.599609375 513.599609375 238.799804688 631.200195312 c 1
 240 650.400390625 266.400390625 668.400390625 289.200195312 668.400390625 c 0
 302.400390625 668.400390625 314.400390625 662.400390625 319.200195312 648 c 1
 328.799804688 519.599609375 340.799804688 375.599609375 340.799804688 253.200195312 c 0
 340.799804688 138 333.599609375 -3.599609375 193.200195312 -3.599609375 c 0
 74.400390625 -3.599609375 48 98.400390625 34.7998046875 183.599609375 c 1
EndSplineSet
Substitution2: "'c2sc' Capitals to Small Capitals in Latin lookup 1 subtable" J.smcp
EndChar

StartChar: K
Encoding: 75 75 21
Width: 523
VWidth: 1200
Flags: W
HStem: 642.4 20G<83.3999 103.2 431.4 448.8>
VStem: 72 81.5996<12.6666 256.305> 433.2 70.7998<8.77244 56.102>
LayerCount: 2
Fore
SplineSet
502.799804688 64.7998046875 m 0
 504 61.2001953125 504 57.599609375 504 52.7998046875 c 0
 504 26.400390625 486 2.400390625 463.200195312 2.400390625 c 0
 453.599609375 2.400390625 442.799804688 6 433.200195312 15.599609375 c 1
 379.200195312 123.599609375 325.200195312 232.799804688 236.400390625 315.599609375 c 1
 207.599609375 288 184.799804688 265.200195312 152.400390625 241.200195312 c 1
 153.599609375 208.799804688 153.599609375 176.400390625 153.599609375 145.200195312 c 0
 153.599609375 90 164.400390625 1.2001953125 99.599609375 1.2001953125 c 0
 84 1.2001953125 72 10.7998046875 72 36 c 0
 72 62.400390625 73.2001953125 88.7998046875 73.2001953125 114 c 0
 73.2001953125 204 68.400390625 291.599609375 61.2001953125 382.799804688 c 1
 58.7998046875 445.200195312 56.400390625 540 46.7998046875 607.200195312 c 1
 46.7998046875 636 70.7998046875 662.400390625 96 662.400390625 c 0
 110.400390625 662.400390625 122.400390625 654 128.400390625 632.400390625 c 1
 142.799804688 538.799804688 145.200195312 448.799804688 147.599609375 344.400390625 c 1
 260.400390625 447.599609375 314.400390625 507.599609375 392.400390625 637.200195312 c 0
 403.200195312 655.200195312 423.599609375 663.599609375 439.200195312 663.599609375 c 0
 458.400390625 663.599609375 476.400390625 652.799804688 476.400390625 632.400390625 c 0
 476.400390625 625.200195312 474 618 469.200195312 608.400390625 c 0
 411.599609375 512.400390625 372 456 300 372 c 1
 392.400390625 280.799804688 445.200195312 178.799804688 502.799804688 64.7998046875 c 0
EndSplineSet
Substitution2: "'c2sc' Capitals to Small Capitals in Latin lookup 1 subtable" K.smcp
EndChar

StartChar: L
Encoding: 76 76 22
Width: 372
VWidth: 1200
Flags: W
HStem: 1.2002 72<107.241 304.365> 641.2 20G<69.6001 93.6001>
VStem: 27.5996 73.2002<75.3913 450.905> 37.2002 93.5996<393.375 655.539>
LayerCount: 2
Fore
SplineSet
37.2001953125 634.799804688 m 0xd0
 37.2001953125 652.799804688 58.7998046875 661.200195312 80.400390625 661.200195312 c 0
 106.799804688 661.200195312 130.799804688 649.200195312 130.799804688 624 c 1xd0
 118.799804688 483.599609375 100.799804688 351.599609375 100.799804688 213.599609375 c 0
 100.799804688 168 103.200195312 121.200195312 108 73.2001953125 c 1
 156 70.7998046875 247.200195312 87.599609375 307.200195312 87.599609375 c 0
 332.400390625 87.599609375 344.400390625 72 344.400390625 52.7998046875 c 0
 344.400390625 -12 216 1.2001953125 152.400390625 1.2001953125 c 0
 111.599609375 1.2001953125 46.7998046875 -8.400390625 36 20.400390625 c 1
 30 85.2001953125 27.599609375 151.200195312 27.599609375 217.200195312 c 0xe0
 27.599609375 356.400390625 37.2001953125 495.599609375 37.2001953125 634.799804688 c 0xd0
EndSplineSet
Substitution2: "'c2sc' Capitals to Small Capitals in Latin lookup 1 subtable" L.smcp
EndChar

StartChar: M
Encoding: 77 77 23
Width: 595
VWidth: 1200
Flags: W
HStem: -1.2002 21G<74.3999 92.3999 490.8 533.4> 309.6 85.2002<222.338 346.67> 646 20G<506.4 523.8>
VStem: 55.2002 81.5996<12.5599 367.2 512.636 608.101> 468 79.2002<201.435 442.8 559.179 655.894>
LayerCount: 2
Fore
SplineSet
135.599609375 46.7998046875 m 1
 130.799804688 19.2001953125 103.200195312 -1.2001953125 81.599609375 -1.2001953125 c 0
 67.2001953125 -1.2001953125 55.2001953125 8.400390625 55.2001953125 32.400390625 c 0
 55.2001953125 151.200195312 60 288 60 406.799804688 c 0
 60 465.599609375 58.7998046875 520.799804688 58.7998046875 567.599609375 c 0
 58.7998046875 588 74.400390625 616.799804688 97.2001953125 616.799804688 c 0
 109.200195312 616.799804688 124.799804688 608.400390625 140.400390625 586.799804688 c 1
 154.799804688 505.200195312 176.400390625 427.200195312 260.400390625 394.799804688 c 1
 391.200195312 394.799804688 438 506.400390625 464.400390625 624 c 1
 471.599609375 645.599609375 495.599609375 666 517.200195312 666 c 0
 530.400390625 666 542.400390625 657.599609375 547.200195312 634.799804688 c 1
 548.400390625 476.400390625 553.200195312 327.599609375 553.200195312 175.200195312 c 0
 553.200195312 110.400390625 568.799804688 -1.2001953125 498 -1.2001953125 c 0
 483.599609375 -1.2001953125 471.599609375 8.400390625 471.599609375 32.400390625 c 0
 471.599609375 63.599609375 472.799804688 96 472.799804688 127.200195312 c 0
 472.799804688 232.799804688 469.200195312 338.400390625 468 442.799804688 c 1
 416.400390625 355.200195312 346.799804688 309.599609375 259.200195312 309.599609375 c 0
 204 309.599609375 169.200195312 327.599609375 136.799804688 367.200195312 c 1
 136.799804688 350.400390625 136.799804688 332.400390625 136.799804688 315.599609375 c 0
 136.799804688 262.799804688 136.799804688 210 136.799804688 158.400390625 c 0
 136.799804688 121.200195312 136.799804688 84 135.599609375 46.7998046875 c 1
EndSplineSet
Substitution2: "'c2sc' Capitals to Small Capitals in Latin lookup 1 subtable" M.smcp
EndChar

StartChar: O
Encoding: 79 79 24
Width: 556
VWidth: 1200
Flags: W
HStem: 1.2002 90<227.343 354.525> 584.4 82.7998<209.404 368.797>
VStem: 42 80.4004<241.895 490.687> 436.8 84<208.533 500.919>
LayerCount: 2
Fore
SplineSet
304.799804688 667.200195312 m 0
 451.200195312 667.200195312 520.799804688 517.200195312 520.799804688 358.799804688 c 0
 520.799804688 188.400390625 439.200195312 8.400390625 288 1.2001953125 c 1
 92.400390625 1.2001953125 42 248.400390625 42 368.400390625 c 0
 42 529.200195312 117.599609375 667.200195312 304.799804688 667.200195312 c 0
421.200195312 220.799804688 m 0
 429.599609375 260.400390625 436.799804688 314.400390625 436.799804688 369.599609375 c 0
 436.799804688 476.400390625 408 584.400390625 298.799804688 584.400390625 c 0
 168 584.400390625 122.400390625 488.400390625 122.400390625 378 c 0
 122.400390625 308.400390625 151.200195312 91.2001953125 295.200195312 91.2001953125 c 0
 364.799804688 91.2001953125 409.200195312 166.799804688 421.200195312 220.799804688 c 0
EndSplineSet
Substitution2: "'c2sc' Capitals to Small Capitals in Latin lookup 1 subtable" O.smcp
EndChar

StartChar: P
Encoding: 80 80 25
Width: 481
VWidth: 1200
Flags: W
HStem: 302.4 72<135.6 320.831> 578.4 82.7998<133.275 342.103>
VStem: 49.2002 79.2002<377.438 575.512> 52.7998 86.4004<66.805 303.6> 391.2 85.2002<432.15 544.954>
LayerCount: 2
Fore
SplineSet
135.599609375 303.599609375 m 1xe8
 136.799804688 240 139.200195312 171.599609375 139.200195312 105.599609375 c 0
 139.200195312 66 150 0 104.400390625 0 c 0
 97.2001953125 0 88.7998046875 1.2001953125 80.400390625 3.599609375 c 0
 48 13.2001953125 55.2001953125 224.400390625 52.7998046875 315.599609375 c 1xd8
 44.400390625 322.799804688 39.599609375 327.599609375 39.599609375 336 c 0
 39.599609375 344.400390625 44.400390625 352.799804688 51.599609375 361.200195312 c 1
 51.599609375 382.799804688 49.2001953125 404.400390625 49.2001953125 424.799804688 c 0
 49.2001953125 488.400390625 52.7998046875 548.400390625 56.400390625 608.400390625 c 1
 68.400390625 656.400390625 142.799804688 661.200195312 202.799804688 661.200195312 c 0
 322.799804688 661.200195312 476.400390625 634.799804688 476.400390625 512.400390625 c 0
 476.400390625 349.200195312 307.200195312 302.400390625 170.400390625 302.400390625 c 0
 158.400390625 302.400390625 146.400390625 302.400390625 135.599609375 303.599609375 c 1xe8
132 577.200195312 m 1
 129.599609375 541.200195312 128.400390625 504 128.400390625 468 c 0xe8
 128.400390625 438 129.599609375 409.200195312 130.799804688 379.200195312 c 1
 154.799804688 376.799804688 182.400390625 374.400390625 210 374.400390625 c 0
 298.799804688 374.400390625 391.200195312 396 391.200195312 512.400390625 c 0
 391.200195312 562.799804688 274.799804688 578.400390625 183.599609375 578.400390625 c 0
 164.400390625 578.400390625 147.599609375 578.400390625 132 577.200195312 c 1
EndSplineSet
Substitution2: "'c2sc' Capitals to Small Capitals in Latin lookup 1 subtable" P.smcp
EndChar

StartChar: Q
Encoding: 81 81 26
Width: 655
VWidth: 1200
Flags: W
HStem: -1.2002 21G<546.6 571.8> 586.8 78<227.647 397.468>
VStem: 49.2002 82.7998<206.759 447.205> 531.6 73.2002<200.31 424.474>
LayerCount: 2
Fore
SplineSet
307.200195312 -3.599609375 m 1
 145.200195312 8.400390625 49.2001953125 159.599609375 49.2001953125 315.599609375 c 0
 49.2001953125 476.400390625 144 664.799804688 316.799804688 664.799804688 c 0
 502.799804688 664.799804688 604.799804688 492 604.799804688 319.200195312 c 0
 604.799804688 264 596.400390625 204 544.799804688 127.200195312 c 1
 564 104.400390625 604.799804688 68.400390625 604.799804688 44.400390625 c 0
 604.799804688 20.400390625 583.200195312 -1.2001953125 560.400390625 -1.2001953125 c 0
 532.799804688 -1.2001953125 500.400390625 44.400390625 481.200195312 67.2001953125 c 1
 432 25.2001953125 380.400390625 3.599609375 307.200195312 -3.599609375 c 1
319.200195312 72 m 1
 370.799804688 76.7998046875 404.400390625 84 444 112.799804688 c 1
 364.799804688 204 l 2
 344.400390625 228 333.599609375 246 334.799804688 260.400390625 c 1
 334.799804688 283.200195312 355.200195312 301.200195312 379.200195312 301.200195312 c 0
 415.200195312 301.200195312 475.200195312 211.200195312 500.400390625 180 c 1
 520.799804688 217.200195312 531.599609375 260.400390625 531.599609375 304.799804688 c 0
 531.599609375 444 452.400390625 586.799804688 304.799804688 586.799804688 c 0
 175.200195312 586.799804688 132 447.599609375 132 336 c 0
 132 211.200195312 181.200195312 80.400390625 319.200195312 72 c 1
EndSplineSet
Substitution2: "'c2sc' Capitals to Small Capitals in Latin lookup 1 subtable" Q.smcp
EndChar

StartChar: R
Encoding: 82 82 27
Width: 454
VWidth: 1200
Flags: W
HStem: 583.2 80.3994<117.533 302.957>
VStem: 39.5996 75.6006<4.56356 235.2 343.2 575.005> 339.6 76.8008<1.48756 49.4409> 349.2 76.7998<453.275 544.037>
LayerCount: 2
Fore
SplineSet
118.799804688 43.2001953125 m 1xe0
 114 18 91.2001953125 -3.599609375 70.7998046875 -3.599609375 c 0
 58.7998046875 -3.599609375 49.2001953125 2.400390625 43.2001953125 20.400390625 c 1
 40.7998046875 108 39.599609375 195.599609375 39.599609375 283.200195312 c 2
 39.599609375 499.200195312 l 1
 38.400390625 511.200195312 37.2001953125 523.200195312 37.2001953125 535.200195312 c 0
 37.2001953125 640.799804688 147.599609375 663.599609375 231.599609375 663.599609375 c 0
 296.400390625 663.599609375 426 606 426 513.599609375 c 0xd0
 426 423.599609375 288 321.599609375 184.799804688 286.799804688 c 1
 277.200195312 223.200195312 380.400390625 128.400390625 415.200195312 46.7998046875 c 0
 416.400390625 43.2001953125 416.400390625 39.599609375 416.400390625 37.2001953125 c 0
 416.400390625 13.2001953125 396 -3.599609375 374.400390625 -3.599609375 c 0
 362.400390625 -3.599609375 349.200195312 1.2001953125 339.599609375 12 c 1
 307.200195312 91.2001953125 204 176.400390625 112.799804688 235.200195312 c 1
 118.799804688 43.2001953125 l 1xe0
116.400390625 568.799804688 m 1
 115.200195312 492 115.200195312 416.400390625 115.200195312 343.200195312 c 1
 135.599609375 345.599609375 147.599609375 343.200195312 178.799804688 355.200195312 c 0
 225.599609375 373.200195312 349.200195312 440.400390625 349.200195312 495.599609375 c 0
 349.200195312 558 272.400390625 583.200195312 201.599609375 583.200195312 c 0
 169.200195312 583.200195312 138 578.400390625 116.400390625 568.799804688 c 1
EndSplineSet
Substitution2: "'c2sc' Capitals to Small Capitals in Latin lookup 1 subtable" R.smcp
EndChar

StartChar: S
Encoding: 83 83 28
Width: 459
VWidth: 1200
Flags: W
HStem: 0 84<163.397 315.46> 591.6 70.8008<168.051 333.198>
VStem: 33.5996 85.2002<453.325 551.098> 360 80.4004<130.24 278.247>
LayerCount: 2
Fore
SplineSet
409.200195312 615.599609375 m 0
 417.599609375 603.599609375 422.400390625 591.599609375 422.400390625 580.799804688 c 0
 422.400390625 561.599609375 408 547.200195312 386.400390625 547.200195312 c 0
 356.400390625 547.200195312 321.599609375 591.599609375 258 591.599609375 c 0
 193.200195312 591.599609375 118.799804688 559.200195312 118.799804688 506.400390625 c 0
 118.799804688 356.400390625 440.400390625 476.400390625 440.400390625 223.200195312 c 0
 440.400390625 106.799804688 349.200195312 0 223.200195312 0 c 0
 159.599609375 0 115.200195312 32.400390625 48 68.400390625 c 1
 38.400390625 76.7998046875 34.7998046875 86.400390625 34.7998046875 96 c 0
 34.7998046875 120 60 140.400390625 86.400390625 140.400390625 c 0
 88.7998046875 140.400390625 92.400390625 139.200195312 96 139.200195312 c 1
 144 111.599609375 204 84 254.400390625 84 c 0
 303.599609375 84 360 116.400390625 360 218.400390625 c 0
 360 393.599609375 33.599609375 259.200195312 33.599609375 504 c 0
 33.599609375 613.200195312 158.400390625 662.400390625 266.400390625 662.400390625 c 0
 330 662.400390625 386.400390625 645.599609375 409.200195312 615.599609375 c 0
EndSplineSet
Substitution2: "'c2sc' Capitals to Small Capitals in Latin lookup 1 subtable" S.smcp
EndChar

StartChar: T
Encoding: 84 84 29
Width: 468
VWidth: 1200
Flags: W
HStem: 577.2 72<9.51505 199.439> 589.2 75.5996<274.159 470.477>
VStem: 193.2 73.2002<2.34253 580.305>
LayerCount: 2
Fore
SplineSet
271.200195312 39.599609375 m 1x60
 267.599609375 14.400390625 243.599609375 -3.599609375 224.400390625 -3.599609375 c 0
 210 -3.599609375 199.200195312 6 199.200195312 28.7998046875 c 0
 199.200195312 156 193.200195312 252 193.200195312 352.799804688 c 0
 193.200195312 423.599609375 195.599609375 496.799804688 202.799804688 584.400390625 c 1
 145.200195312 579.599609375 88.7998046875 577.200195312 34.7998046875 577.200195312 c 0
 10.7998046875 577.200195312 1.2001953125 589.200195312 1.2001953125 603.599609375 c 0
 1.2001953125 622.799804688 19.2001953125 645.599609375 44.400390625 649.200195312 c 1xa0
 188.400390625 649.200195312 310.799804688 664.799804688 452.400390625 664.799804688 c 1
 472.799804688 658.799804688 481.200195312 648 481.200195312 636 c 0
 481.200195312 618 463.200195312 597.599609375 440.400390625 592.799804688 c 1
 379.200195312 592.799804688 334.799804688 591.599609375 272.400390625 589.200195312 c 1
 267.599609375 512.400390625 266.400390625 447.599609375 266.400390625 387.599609375 c 0
 266.400390625 277.200195312 271.200195312 178.799804688 271.200195312 39.599609375 c 1x60
EndSplineSet
Substitution2: "'c2sc' Capitals to Small Capitals in Latin lookup 1 subtable" T.smcp
EndChar

StartChar: U
Encoding: 85 85 30
Width: 550
VWidth: 1200
Flags: W
HStem: 0 78<244.471 353.788> 632.8 20G<90 106.2 453 469.8>
VStem: 34.7998 78<259.687 614.108> 433.2 76.7998<211.965 610.612>
LayerCount: 2
Fore
SplineSet
49.2001953125 612 m 1
 57.599609375 633.599609375 80.400390625 652.799804688 99.599609375 652.799804688 c 0
 112.799804688 652.799804688 123.599609375 644.400390625 127.200195312 622.799804688 c 1
 121.200195312 553.200195312 112.799804688 482.400390625 112.799804688 411.599609375 c 0
 112.799804688 378 114 345.599609375 120 313.200195312 c 0
 136.799804688 213.599609375 218.400390625 78 300 78 c 0
 337.200195312 78 375.599609375 105.599609375 408 176.400390625 c 1
 432 220.799804688 427.200195312 264 430.799804688 313.200195312 c 1
 430.799804688 356.400390625 433.200195312 400.799804688 433.200195312 445.200195312 c 0
 433.200195312 501.599609375 429.599609375 558 418.799804688 613.200195312 c 1
 418.799804688 640.799804688 441.599609375 666 464.400390625 666 c 0
 475.200195312 666 484.799804688 661.200195312 493.200195312 649.200195312 c 1
 506.400390625 583.200195312 510 518.400390625 510 453.599609375 c 0
 510 343.200195312 518.400390625 214.799804688 457.200195312 120 c 1
 412.799804688 38.400390625 337.200195312 0 284.400390625 0 c 0
 163.200195312 0 63.599609375 154.799804688 43.2001953125 284.400390625 c 0
 37.2001953125 320.400390625 34.7998046875 357.599609375 34.7998046875 394.799804688 c 0
 34.7998046875 468 43.2001953125 541.200195312 49.2001953125 612 c 1
EndSplineSet
Substitution2: "'c2sc' Capitals to Small Capitals in Latin lookup 1 subtable" U.smcp
EndChar

StartChar: V
Encoding: 86 86 31
Width: 562
VWidth: 1200
Flags: W
HStem: 642.4 20G<487.2 540.6>
VStem: 61.2002 81.5996<564.06 622.63>
LayerCount: 2
Fore
SplineSet
64.7998046875 564 m 0
 62.400390625 568.799804688 61.2001953125 574.799804688 61.2001953125 580.799804688 c 0
 61.2001953125 608.400390625 85.2001953125 632.400390625 109.200195312 632.400390625 c 0
 121.200195312 632.400390625 133.200195312 626.400390625 142.799804688 613.200195312 c 1
 207.599609375 463.200195312 274.799804688 315.599609375 334.799804688 164.400390625 c 1
 370.799804688 297.599609375 441.599609375 662.400390625 532.799804688 662.400390625 c 0
 548.400390625 662.400390625 561.599609375 652.799804688 561.599609375 636 c 0
 561.599609375 627.599609375 559.200195312 619.200195312 553.200195312 608.400390625 c 0
 526.799804688 560.400390625 511.200195312 488.400390625 492 442.799804688 c 1
 452.400390625 304.799804688 418.799804688 166.799804688 372 31.2001953125 c 0
 364.799804688 9.599609375 343.200195312 -6 325.200195312 -6 c 0
 313.200195312 -6 301.200195312 1.2001953125 295.200195312 19.2001953125 c 0
 231.599609375 205.200195312 145.200195312 384 64.7998046875 564 c 0
EndSplineSet
Substitution2: "'c2sc' Capitals to Small Capitals in Latin lookup 1 subtable" V.smcp
EndChar

StartChar: W
Encoding: 87 87 32
Width: 616
VWidth: 1200
Flags: W
HStem: 631.6 20G<65.3999 83.3999 564.6 580.8>
VStem: 28.7998 78<382.507 641.423> 526.8 76.7998<437.223 657.311>
LayerCount: 2
Fore
SplineSet
28.7998046875 598.799804688 m 1
 28.7998046875 626.400390625 54 651.599609375 76.7998046875 651.599609375 c 0
 90 651.599609375 102 643.200195312 106.799804688 622.799804688 c 1
 120 463.200195312 133.200195312 300 160.799804688 142.799804688 c 1
 204 217.200195312 258 406.799804688 314.400390625 406.799804688 c 0
 325.200195312 406.799804688 334.799804688 400.799804688 343.200195312 388.799804688 c 1
 373.200195312 303.599609375 403.200195312 214.799804688 451.200195312 136.799804688 c 1
 483.599609375 303.599609375 516 457.200195312 526.799804688 625.200195312 c 1
 532.799804688 648 554.400390625 667.200195312 574.799804688 667.200195312 c 0
 586.799804688 667.200195312 598.799804688 658.799804688 603.599609375 637.200195312 c 1
 591.599609375 430.799804688 547.200195312 236.400390625 505.200195312 34.7998046875 c 1
 496.799804688 14.400390625 481.200195312 0 463.200195312 0 c 0
 453.599609375 0 444 3.599609375 435.599609375 12 c 1
 373.200195312 96 343.200195312 188.400390625 298.799804688 283.200195312 c 1
 250.799804688 196.799804688 223.200195312 108 176.400390625 22.7998046875 c 1
 165.599609375 9.599609375 150 0 135.599609375 0 c 0
 88.7998046875 0 72 181.200195312 64.7998046875 252 c 0
 51.599609375 368.400390625 39.599609375 483.599609375 28.7998046875 598.799804688 c 1
EndSplineSet
Substitution2: "'c2sc' Capitals to Small Capitals in Latin lookup 1 subtable" W.smcp
EndChar

StartChar: X
Encoding: 88 88 33
Width: 601
VWidth: 1200
Flags: W
HStem: 642.4 20G<537 552.6>
LayerCount: 2
Fore
SplineSet
92.400390625 7.2001953125 m 1
 80.400390625 -1.2001953125 68.400390625 -4.7998046875 58.7998046875 -4.7998046875 c 0
 40.7998046875 -4.7998046875 28.7998046875 7.2001953125 28.7998046875 26.400390625 c 0
 28.7998046875 34.7998046875 31.2001953125 45.599609375 37.2001953125 56.400390625 c 1
 100.799804688 128.400390625 171.599609375 204 240 288 c 1
 172.799804688 392.400390625 115.200195312 481.200195312 67.2001953125 565.200195312 c 0
 63.599609375 572.400390625 62.400390625 579.599609375 62.400390625 585.599609375 c 0
 62.400390625 612 84 636 108 636 c 0
 117.599609375 636 130.799804688 632.400390625 139.200195312 619.200195312 c 0
 189.599609375 536.400390625 243.599609375 448.799804688 300 360 c 1
 382.799804688 457.200195312 436.799804688 535.200195312 496.799804688 632.400390625 c 0
 508.799804688 652.799804688 529.200195312 662.400390625 544.799804688 662.400390625 c 0
 560.400390625 662.400390625 573.599609375 652.799804688 573.599609375 633.599609375 c 0
 573.599609375 626.400390625 571.200195312 618 567.599609375 608.400390625 c 1
 499.200195312 493.200195312 432 406.799804688 344.400390625 295.200195312 c 1
 391.200195312 219.599609375 444 140.400390625 502.799804688 72 c 1
 507.599609375 63.599609375 511.200195312 55.2001953125 511.200195312 46.7998046875 c 0
 511.200195312 21.599609375 488.400390625 -2.400390625 462 -2.400390625 c 0
 452.400390625 -2.400390625 442.799804688 0 433.200195312 8.400390625 c 1
 379.200195312 75.599609375 331.200195312 151.200195312 283.200195312 224.400390625 c 1
 219.599609375 148.799804688 154.799804688 76.7998046875 92.400390625 7.2001953125 c 1
EndSplineSet
Substitution2: "'c2sc' Capitals to Small Capitals in Latin lookup 1 subtable" X.smcp
EndChar

StartChar: Y
Encoding: 89 89 34
Width: 442
VWidth: 1200
Flags: W
HStem: 646 18.7998G<50.3999 73.7998 397.2 410.4>
VStem: 175.2 68.3994<8.50316 334.427>
LayerCount: 2
Fore
SplineSet
370.799804688 652.799804688 m 1
 381.599609375 662.400390625 392.400390625 666 402 666 c 0
 418.799804688 666 430.799804688 655.200195312 430.799804688 637.200195312 c 0
 430.799804688 631.200195312 429.599609375 625.200195312 427.200195312 619.200195312 c 1
 358.799804688 535.200195312 301.200195312 421.200195312 248.400390625 324 c 1
 248.400390625 229.200195312 243.599609375 175.200195312 243.599609375 121.200195312 c 0
 243.599609375 97.2001953125 244.799804688 72 247.200195312 44.400390625 c 1
 242.400390625 22.7998046875 223.200195312 2.400390625 205.200195312 2.400390625 c 0
 169.200195312 2.400390625 175.200195312 78 175.200195312 111.599609375 c 0
 175.200195312 156 177.599609375 198 177.599609375 242.400390625 c 0
 177.599609375 271.200195312 176.400390625 302.400390625 172.799804688 336 c 1
 116.400390625 418.799804688 68.400390625 519.599609375 24 608.400390625 c 0
 21.599609375 613.200195312 20.400390625 618 20.400390625 622.799804688 c 0
 20.400390625 645.599609375 40.7998046875 664.799804688 60 664.799804688 c 0
 87.599609375 664.799804688 140.400390625 549.599609375 166.799804688 505.200195312 c 0
 177.599609375 487.200195312 204 430.799804688 217.200195312 412.799804688 c 1
 262.799804688 493.200195312 l 2
 291.599609375 544.799804688 325.200195312 598.799804688 370.799804688 652.799804688 c 1
EndSplineSet
Substitution2: "'c2sc' Capitals to Small Capitals in Latin lookup 1 subtable" Y.smcp
EndChar

StartChar: Z
Encoding: 90 90 35
Width: 507
VWidth: 1200
Flags: W
HStem: -2.40039 78<128.4 445.293> 312 75.5996<367.2 428.973> 355.2 70.7998<100.343 151.032> 589.2 75.5996<48.3578 311.027>
LayerCount: 2
Fore
SplineSet
104.400390625 355.200195312 m 1xb0
 96 363.599609375 92.400390625 373.200195312 92.400390625 381.599609375 c 0
 92.400390625 404.400390625 115.200195312 426 141.599609375 426 c 0xb0
 145.200195312 426 147.599609375 424.799804688 151.200195312 424.799804688 c 1
 188.400390625 404.400390625 231.599609375 400.799804688 279.599609375 396 c 1
 322.799804688 451.200195312 363.599609375 500.400390625 397.200195312 562.799804688 c 1
 301.200195312 584.400390625 147.599609375 589.200195312 70.7998046875 589.200195312 c 0
 46.7998046875 589.200195312 37.2001953125 601.200195312 37.2001953125 614.400390625 c 0
 37.2001953125 634.799804688 57.599609375 661.200195312 82.7998046875 664.799804688 c 1
 172.799804688 664.799804688 382.799804688 655.200195312 469.200195312 624 c 1
 483.599609375 614.400390625 487.200195312 607.200195312 487.200195312 594 c 0
 487.200195312 591.599609375 487.200195312 589.200195312 487.200195312 586.799804688 c 0
 454.799804688 514.799804688 412.799804688 447.599609375 367.200195312 387.599609375 c 1
 382.799804688 387.599609375 394.799804688 387.599609375 409.200195312 388.799804688 c 1
 429.599609375 385.200195312 438 374.400390625 438 361.200195312 c 0
 438 302.400390625 357.599609375 312 307.200195312 312 c 1xd0
 223.200195312 216 169.200195312 202.799804688 128.400390625 75.599609375 c 1
 184.799804688 75.599609375 242.400390625 73.2001953125 301.200195312 73.2001953125 c 0
 349.200195312 73.2001953125 398.400390625 74.400390625 447.599609375 80.400390625 c 1
 468 76.7998046875 476.400390625 66 476.400390625 52.7998046875 c 0
 476.400390625 -15.599609375 348 -2.400390625 279.599609375 -2.400390625 c 0
 241.200195312 -2.400390625 201.599609375 -2.400390625 163.200195312 -2.400390625 c 0
 134.400390625 -2.400390625 105.599609375 -3.599609375 76.7998046875 -3.599609375 c 0
 52.7998046875 -3.599609375 44.400390625 4.7998046875 44.400390625 28.7998046875 c 1
 70.7998046875 175.200195312 128.400390625 211.200195312 216 319.200195312 c 1
 178.799804688 325.200195312 140.400390625 336 104.400390625 355.200195312 c 1xb0
EndSplineSet
Substitution2: "'c2sc' Capitals to Small Capitals in Latin lookup 1 subtable" Z.smcp
EndChar

StartChar: a
Encoding: 97 97 36
Width: 459
VWidth: 1200
Flags: W
HStem: 0 74.4004<164.117 261.802> 375.6 87.6006<172.93 291.599>
VStem: 56.4004 76.7998<107.257 327.098> 312 79.2002<130.221 355.866>
LayerCount: 2
Fore
SplineSet
406.799804688 13.2001953125 m 1
 403.200195312 -2.400390625 381.599609375 -10.7998046875 361.200195312 -10.7998046875 c 0
 314.400390625 -10.7998046875 321.599609375 31.2001953125 319.200195312 49.2001953125 c 1
 288 16.7998046875 242.400390625 0 198 0 c 0
 88.7998046875 0 56.400390625 91.2001953125 56.400390625 218.400390625 c 0
 56.400390625 324 87.599609375 463.200195312 232.799804688 463.200195312 c 0
 261.599609375 463.200195312 289.200195312 457.200195312 312 448.799804688 c 1
 320.400390625 460.799804688 336 466.799804688 350.400390625 466.799804688 c 0
 399.599609375 466.799804688 391.200195312 388.799804688 391.200195312 338.400390625 c 0
 391.200195312 292.799804688 388.799804688 244.799804688 384 204 c 1
 387.599609375 133.200195312 392.400390625 82.7998046875 406.799804688 13.2001953125 c 1
292.799804688 135.599609375 m 1
 303.599609375 166.799804688 312 214.799804688 312 259.200195312 c 0
 312 330 297.599609375 375.599609375 243.599609375 375.599609375 c 0
 230.400390625 375.599609375 216 374.400390625 204 373.200195312 c 0
 164.400390625 368.400390625 133.200195312 289.200195312 133.200195312 256.799804688 c 0
 133.200195312 244.799804688 133.200195312 230.400390625 133.200195312 217.200195312 c 0
 133.200195312 153.599609375 147.599609375 74.400390625 206.400390625 74.400390625 c 0
 241.200195312 74.400390625 279.599609375 103.200195312 292.799804688 135.599609375 c 1
EndSplineSet
Substitution2: "'smcp' Lowercase to Small Capitals in Latin lookup 0 subtable" A.smcp
EndChar

StartChar: b
Encoding: 98 98 37
Width: 412
VWidth: 1200
Flags: W
HStem: -1.2002 84<152.937 258.312> 378 91.2002<139.2 254.851>
VStem: 56.4004 72<469.251 706.228> 67.2002 85.2002<83.8381 302.4> 314.4 73.1992<144.88 317.52>
LayerCount: 2
Fore
SplineSet
56.400390625 675.599609375 m 1xe8
 62.400390625 698.400390625 85.2001953125 716.400390625 105.599609375 716.400390625 c 0
 117.599609375 716.400390625 129.599609375 708 133.200195312 687.599609375 c 1
 133.200195312 589.200195312 128.400390625 588 128.400390625 547.200195312 c 0xe8
 128.400390625 530.400390625 129.599609375 505.200195312 132 463.200195312 c 1
 144 466.799804688 164.400390625 469.200195312 184.799804688 469.200195312 c 0
 308.400390625 469.200195312 387.599609375 369.599609375 387.599609375 234 c 0
 387.599609375 122.400390625 310.799804688 -1.2001953125 171.599609375 -1.2001953125 c 0
 141.599609375 -1.2001953125 67.2001953125 3.599609375 67.2001953125 55.2001953125 c 0xd8
 67.2001953125 273.599609375 56.400390625 289.200195312 56.400390625 675.599609375 c 1xe8
214.799804688 373.200195312 m 0
 201.599609375 375.599609375 187.200195312 378 174 378 c 0
 160.799804688 378 148.799804688 375.599609375 139.200195312 372 c 1
 147.599609375 272.400390625 148.799804688 188.400390625 152.400390625 88.7998046875 c 1xd8
 166.799804688 84 180 82.7998046875 190.799804688 82.7998046875 c 0
 265.200195312 82.7998046875 314.400390625 146.400390625 314.400390625 234 c 0
 314.400390625 295.200195312 285.599609375 356.400390625 214.799804688 373.200195312 c 0
EndSplineSet
Substitution2: "'smcp' Lowercase to Small Capitals in Latin lookup 0 subtable" B.smcp
EndChar

StartChar: c
Encoding: 99 99 38
Width: 388
VWidth: 1200
Flags: W
HStem: 0 88.7998<147.488 281.181> 382.8 84<178.939 322.878>
VStem: 25.2002 86.3994<126.539 312.998>
LayerCount: 2
Fore
SplineSet
264 466.799804688 m 0
 286.799804688 466.799804688 373.200195312 463.200195312 373.200195312 428.400390625 c 0
 373.200195312 406.799804688 358.799804688 360 331.200195312 360 c 0
 312 360 274.799804688 382.799804688 252 382.799804688 c 0
 180 382.799804688 111.599609375 325.200195312 111.599609375 235.200195312 c 0
 111.599609375 144 130.799804688 88.7998046875 212.400390625 88.7998046875 c 0
 268.799804688 88.7998046875 316.799804688 140.400390625 355.200195312 140.400390625 c 0
 372 140.400390625 382.799804688 127.200195312 382.799804688 111.599609375 c 0
 382.799804688 60 272.400390625 0 195.599609375 0 c 0
 87.599609375 0 25.2001953125 92.400390625 25.2001953125 235.200195312 c 0
 25.2001953125 380.400390625 151.200195312 466.799804688 264 466.799804688 c 0
EndSplineSet
Substitution2: "'smcp' Lowercase to Small Capitals in Latin lookup 0 subtable" C.smcp
EndChar

StartChar: d
Encoding: 100 100 39
Width: 428
VWidth: 1200
Flags: W
HStem: 1.2002 81.5996<159.765 284.834> 379.2 90<166.326 278.916>
VStem: 34.7998 81.6006<130.73 312.214> 285.6 75.6006<471.223 712.212> 300 81.5996<99.4148 325.487> 300 68.4004<134.575 358.853> 308.4 72<-4.48312 34.7998>
LayerCount: 2
Fore
SplineSet
380.400390625 22.7998046875 m 1xe2
 375.599609375 -4.7998046875 356.400390625 -7.2001953125 334.799804688 -7.2001953125 c 0
 321.599609375 -7.2001953125 312 1.2001953125 308.400390625 19.2001953125 c 2xe2
 304.799804688 34.7998046875 l 1
 276 12 240 1.2001953125 202.799804688 1.2001953125 c 0
 92.400390625 1.2001953125 34.7998046875 98.400390625 34.7998046875 193.200195312 c 0
 34.7998046875 301.200195312 94.7998046875 469.200195312 259.200195312 469.200195312 c 0
 267.599609375 469.200195312 277.200195312 469.200195312 286.799804688 468 c 1
 286.799804688 507.599609375 285.599609375 524.400390625 285.599609375 548.400390625 c 0
 285.599609375 564 286.799804688 583.200195312 286.799804688 612 c 0
 286.799804688 630 285.599609375 646.799804688 285.599609375 661.200195312 c 0
 285.599609375 693.599609375 291.599609375 715.200195312 325.200195312 715.200195312 c 0
 360 715.200195312 361.200195312 680.400390625 361.200195312 631.200195312 c 0xf0
 361.200195312 519.599609375 366 488.400390625 368.400390625 368.400390625 c 0xe4
 369.599609375 276 381.599609375 190.799804688 381.599609375 79.2001953125 c 0xe8
 381.599609375 61.2001953125 380.400390625 42 380.400390625 22.7998046875 c 1xe2
295.200195312 120 m 0
 300 135.599609375 298.799804688 199.200195312 300 216 c 0
 300 222 300 228 300 235.200195312 c 0xe8
 300 300 284.400390625 379.200195312 255.599609375 379.200195312 c 0
 235.200195312 379.200195312 166.799804688 375.599609375 148.799804688 351.599609375 c 0
 121.200195312 315.599609375 116.400390625 252 116.400390625 212.400390625 c 0
 116.400390625 158.400390625 142.799804688 82.7998046875 222 82.7998046875 c 0
 247.200195312 82.7998046875 286.799804688 94.7998046875 295.200195312 120 c 0
EndSplineSet
Substitution2: "'smcp' Lowercase to Small Capitals in Latin lookup 0 subtable" D.smcp
EndChar

StartChar: e
Encoding: 101 101 40
Width: 399
VWidth: 1200
Flags: W
HStem: -3.59961 87.5996<167.555 277.806> 212.4 70.7998<133.2 242.589> 393.6 69.6006<169.525 266.019>
VStem: 272.4 87.5996<309.686 386.937>
LayerCount: 2
Fore
SplineSet
235.200195312 223.200195312 m 0
 195.599609375 211.200195312 171.599609375 212.400390625 133.200195312 212.400390625 c 1
 142.799804688 145.200195312 154.799804688 84 217.200195312 84 c 0
 286.799804688 84 330 168 367.200195312 168 c 0
 381.599609375 168 406.799804688 136.799804688 406.799804688 120 c 0
 406.799804688 97.2001953125 307.200195312 -3.599609375 200.400390625 -3.599609375 c 0
 94.7998046875 -3.599609375 49.2001953125 138 49.2001953125 256.799804688 c 0
 49.2001953125 348 88.7998046875 463.200195312 200.400390625 463.200195312 c 0
 277.200195312 463.200195312 360 420 360 360 c 0
 360 294 286.799804688 237.599609375 235.200195312 223.200195312 c 0
184.799804688 384 m 0
 144 361.200195312 139.200195312 325.200195312 132 283.200195312 c 1
 242.400390625 283.200195312 272.400390625 316.799804688 272.400390625 351.599609375 c 0
 272.400390625 379.200195312 249.599609375 393.599609375 222 393.599609375 c 0
 208.799804688 393.599609375 195.599609375 390 184.799804688 384 c 0
EndSplineSet
Substitution2: "'smcp' Lowercase to Small Capitals in Latin lookup 0 subtable" E.smcp
EndChar

StartChar: f
Encoding: 102 102 41
Width: 356
VWidth: 1200
Flags: W
HStem: -1.2002 21G<152.4 169.2> 385.2 80.3994<13.0791 116.4 193.2 299.524> 639.6 75.6006<199.247 312.845>
VStem: 116.4 73.1992<146.659 385.2 463.2 631.001> 133.2 75.5996<9.80268 271.462>
LayerCount: 2
Fore
SplineSet
37.2001953125 388.799804688 m 0xf0
 20.400390625 391.200195312 4.7998046875 409.200195312 4.7998046875 421.200195312 c 0
 4.7998046875 470.400390625 81.599609375 465.599609375 88.7998046875 465.599609375 c 0
 93.599609375 465.599609375 100.799804688 464.400390625 116.400390625 463.200195312 c 1
 120 663.599609375 128.400390625 715.200195312 214.799804688 715.200195312 c 0
 325.200195312 715.200195312 333.599609375 686.400390625 333.599609375 656.400390625 c 0
 333.599609375 637.200195312 324 619.200195312 307.200195312 619.200195312 c 0
 280.799804688 619.200195312 267.599609375 639.599609375 236.400390625 639.599609375 c 0
 195.599609375 639.599609375 189.599609375 606 189.599609375 546 c 0xf0
 189.599609375 522 190.799804688 493.200195312 190.799804688 459.599609375 c 1
 252 459.599609375 304.799804688 469.200195312 304.799804688 424.799804688 c 0
 304.799804688 376.799804688 226.799804688 385.200195312 193.200195312 385.200195312 c 1
 199.200195312 240 208.799804688 195.599609375 208.799804688 43.2001953125 c 1
 205.200195312 19.2001953125 178.799804688 -1.2001953125 159.599609375 -1.2001953125 c 0
 145.200195312 -1.2001953125 133.200195312 8.400390625 133.200195312 31.2001953125 c 0xe8
 133.200195312 187.200195312 121.200195312 207.599609375 116.400390625 385.200195312 c 1
 70.7998046875 387.599609375 78 384 37.2001953125 388.799804688 c 0xf0
EndSplineSet
Substitution2: "'smcp' Lowercase to Small Capitals in Latin lookup 0 subtable" F.smcp
EndChar

StartChar: g
Encoding: 103 103 42
Width: 445
VWidth: 1200
Flags: W
HStem: -312 72<180.73 304.868> 0 94.7998<176.861 305.697> 384 80.4004<179.689 279.85>
VStem: 55.2002 78<140.604 330.558> 324 74.4004<-66.6918 40.7998 110.873 330.59> 328.8 78<-216.646 245.419>
LayerCount: 2
Fore
SplineSet
106.799804688 -277.200195312 m 1xf4
 82.7998046875 -265.200195312 75.599609375 -250.799804688 75.599609375 -238.799804688 c 0
 75.599609375 -206.400390625 99.599609375 -195.599609375 114 -195.599609375 c 0
 157.200195312 -195.599609375 195.599609375 -240 256.799804688 -240 c 0
 322.799804688 -240 328.799804688 -175.200195312 328.799804688 -130.799804688 c 0xf4
 328.799804688 -45.599609375 327.599609375 7.2001953125 325.200195312 40.7998046875 c 1
 316.799804688 31.2001953125 292.799804688 0 238.799804688 0 c 0
 120 0 55.2001953125 108 55.2001953125 235.200195312 c 0
 55.2001953125 352.799804688 127.200195312 464.400390625 259.200195312 464.400390625 c 0
 397.200195312 464.400390625 398.400390625 289.200195312 398.400390625 158.400390625 c 0xf8
 398.400390625 31.2001953125 406.799804688 -7.2001953125 406.799804688 -69.599609375 c 0
 406.799804688 -151.200195312 435.599609375 -312 238.799804688 -312 c 0
 190.799804688 -312 154.799804688 -304.799804688 106.799804688 -277.200195312 c 1xf4
241.200195312 94.7998046875 m 0
 320.400390625 94.7998046875 324 135.599609375 324 195.599609375 c 0xf8
 324 256.799804688 316.799804688 384 231.599609375 384 c 0
 171.599609375 384 133.200195312 313.200195312 133.200195312 248.400390625 c 0
 133.200195312 154.799804688 160.799804688 94.7998046875 241.200195312 94.7998046875 c 0
EndSplineSet
Substitution2: "'smcp' Lowercase to Small Capitals in Latin lookup 0 subtable" G.smcp
EndChar

StartChar: h
Encoding: 104 104 43
Width: 420
VWidth: 1200
Flags: W
HStem: -1.2002 21G<92.3999 109.8> 387.6 81.6006<159.559 285.481>
VStem: 39.5996 92.4004<447.745 700.078> 68.4004 76.7998<40.7998 107.975 113.401 267.834> 307.2 78<10.6679 213.141> 313.2 84<20.8371 359.163>
LayerCount: 2
Fore
SplineSet
385.200195312 40.7998046875 m 1xc8
 382.799804688 20.400390625 356.400390625 0 331.200195312 0 c 0
 318 0 307.200195312 8.400390625 307.200195312 26.400390625 c 0
 307.200195312 28.7998046875 307.200195312 30 307.200195312 32.400390625 c 2xc8
 313.200195312 208.799804688 l 2
 313.200195312 224.400390625 313.200195312 242.400390625 313.200195312 260.400390625 c 0
 313.200195312 322.799804688 304.799804688 387.599609375 226.799804688 387.599609375 c 0
 193.200195312 387.599609375 145.200195312 380.400390625 145.200195312 324 c 0
 145.200195312 188.400390625 152.400390625 200.400390625 152.400390625 109.200195312 c 0
 152.400390625 82.7998046875 152.400390625 73.2001953125 151.200195312 40.7998046875 c 1
 148.799804688 37.2001953125 l 1
 142.799804688 15.599609375 118.799804688 -1.2001953125 100.799804688 -1.2001953125 c 0
 84 -1.2001953125 72 7.2001953125 70.7998046875 25.2001953125 c 1
 68.400390625 25.2001953125 l 1xd4
 68.400390625 310.799804688 44.400390625 372 39.599609375 675.599609375 c 1
 44.400390625 697.200195312 67.2001953125 716.400390625 82.7998046875 716.400390625 c 0
 141.599609375 716.400390625 120 596.400390625 132 442.799804688 c 1
 163.200195312 459.599609375 199.200195312 469.200195312 238.799804688 469.200195312 c 0
 373.200195312 469.200195312 397.200195312 348 397.200195312 216 c 0xe4
 397.200195312 154.799804688 388.799804688 106.799804688 385.200195312 40.7998046875 c 1xc8
EndSplineSet
Substitution2: "'smcp' Lowercase to Small Capitals in Latin lookup 0 subtable" H.smcp
EndChar

StartChar: i
Encoding: 105 105 44
Width: 241
VWidth: 1200
Flags: W
HStem: 540 127.2<83.5803 154.702>
VStem: 68.4004 104.399<557.359 651.086> 75.5996 86.4004<93.825 461.775> 87.5996 73.2002<2.74315 256.179>
LayerCount: 2
Fore
SplineSet
82.7998046875 651.599609375 m 1xc0
 99.599609375 667.200195312 106.799804688 664.799804688 116.400390625 667.200195312 c 1
 148.799804688 661.200195312 172.799804688 656.400390625 172.799804688 608.400390625 c 0
 172.799804688 579.599609375 147.599609375 540 118.799804688 540 c 0
 91.2001953125 540 68.400390625 571.200195312 68.400390625 604.799804688 c 0
 68.400390625 620.400390625 68.400390625 640.799804688 82.7998046875 651.599609375 c 1xc0
79.2001953125 454.799804688 m 0
 80.400390625 468 90 472.799804688 103.200195312 472.799804688 c 0
 180 472.799804688 162 387.599609375 162 332.400390625 c 0xa0
 162 258 159.599609375 180 159.599609375 108 c 0
 159.599609375 84 159.599609375 61.2001953125 160.799804688 39.599609375 c 1
 157.200195312 15.599609375 136.799804688 -6 116.400390625 -6 c 0
 105.599609375 -6 94.7998046875 1.2001953125 87.599609375 19.2001953125 c 1x90
 84 111.599609375 75.599609375 236.400390625 75.599609375 345.599609375 c 0xa0
 75.599609375 385.200195312 76.7998046875 421.200195312 79.2001953125 454.799804688 c 0
EndSplineSet
Substitution2: "'smcp' Lowercase to Small Capitals in Latin lookup 0 subtable" I.smcp
EndChar

StartChar: j
Encoding: 106 106 45
Width: 235
VWidth: 1200
Flags: W
HStem: -260.4 80.4004<-20.6597 39.9311> 448 20G<100.2 118.2> 543.6 120<56.6291 147.202>
VStem: 43.2002 114<556.108 652.46> 72 76.7998<-139.5 149.497 218.737 464.716> 79.2002 82.7998<-43.2738 442.232>
LayerCount: 2
Fore
SplineSet
43.2001953125 604.799804688 m 1xf0
 46.7998046875 626.400390625 52.7998046875 663.599609375 102 663.599609375 c 0
 156 663.599609375 157.200195312 619.200195312 157.200195312 591.599609375 c 0
 157.200195312 565.200195312 130.799804688 543.599609375 99.599609375 543.599609375 c 0
 63.599609375 543.599609375 44.400390625 573.599609375 43.2001953125 604.799804688 c 1xf0
68.400390625 430.799804688 m 1
 69.599609375 453.599609375 90 468 110.400390625 468 c 0
 126 468 141.599609375 459.599609375 151.200195312 442.799804688 c 1
 158.400390625 382.799804688 162 298.799804688 162 214.799804688 c 0xe4
 160.799804688 74.400390625 153.599609375 -64.7998046875 148.799804688 -92.400390625 c 0
 136.799804688 -150 123.599609375 -260.400390625 8.400390625 -260.400390625 c 0
 -56.400390625 -260.400390625 -91.2001953125 -246 -111.599609375 -180 c 0
 -112.799804688 -177.599609375 -112.799804688 -174 -112.799804688 -171.599609375 c 0
 -112.799804688 -146.400390625 -86.400390625 -122.400390625 -61.2001953125 -122.400390625 c 0
 -16.7998046875 -122.400390625 -34.7998046875 -180 12 -180 c 0
 44.400390625 -180 67.2001953125 -108 72 -55.2001953125 c 0xe8
 74.400390625 -19.2001953125 79.2001953125 85.2001953125 79.2001953125 195.599609375 c 0xe4
 79.2001953125 279.599609375 76.7998046875 367.200195312 68.400390625 430.799804688 c 1
EndSplineSet
Substitution2: "'smcp' Lowercase to Small Capitals in Latin lookup 0 subtable" J.smcp
EndChar

StartChar: k
Encoding: 107 107 46
Width: 415
VWidth: 1200
Flags: W
HStem: -1.2002 21G<77.3999 93.6001> 446.8 20G<341.4 358.8>
VStem: 43.2002 75.5996<441.579 701.336> 58.7998 74.4004<9.35343 160.119>
LayerCount: 2
Fore
SplineSet
394.799804688 68.400390625 m 0xe0
 398.400390625 62.400390625 399.599609375 55.2001953125 399.599609375 48 c 0
 399.599609375 24 382.799804688 0 357.599609375 0 c 0
 326.400390625 0 303.599609375 157.200195312 224.400390625 231.599609375 c 1
 202.799804688 207.599609375 163.200195312 175.200195312 132 144 c 1
 132 106.799804688 133.200195312 80.400390625 133.200195312 44.400390625 c 1
 130.799804688 19.2001953125 103.200195312 -1.2001953125 84 -1.2001953125 c 0
 70.7998046875 -1.2001953125 58.7998046875 8.400390625 58.7998046875 32.400390625 c 0xd0
 58.7998046875 216 43.2001953125 468 43.2001953125 541.200195312 c 0
 43.2001953125 572.400390625 43.2001953125 610.799804688 43.2001953125 670.799804688 c 1
 48 692.400390625 72 711.599609375 91.2001953125 711.599609375 c 0
 104.400390625 711.599609375 115.200195312 703.200195312 118.799804688 682.799804688 c 1
 118.799804688 475.200195312 120 469.200195312 130.799804688 260.400390625 c 1
 157.200195312 284.400390625 178.799804688 292.799804688 280.799804688 418.799804688 c 0
 292.799804688 433.200195312 334.799804688 466.799804688 348 466.799804688 c 0
 369.599609375 466.799804688 386.400390625 457.200195312 386.400390625 441.599609375 c 0
 386.400390625 440.400390625 338.400390625 351.599609375 276 284.400390625 c 1
 340.799804688 212.400390625 361.200195312 124.799804688 394.799804688 68.400390625 c 0xe0
EndSplineSet
Substitution2: "'smcp' Lowercase to Small Capitals in Latin lookup 0 subtable" K.smcp
EndChar

StartChar: l
Encoding: 108 108 47
Width: 284
VWidth: 1200
Flags: W
HStem: 688 20G<99.6001 119.4>
VStem: 64.7998 76.7998<157.392 559.28> 67.2002 84<423.105 703.248>
LayerCount: 2
Fore
SplineSet
67.2001953125 673.200195312 m 1xa0
 67.2001953125 694.799804688 88.7998046875 708 110.400390625 708 c 0
 128.400390625 708 146.400390625 698.400390625 151.200195312 673.200195312 c 1xa0
 142.799804688 591.599609375 141.599609375 531.599609375 141.599609375 318 c 0
 141.599609375 228 147.599609375 112.799804688 184.799804688 82.7998046875 c 1
 216 90 224.400390625 148.799804688 260.400390625 148.799804688 c 0
 278.400390625 148.799804688 295.200195312 130.799804688 295.200195312 94.7998046875 c 0
 295.200195312 48 243.599609375 -4.7998046875 184.799804688 -4.7998046875 c 0
 52.7998046875 -4.7998046875 70.7998046875 252 64.7998046875 397.200195312 c 0xc0
 63.599609375 423.599609375 63.599609375 456 63.599609375 489.599609375 c 0
 63.599609375 566.400390625 64.7998046875 646.799804688 67.2001953125 673.200195312 c 1xa0
EndSplineSet
Substitution2: "'smcp' Lowercase to Small Capitals in Latin lookup 0 subtable" L.smcp
EndChar

StartChar: m
Encoding: 109 109 48
Width: 680
VWidth: 1200
Flags: W
HStem: -1.2002 21G<87.6001 118.2 317.4 333.6 582 619.2> 385.2 82.7998<157.627 268.793 402.901 496.558>
VStem: 63.5996 78<7.48244 267.997> 297.6 76.8008<37.2002 353.06> 566.4 74.3994<8.78589 308.699>
LayerCount: 2
Fore
SplineSet
39.599609375 387.599609375 m 1
 39.599609375 415.200195312 63.599609375 440.400390625 87.599609375 440.400390625 c 0
 98.400390625 440.400390625 109.200195312 433.200195312 115.200195312 418.799804688 c 1
 139.200195312 451.200195312 175.200195312 468 213.599609375 468 c 0
 259.200195312 468 306 444 336 392.400390625 c 1
 369.599609375 441.599609375 420 464.400390625 468 464.400390625 c 0
 614.400390625 464.400390625 640.799804688 303.599609375 640.799804688 142.799804688 c 0
 640.799804688 74.400390625 649.200195312 -1.2001953125 589.200195312 -1.2001953125 c 0
 574.799804688 -1.2001953125 562.799804688 8.400390625 562.799804688 32.400390625 c 0
 562.799804688 60 566.400390625 108 566.400390625 157.200195312 c 0
 566.400390625 222 560.400390625 290.400390625 540 322.799804688 c 0
 519.599609375 354 482.400390625 381.599609375 446.400390625 381.599609375 c 0
 392.400390625 381.599609375 374.400390625 343.200195312 374.400390625 182.400390625 c 0
 374.400390625 128.400390625 375.599609375 74.400390625 375.599609375 37.2001953125 c 1
 373.200195312 37.2001953125 l 1
 366 14.400390625 343.200195312 -1.2001953125 324 -1.2001953125 c 0
 310.799804688 -1.2001953125 300 7.2001953125 298.799804688 27.599609375 c 1
 296.400390625 27.599609375 l 1
 296.400390625 80.400390625 297.599609375 128.400390625 297.599609375 180 c 0
 297.599609375 241.200195312 313.200195312 385.200195312 219.599609375 385.200195312 c 0
 146.400390625 385.200195312 135.599609375 339.599609375 135.599609375 271.200195312 c 0
 135.599609375 213.599609375 141.599609375 144 141.599609375 85.2001953125 c 0
 141.599609375 58.7998046875 141.599609375 -1.2001953125 94.7998046875 -1.2001953125 c 0
 80.400390625 -1.2001953125 67.2001953125 8.400390625 63.599609375 27.599609375 c 1
 63.599609375 110.400390625 60 254.400390625 39.599609375 387.599609375 c 1
EndSplineSet
Substitution2: "'smcp' Lowercase to Small Capitals in Latin lookup 0 subtable" M.smcp
EndChar

StartChar: n
Encoding: 110 110 49
Width: 451
VWidth: 1200
Flags: W
HStem: -1.2002 21G<93 112.8> 368.4 99.5996<198.83 290.814>
VStem: 64.7998 80.4004<397.2 471.085> 75.5996 76.8008<6.57873 269.094> 331.2 73.2002<8.27404 268.558>
LayerCount: 2
Fore
SplineSet
64.7998046875 436.799804688 m 1xe8
 70.7998046875 457.200195312 87.599609375 480 106.799804688 480 c 0
 145.200195312 480 140.400390625 452.400390625 145.200195312 397.200195312 c 1xe8
 193.200195312 460.799804688 248.400390625 468 279.599609375 468 c 0
 393.599609375 468 404.400390625 300 404.400390625 147.599609375 c 0
 404.400390625 85.2001953125 417.599609375 0 355.200195312 0 c 0
 340.799804688 0 331.200195312 10.7998046875 331.200195312 32.400390625 c 0
 331.200195312 146.400390625 340.799804688 368.400390625 250.799804688 368.400390625 c 0
 158.400390625 368.400390625 154.799804688 240 154.799804688 151.200195312 c 0
 154.799804688 97.2001953125 152.400390625 117.599609375 152.400390625 43.2001953125 c 0
 152.400390625 13.2001953125 124.799804688 -1.2001953125 100.799804688 -1.2001953125 c 0
 85.2001953125 -1.2001953125 75.599609375 8.400390625 75.599609375 31.2001953125 c 0xd8
 75.599609375 195.599609375 64.7998046875 274.799804688 64.7998046875 436.799804688 c 1xe8
EndSplineSet
Substitution2: "'smcp' Lowercase to Small Capitals in Latin lookup 0 subtable" N.smcp
EndChar

StartChar: o
Encoding: 111 111 50
Width: 403
VWidth: 1200
Flags: W
HStem: 0 70.7998<184.442 264.553> 446.8 20G<162 274.2>
VStem: 25.2002 75.5996<169.314 320.876> 300 80.4004<117.947 316.756>
LayerCount: 2
Fore
SplineSet
219.599609375 466.799804688 m 0
 328.799804688 466.799804688 380.400390625 332.400390625 380.400390625 224.400390625 c 0
 380.400390625 142.799804688 328.799804688 0 223.200195312 0 c 0
 99.599609375 0 25.2001953125 144 25.2001953125 224.400390625 c 0
 25.2001953125 339.599609375 104.400390625 466.799804688 219.599609375 466.799804688 c 0
241.200195312 70.7998046875 m 1
 280.799804688 92.400390625 300 144 300 200.400390625 c 0
 300 274.799804688 277.200195312 370.799804688 202.799804688 385.200195312 c 1
 142.799804688 375.599609375 100.799804688 304.799804688 100.799804688 241.200195312 c 0
 100.799804688 200.400390625 154.799804688 70.7998046875 241.200195312 70.7998046875 c 1
EndSplineSet
Substitution2: "'smcp' Lowercase to Small Capitals in Latin lookup 0 subtable" O.smcp
EndChar

StartChar: p
Encoding: 112 112 51
Width: 428
VWidth: 1200
Flags: W
HStem: -312 21G<60 78> 1.2002 78<139.532 283.099> 387.6 79.2002<157.819 285.921>
VStem: 43.2002 76.7998<-298.5 34.7998 99.0624 350.426 412.8 464.381> 334.8 80.4004<131.934 332.529>
LayerCount: 2
Fore
SplineSet
118.799804688 -265.200195312 m 1
 112.799804688 -291.599609375 88.7998046875 -312 67.2001953125 -312 c 0
 52.7998046875 -312 40.7998046875 -301.200195312 40.7998046875 -277.200195312 c 0
 40.7998046875 -106.799804688 43.2001953125 -104.400390625 43.2001953125 67.2001953125 c 2
 43.2001953125 420 l 1
 48 447.599609375 55.2001953125 468 80.400390625 468 c 0
 109.200195312 468 111.599609375 460.799804688 120 412.799804688 c 1
 123.599609375 428.400390625 150 466.799804688 225.599609375 466.799804688 c 0
 370.799804688 466.799804688 415.200195312 343.200195312 415.200195312 217.200195312 c 0
 415.200195312 87.599609375 336 1.2001953125 195.599609375 1.2001953125 c 0
 152.400390625 1.2001953125 130.799804688 28.7998046875 120 34.7998046875 c 1
 120 -116.400390625 118.799804688 -112.799804688 118.799804688 -265.200195312 c 1
208.799804688 387.599609375 m 1
 152.400390625 380.400390625 120 328.799804688 120 301.200195312 c 2
 120 115.200195312 l 1
 132 111.599609375 152.400390625 79.2001953125 196.799804688 79.2001953125 c 0
 279.599609375 79.2001953125 334.799804688 116.400390625 334.799804688 220.799804688 c 0
 334.799804688 308.400390625 315.599609375 387.599609375 208.799804688 387.599609375 c 1
EndSplineSet
Substitution2: "'smcp' Lowercase to Small Capitals in Latin lookup 0 subtable" P.smcp
EndChar

StartChar: q
Encoding: 113 113 52
Width: 463
VWidth: 1200
Flags: W
HStem: -312 21G<375.6 393.6> 0 74.4004<166.33 285.143> 385.2 79.2002<142.163 281.708>
VStem: 30 80.4004<138.97 351.278> 346.8 81.6006<143.049 309.455> 358.8 78<-298.95 61.9319>
LayerCount: 2
Fore
SplineSet
435.599609375 -265.200195312 m 1xf4
 430.799804688 -292.799804688 404.400390625 -312 382.799804688 -312 c 0
 368.400390625 -312 354 -302.400390625 355.200195312 -277.200195312 c 2
 358.799804688 -118.799804688 l 1xf4
 358.799804688 -56.400390625 352.799804688 3.599609375 349.200195312 64.7998046875 c 1
 327.599609375 22.7998046875 272.400390625 0 216 0 c 0
 93.599609375 0 30 112.799804688 30 226.799804688 c 0
 30 372 98.400390625 464.400390625 219.599609375 464.400390625 c 0
 434.400390625 464.400390625 426 271.200195312 428.400390625 151.200195312 c 1xf8
 435.599609375 -56.400390625 l 2
 436.799804688 -103.200195312 436.799804688 -126 436.799804688 -141.599609375 c 0
 436.799804688 -171.599609375 435.599609375 -171.599609375 435.599609375 -265.200195312 c 1xf4
111.599609375 256.799804688 m 0
 110.400390625 249.599609375 110.400390625 242.400390625 110.400390625 235.200195312 c 0
 110.400390625 132 165.599609375 74.400390625 224.400390625 74.400390625 c 0
 272.400390625 74.400390625 321.599609375 111.599609375 346.799804688 193.200195312 c 1xf8
 343.200195312 278.400390625 330 385.200195312 200.400390625 385.200195312 c 0
 134.400390625 385.200195312 115.200195312 344.400390625 111.599609375 256.799804688 c 0
EndSplineSet
Substitution2: "'smcp' Lowercase to Small Capitals in Latin lookup 0 subtable" Q.smcp
EndChar

StartChar: r
Encoding: 114 114 53
Width: 385
VWidth: 1200
Flags: W
HStem: 382.8 85.2002<231.245 362.824>
VStem: 82.7998 84<43.2002 293.779>
LayerCount: 2
Fore
SplineSet
44.400390625 432 m 0
 43.2001953125 434.400390625 43.2001953125 436.799804688 43.2001953125 439.200195312 c 0
 43.2001953125 458.400390625 63.599609375 472.799804688 85.2001953125 472.799804688 c 0
 135.599609375 472.799804688 127.200195312 400.799804688 133.200195312 368.400390625 c 1
 157.200195312 426 210 468 288 468 c 0
 316.799804688 468 369.599609375 464.400390625 369.599609375 426 c 0
 369.599609375 403.200195312 346.799804688 380.400390625 321.599609375 380.400390625 c 0
 313.200195312 380.400390625 303.599609375 382.799804688 292.799804688 382.799804688 c 0
 176.400390625 382.799804688 166.799804688 216 166.799804688 134.400390625 c 0
 166.799804688 105.599609375 168 75.599609375 168 43.2001953125 c 1
 166.799804688 40.7998046875 l 1
 162 18 139.200195312 -4.7998046875 118.799804688 -4.7998046875 c 0
 70.7998046875 -4.7998046875 88.7998046875 151.200195312 82.7998046875 212.400390625 c 0
 74.400390625 295.200195312 68.400390625 351.599609375 44.400390625 432 c 0
EndSplineSet
Substitution2: "'smcp' Lowercase to Small Capitals in Latin lookup 0 subtable" R.smcp
EndChar

StartChar: s
Encoding: 115 115 54
Width: 385
VWidth: 1200
Flags: W
HStem: 4.7998 72<144.58 249.924> 396 73.2002<142.243 264.964>
VStem: 55.2002 73.2002<298.938 380.655> 277.2 75.5996<105.573 185.583>
LayerCount: 2
Fore
SplineSet
204 469.200195312 m 0
 243.599609375 469.200195312 351.599609375 448.799804688 351.599609375 396 c 0
 351.599609375 372 327.599609375 358.799804688 303.599609375 358.799804688 c 0
 286.799804688 358.799804688 241.200195312 396 187.200195312 396 c 0
 168 396 128.400390625 376.799804688 128.400390625 346.799804688 c 0
 128.400390625 224.400390625 352.799804688 313.200195312 352.799804688 168 c 0
 352.799804688 73.2001953125 272.400390625 4.7998046875 204 4.7998046875 c 0
 140.400390625 4.7998046875 55.2001953125 25.2001953125 55.2001953125 76.7998046875 c 0
 55.2001953125 100.799804688 72 111.599609375 97.2001953125 111.599609375 c 0
 139.200195312 111.599609375 164.400390625 76.7998046875 217.200195312 76.7998046875 c 0
 243.599609375 76.7998046875 277.200195312 127.200195312 277.200195312 163.200195312 c 0
 277.200195312 169.200195312 276 174 274.799804688 178.799804688 c 1
 208.799804688 243.599609375 55.2001953125 181.200195312 55.2001953125 339.599609375 c 0
 55.2001953125 423.599609375 123.599609375 469.200195312 204 469.200195312 c 0
EndSplineSet
Substitution2: "'smcp' Lowercase to Small Capitals in Latin lookup 0 subtable" S.smcp
EndChar

StartChar: t
Encoding: 116 116 55
Width: 344
VWidth: 1200
Flags: W
HStem: -1.2002 21G<185.4 201.6> 381.6 85.2002<14.0528 132 211.2 341.991>
VStem: 128.4 75.5996<468 699.719> 163.2 76.7998<10.3129 250.505>
LayerCount: 2
Fore
SplineSet
31.2001953125 387.599609375 m 0xd0
 14.400390625 391.200195312 7.2001953125 404.400390625 7.2001953125 420 c 0
 7.2001953125 447.599609375 26.400390625 466.799804688 64.7998046875 466.799804688 c 0
 81.599609375 466.799804688 96 465.599609375 112.799804688 465.599609375 c 0
 118.799804688 465.599609375 124.799804688 465.599609375 132 466.799804688 c 1
 129.599609375 534 128.400390625 552 128.400390625 567.599609375 c 0
 128.400390625 584.400390625 129.599609375 596.400390625 132 672 c 1
 138 694.799804688 160.799804688 712.799804688 181.200195312 712.799804688 c 0
 193.200195312 712.799804688 205.200195312 704.400390625 208.799804688 684 c 1
 206.400390625 594 204 589.200195312 204 562.799804688 c 0xe0
 204 547.200195312 205.200195312 523.200195312 207.599609375 468 c 1
 229.200195312 468 286.799804688 469.200195312 325.200195312 471.599609375 c 1
 346.799804688 466.799804688 355.200195312 453.599609375 355.200195312 439.200195312 c 0
 355.200195312 369.599609375 265.200195312 384 211.200195312 384 c 1
 217.200195312 268.799804688 220.799804688 157.200195312 240 46.7998046875 c 1
 235.200195312 21.599609375 212.400390625 -1.2001953125 190.799804688 -1.2001953125 c 0
 180 -1.2001953125 169.200195312 6 163.200195312 22.7998046875 c 1
 142.799804688 140.400390625 142.799804688 262.799804688 135.599609375 382.799804688 c 1
 122.400390625 381.599609375 108 381.599609375 94.7998046875 381.599609375 c 0
 72 381.599609375 48 382.799804688 31.2001953125 387.599609375 c 0xd0
EndSplineSet
Substitution2: "'smcp' Lowercase to Small Capitals in Latin lookup 0 subtable" T.smcp
EndChar

StartChar: u
Encoding: 117 117 56
Width: 400
VWidth: 1200
Flags: W
HStem: -1.2002 21G<105.6 176.4> 448 20G<71.4004 87.6001 303.6 320.4>
VStem: 27.5996 79.2002<128.417 446.002> 271.2 76.7998<197.644 459.449> 304.8 75.6006<-2.22963 55.7518>
LayerCount: 2
Fore
SplineSet
36 428.400390625 m 1xe8
 42 453.599609375 62.400390625 468 80.400390625 468 c 0
 94.7998046875 468 109.200195312 458.400390625 112.799804688 440.400390625 c 1
 109.200195312 399.599609375 106.799804688 348 106.799804688 302.400390625 c 0
 106.799804688 207.599609375 106.799804688 154.799804688 157.200195312 70.7998046875 c 1
 211.200195312 84 259.200195312 124.799804688 283.200195312 169.200195312 c 1
 276 255.599609375 271.200195312 344.400390625 271.200195312 416.400390625 c 0
 271.200195312 444 292.799804688 466.799804688 314.400390625 466.799804688 c 0
 326.400390625 466.799804688 339.599609375 458.400390625 348 440.400390625 c 1xf0
 348 348 352.799804688 289.200195312 356.400390625 212.400390625 c 0
 358.799804688 164.400390625 380.400390625 64.7998046875 380.400390625 39.599609375 c 0
 380.400390625 12 355.200195312 -12 333.599609375 -12 c 0
 321.599609375 -12 310.799804688 -4.7998046875 304.799804688 12 c 1
 295.200195312 72 l 1
 250.799804688 26.400390625 198 -1.2001953125 154.799804688 -1.2001953125 c 0
 56.400390625 -1.2001953125 27.599609375 157.200195312 27.599609375 264 c 0
 27.599609375 325.200195312 31.2001953125 370.799804688 36 428.400390625 c 1xe8
EndSplineSet
Substitution2: "'smcp' Lowercase to Small Capitals in Latin lookup 0 subtable" U.smcp
EndChar

StartChar: v
Encoding: 118 118 57
Width: 400
VWidth: 1200
Flags: W
HStem: 446.8 20G<52.1997 68.3999 353.4 368.4>
VStem: 19.2002 73.2002<407.242 458.913> 316.8 72<432.169 465.519>
LayerCount: 2
Fore
SplineSet
22.7998046875 403.200195312 m 0
 20.400390625 408 19.2001953125 414 19.2001953125 418.799804688 c 0
 19.2001953125 444 40.7998046875 466.799804688 63.599609375 466.799804688 c 0
 73.2001953125 466.799804688 84 460.799804688 92.400390625 448.799804688 c 1
 139.200195312 346.799804688 188.400390625 272.400390625 226.799804688 166.799804688 c 1
 256.799804688 268.799804688 276 344.400390625 316.799804688 445.200195312 c 1
 327.599609375 462 345.599609375 471.599609375 361.200195312 471.599609375 c 0
 375.599609375 471.599609375 388.799804688 462 388.799804688 441.599609375 c 0
 388.799804688 439.200195312 387.599609375 435.599609375 387.599609375 432 c 1
 332.400390625 291.599609375 303.599609375 178.799804688 265.200195312 32.400390625 c 1
 256.799804688 13.2001953125 237.599609375 -2.400390625 219.599609375 -2.400390625 c 0
 208.799804688 -2.400390625 196.799804688 3.599609375 192 20.400390625 c 0
 146.400390625 163.200195312 82.7998046875 267.599609375 22.7998046875 403.200195312 c 0
EndSplineSet
Substitution2: "'smcp' Lowercase to Small Capitals in Latin lookup 0 subtable" V.smcp
EndChar

StartChar: w
Encoding: 119 119 58
Width: 463
VWidth: 1200
Flags: W
HStem: 1.2002 258<240 337.2> 446.8 20G<58.2002 73.2002 396 417>
VStem: 24 68.4004<251.73 459.095> 367.2 66<143.583 463.935>
LayerCount: 2
Fore
SplineSet
24 430.799804688 m 1
 28.7998046875 448.799804688 49.2001953125 466.799804688 67.2001953125 466.799804688 c 0
 79.2001953125 466.799804688 88.7998046875 459.599609375 92.400390625 440.400390625 c 1
 92.400390625 339.599609375 112.799804688 228 145.200195312 140.400390625 c 1
 184.799804688 204 192 259.200195312 240 259.200195312 c 0
 277.200195312 259.200195312 320.400390625 163.200195312 339.599609375 123.599609375 c 1
 356.400390625 175.200195312 367.200195312 224.400390625 367.200195312 279.599609375 c 0
 367.200195312 328.799804688 361.200195312 380.400390625 361.200195312 432 c 1
 367.200195312 451.200195312 387.599609375 468 404.400390625 468 c 0
 429.599609375 468 433.200195312 410.400390625 433.200195312 355.200195312 c 0
 433.200195312 336 433.200195312 316.799804688 433.200195312 300 c 0
 433.200195312 216 406.799804688 1.2001953125 337.200195312 1.2001953125 c 0
 295.200195312 1.2001953125 268.799804688 104.400390625 235.200195312 157.200195312 c 1
 208.799804688 109.200195312 190.799804688 67.2001953125 181.200195312 52.7998046875 c 0
 163.200195312 25.2001953125 139.200195312 1.2001953125 121.200195312 1.2001953125 c 0
 109.200195312 1.2001953125 91.2001953125 40.7998046875 84 55.2001953125 c 1
 40.7998046875 183.599609375 24 295.200195312 24 430.799804688 c 1
EndSplineSet
Substitution2: "'smcp' Lowercase to Small Capitals in Latin lookup 0 subtable" W.smcp
EndChar

StartChar: x
Encoding: 120 120 59
Width: 448
VWidth: 1200
Flags: W
HStem: -1.2002 21G<331.8 362.4> 445.6 20G<105.6 122.4 364.8 380.4>
LayerCount: 2
Fore
SplineSet
339.599609375 448.799804688 m 0
 348 460.799804688 358.799804688 465.599609375 370.799804688 465.599609375 c 0
 390 465.599609375 408 450 408 428.400390625 c 0
 408 412.799804688 343.200195312 310.799804688 276 229.200195312 c 1
 316.799804688 166.799804688 336 127.200195312 384 67.2001953125 c 1
 388.799804688 58.7998046875 391.200195312 50.400390625 391.200195312 42 c 0
 391.200195312 19.2001953125 373.200195312 -1.2001953125 351.599609375 -1.2001953125 c 0
 312 -1.2001953125 242.400390625 120 216 176.400390625 c 1
 130.799804688 58.7998046875 115.200195312 3.599609375 75.599609375 3.599609375 c 0
 55.2001953125 3.599609375 39.599609375 21.599609375 39.599609375 42 c 0
 39.599609375 64.7998046875 75.599609375 121.200195312 180 238.799804688 c 1
 140.400390625 313.200195312 73.2001953125 404.400390625 73.2001953125 426 c 0
 73.2001953125 450 94.7998046875 468 116.400390625 468 c 0
 128.400390625 468 142.799804688 463.200195312 151.200195312 448.799804688 c 2
 232.799804688 304.799804688 l 1
 280.799804688 356.400390625 298.799804688 392.400390625 339.599609375 448.799804688 c 0
EndSplineSet
Substitution2: "'smcp' Lowercase to Small Capitals in Latin lookup 0 subtable" X.smcp
EndChar

StartChar: y
Encoding: 121 121 60
Width: 423
VWidth: 1200
Flags: W
HStem: 445.6 20G<39 56.4004 334.2 354>
LayerCount: 2
Fore
SplineSet
10.7998046875 418.799804688 m 1
 10.7998046875 444 27.599609375 465.599609375 50.400390625 465.599609375 c 0
 62.400390625 465.599609375 73.2001953125 459.599609375 82.7998046875 445.200195312 c 1
 120 327.599609375 171.599609375 217.200195312 217.200195312 106.799804688 c 1
 248.400390625 217.200195312 268.799804688 310.799804688 303.599609375 444 c 0
 307.200195312 457.200195312 325.200195312 465.599609375 343.200195312 465.599609375 c 0
 364.799804688 465.599609375 386.400390625 454.799804688 386.400390625 430.799804688 c 0
 386.400390625 426 385.200195312 421.200195312 384 416.400390625 c 0
 307.200195312 144 226.799804688 -130.799804688 175.200195312 -277.200195312 c 0
 169.200195312 -295.200195312 156 -303.599609375 142.799804688 -303.599609375 c 0
 124.799804688 -303.599609375 105.599609375 -286.799804688 105.599609375 -256.799804688 c 0
 105.599609375 -207.599609375 163.200195312 -64.7998046875 180 -1.2001953125 c 1
 148.799804688 51.599609375 55.2001953125 283.200195312 10.7998046875 418.799804688 c 1
EndSplineSet
Substitution2: "'smcp' Lowercase to Small Capitals in Latin lookup 0 subtable" Y.smcp
EndChar

StartChar: z
Encoding: 122 122 61
Width: 428
VWidth: 1200
Flags: W
HStem: -1.2002 79.2002<145.489 367.376> 386.4 73.1992<54.9706 288.056>
LayerCount: 2
Fore
SplineSet
73.2001953125 372 m 0
 64.7998046875 376.799804688 31.2001953125 375.599609375 31.2001953125 415.200195312 c 0
 31.2001953125 466.799804688 84 459.599609375 174 459.599609375 c 0
 266.400390625 459.599609375 388.799804688 447.599609375 388.799804688 375.599609375 c 0
 388.799804688 253.200195312 199.200195312 188.400390625 144 88.7998046875 c 1
 159.599609375 81.599609375 177.599609375 78 196.799804688 78 c 0
 249.599609375 78 314.400390625 97.2001953125 373.200195312 97.2001953125 c 0
 394.799804688 97.2001953125 404.400390625 80.400390625 404.400390625 67.2001953125 c 0
 404.400390625 3.599609375 279.599609375 -1.2001953125 200.400390625 -1.2001953125 c 0
 118.799804688 -1.2001953125 52.7998046875 8.400390625 52.7998046875 73.2001953125 c 0
 52.7998046875 187.200195312 267.599609375 279.599609375 295.200195312 355.200195312 c 1
 285.599609375 379.200195312 254.400390625 386.400390625 218.400390625 386.400390625 c 0
 168 386.400390625 105.599609375 372 78 372 c 0
 76.7998046875 372 74.400390625 372 73.2001953125 372 c 0
EndSplineSet
Substitution2: "'smcp' Lowercase to Small Capitals in Latin lookup 0 subtable" Z.smcp
EndChar

StartChar: zero.onum
Encoding: 65537 -1 62
Width: 380
VWidth: 1200
Flags: W
HStem: 0 75.5996<154.214 227.661> 399.6 72<160.465 235.75>
VStem: 39.5996 80.4004<119.023 348.509> 264 74.4004<123.849 358.973>
LayerCount: 2
Fore
SplineSet
204 471.599609375 m 0
 289.200195312 471.599609375 338.400390625 343.200195312 338.400390625 220.799804688 c 0
 338.400390625 108 296.400390625 0 202.799804688 0 c 0
 142.799804688 0 39.599609375 28.7998046875 39.599609375 216 c 0
 39.599609375 379.200195312 94.7998046875 471.599609375 204 471.599609375 c 0
264 241.200195312 m 0
 264 277.200195312 260.400390625 399.599609375 200.400390625 399.599609375 c 0
 142.799804688 399.599609375 120 303.599609375 120 238.799804688 c 0
 120 133.200195312 151.200195312 75.599609375 193.200195312 75.599609375 c 0
 248.400390625 75.599609375 264 200.400390625 264 241.200195312 c 0
EndSplineSet
Substitution2: "'lnum' Lining Figures in Latin lookup 4 subtable" zero
Substitution2: "'smcp' Lowercase to Small Capitals in Latin lookup 0 subtable" zero.smcp
EndChar

StartChar: one.onum
Encoding: 65538 -1 63
Width: 195
VWidth: 1200
Flags: W
HStem: 451.6 20G<95.3999 109.8>
VStem: 67.2002 68.3994<0.216044 468.197>
LayerCount: 2
Fore
SplineSet
68.400390625 440.400390625 m 1
 73.2001953125 460.799804688 87.599609375 471.599609375 103.200195312 471.599609375 c 0
 116.400390625 471.599609375 130.799804688 462 136.799804688 442.799804688 c 1
 136.799804688 295.200195312 135.599609375 183.599609375 135.599609375 34.7998046875 c 1
 133.200195312 9.599609375 117.599609375 -2.400390625 100.799804688 -2.400390625 c 0
 85.2001953125 -2.400390625 69.599609375 8.400390625 67.2001953125 32.400390625 c 1
 67.2001953125 180 68.400390625 292.799804688 68.400390625 440.400390625 c 1
EndSplineSet
Substitution2: "'lnum' Lining Figures in Latin lookup 4 subtable" one
Substitution2: "'smcp' Lowercase to Small Capitals in Latin lookup 0 subtable" one.smcp
EndChar

StartChar: two.onum
Encoding: 65539 -1 64
Width: 340
VWidth: 1200
Flags: W
HStem: 0 61.2002<123.766 320.683> 386.4 80.3994<107.489 222.127>
VStem: 230.4 74.3994<253.701 378.556>
LayerCount: 2
Fore
SplineSet
88.7998046875 355.200195312 m 0
 81.599609375 351.599609375 75.599609375 350.400390625 69.599609375 350.400390625 c 0
 48 350.400390625 30 368.400390625 30 391.200195312 c 0
 30 438 129.599609375 466.799804688 180 466.799804688 c 0
 246 466.799804688 304.799804688 433.200195312 304.799804688 352.799804688 c 0
 304.799804688 216 202.799804688 132 121.200195312 61.2001953125 c 1
 171.599609375 63.599609375 238.799804688 63.599609375 288 63.599609375 c 0
 312 63.599609375 324 49.2001953125 324 34.7998046875 c 0
 324 -13.2001953125 226.799804688 0 163.200195312 0 c 0
 109.200195312 0 18 -8.400390625 18 39.599609375 c 0
 18 46.7998046875 20.400390625 54 24 61.2001953125 c 0
 63.599609375 120 127.200195312 175.200195312 178.799804688 217.200195312 c 0
 213.599609375 246 230.400390625 290.400390625 230.400390625 326.400390625 c 0
 230.400390625 364.799804688 214.799804688 386.400390625 181.200195312 386.400390625 c 0
 154.799804688 386.400390625 118.799804688 372 88.7998046875 355.200195312 c 0
EndSplineSet
Substitution2: "'lnum' Lining Figures in Latin lookup 4 subtable" two
Substitution2: "'smcp' Lowercase to Small Capitals in Latin lookup 0 subtable" two.smcp
EndChar

StartChar: three.onum
Encoding: 65540 -1 65
Width: 524
VWidth: 1200
Flags: W
HStem: -306 74.4004<190.443 335.941> 48 79.2002<250.366 326.231> 386.4 80.3994<199.298 319.787>
VStem: 32.4004 76.7998<-137.215 -15.9019> 372 81.5996<174.179 329.779> 416.4 78<-149.773 -25.9278>
LayerCount: 2
Fore
SplineSet
168 339.599609375 m 1xf8
 158.400390625 333.599609375 148.799804688 331.200195312 140.400390625 331.200195312 c 0
 117.599609375 331.200195312 100.799804688 348 100.799804688 370.799804688 c 0
 100.799804688 379.200195312 103.200195312 387.599609375 109.200195312 397.200195312 c 1
 159.599609375 446.400390625 190.799804688 466.799804688 259.200195312 466.799804688 c 0
 372 466.799804688 453.599609375 396 453.599609375 271.200195312 c 0xf8
 453.599609375 177.599609375 406.799804688 110.400390625 336 88.7998046875 c 1
 423.599609375 85.2001953125 494.400390625 -7.2001953125 494.400390625 -105.599609375 c 0
 494.400390625 -212.400390625 397.200195312 -306 274.799804688 -306 c 0
 153.599609375 -306 32.400390625 -217.200195312 32.400390625 -52.7998046875 c 0
 32.400390625 -26.400390625 58.7998046875 -7.2001953125 80.400390625 -7.2001953125 c 0
 96 -7.2001953125 109.200195312 -16.7998046875 109.200195312 -40.7998046875 c 0
 109.200195312 -162 184.799804688 -231.599609375 264 -231.599609375 c 0
 348 -231.599609375 416.400390625 -145.200195312 416.400390625 -88.7998046875 c 0xf4
 416.400390625 -22.7998046875 349.200195312 31.2001953125 277.200195312 48 c 0
 258 52.7998046875 246 69.599609375 246 87.599609375 c 0
 246 104.400390625 255.599609375 121.200195312 280.799804688 127.200195312 c 0
 352.799804688 144 372 204 372 252 c 0
 372 318 326.400390625 386.400390625 261.599609375 386.400390625 c 0
 234 386.400390625 201.599609375 373.200195312 168 339.599609375 c 1xf8
EndSplineSet
Substitution2: "'lnum' Lining Figures in Latin lookup 4 subtable" three
Substitution2: "'smcp' Lowercase to Small Capitals in Latin lookup 0 subtable" three.smcp
EndChar

StartChar: four.onum
Encoding: 65541 -1 66
Width: 409
VWidth: 1200
Flags: W
HStem: -1.2002 81.6006<120.126 279.008> 7.2002 76.7998<183.92 279.6> 448 20G<129 148.2>
VStem: 33.5996 85.2002<84.3356 298.02> 87.5996 90<360.396 457.12> 277.2 86.3994<-227.349 7.2002 84 231.283>
LayerCount: 2
Fore
SplineSet
87.599609375 427.200195312 m 0xac
 99.599609375 456 120 468 138 468 c 0
 158.400390625 468 177.599609375 453.599609375 177.599609375 432 c 0xac
 177.599609375 427.200195312 176.400390625 423.599609375 175.200195312 418.799804688 c 0
 141.599609375 309.599609375 118.799804688 232.799804688 118.799804688 128.400390625 c 0
 118.799804688 115.200195312 118.799804688 100.799804688 120 85.2001953125 c 1
 140.400390625 81.599609375 160.799804688 80.400390625 182.400390625 80.400390625 c 0xb4
 214.799804688 80.400390625 248.400390625 82.7998046875 280.799804688 84 c 1
 288 164.400390625 276 314.400390625 322.799804688 314.400390625 c 0
 358.799804688 314.400390625 374.400390625 300 374.400390625 235.200195312 c 0
 374.400390625 152.400390625 363.599609375 20.400390625 363.599609375 -12 c 0
 363.599609375 -81.599609375 370.799804688 -165.599609375 370.799804688 -230.400390625 c 0
 370.799804688 -264 357.599609375 -304.799804688 319.200195312 -304.799804688 c 0
 270 -304.799804688 277.200195312 -175.200195312 277.200195312 -94.7998046875 c 0
 277.200195312 -57.599609375 278.400390625 -22.7998046875 279.599609375 7.2001953125 c 1x74
 261.599609375 3.599609375 217.200195312 -1.2001953125 171.599609375 -1.2001953125 c 0
 42 -1.2001953125 33.599609375 38.400390625 33.599609375 134.400390625 c 0xb4
 33.599609375 234 61.2001953125 361.200195312 87.599609375 427.200195312 c 0xac
EndSplineSet
Substitution2: "'lnum' Lining Figures in Latin lookup 4 subtable" four
Substitution2: "'smcp' Lowercase to Small Capitals in Latin lookup 0 subtable" four.smcp
EndChar

StartChar: five.onum
Encoding: 65542 -1 67
Width: 511
VWidth: 1200
Flags: W
HStem: -301.2 87.6006<176.604 322.135> -1.2002 21G<85.2002 102> 58.7998 88.7998<182.472 348.195> 393.6 75.6006<128.4 423.874>
VStem: 48 76.7998<-160.39 -98.147> 51.5996 76.8008<106.8 392.4> 382.8 81.6006<-156.876 19.1245>
LayerCount: 2
Fore
SplineSet
403.200195312 468 m 1xf6
 423.599609375 463.200195312 432 452.400390625 432 439.200195312 c 0
 432 420 414 397.200195312 391.200195312 391.200195312 c 1
 321.599609375 391.200195312 260.400390625 393.599609375 195.599609375 393.599609375 c 0
 172.799804688 393.599609375 151.200195312 392.400390625 128.400390625 392.400390625 c 1
 128.400390625 381.599609375 128.400390625 372 128.400390625 361.200195312 c 0xf6
 128.400390625 277.200195312 132 186 132 106.799804688 c 1
 178.799804688 128.400390625 231.599609375 147.599609375 282 147.599609375 c 0
 402 147.599609375 464.400390625 36 464.400390625 -85.2001953125 c 0
 464.400390625 -235.200195312 374.400390625 -301.200195312 248.400390625 -301.200195312 c 0
 121.200195312 -301.200195312 52.7998046875 -213.599609375 48 -139.200195312 c 1
 48 -112.799804688 69.599609375 -90 94.7998046875 -90 c 0
 108 -90 120 -97.2001953125 124.799804688 -116.400390625 c 0xfa
 142.799804688 -183.599609375 194.400390625 -213.599609375 247.200195312 -213.599609375 c 0
 312 -213.599609375 382.799804688 -166.799804688 382.799804688 -92.400390625 c 0
 382.799804688 1.2001953125 363.599609375 58.7998046875 284.400390625 58.7998046875 c 0
 250.799804688 58.7998046875 176.400390625 43.2001953125 132 10.7998046875 c 0
 121.200195312 2.400390625 108 -1.2001953125 96 -1.2001953125 c 0
 74.400390625 -1.2001953125 55.2001953125 10.7998046875 55.2001953125 34.7998046875 c 0
 55.2001953125 159.599609375 51.599609375 301.200195312 51.599609375 427.200195312 c 1
 58.7998046875 452.400390625 72 464.400390625 97.2001953125 469.200195312 c 1
 205.200195312 469.200195312 296.400390625 468 403.200195312 468 c 1xf6
EndSplineSet
Substitution2: "'lnum' Lining Figures in Latin lookup 4 subtable" five
Substitution2: "'smcp' Lowercase to Small Capitals in Latin lookup 0 subtable" five.smcp
EndChar

StartChar: six.onum
Encoding: 65543 -1 68
Width: 464
VWidth: 1200
Flags: W
HStem: 6 76.7998<161.63 280.988> 385.2 84<153.439 303.589>
VStem: 30 81.5996<145.24 353.535> 357.6 80.4004<170.156 330.45>
LayerCount: 2
Fore
SplineSet
208.799804688 691.200195312 m 0
 219.599609375 709.200195312 240 717.599609375 258 717.599609375 c 0
 277.200195312 717.599609375 294 708 294 690 c 0
 294 684 291.599609375 676.799804688 288 668.400390625 c 0
 243.599609375 592.799804688 184.799804688 536.400390625 152.400390625 452.400390625 c 1
 180 463.200195312 211.200195312 469.200195312 241.200195312 469.200195312 c 0
 374.400390625 469.200195312 438 373.200195312 438 243.599609375 c 0
 438 90 326.400390625 6 212.400390625 6 c 0
 97.2001953125 6 30 86.400390625 30 259.200195312 c 0
 30 350.400390625 56.400390625 423.599609375 92.400390625 508.799804688 c 0
 118.799804688 572.400390625 180 644.400390625 208.799804688 691.200195312 c 0
118.799804688 328.799804688 m 0
 114 309.599609375 111.599609375 284.400390625 111.599609375 256.799804688 c 0
 111.599609375 178.799804688 135.599609375 82.7998046875 217.200195312 82.7998046875 c 0
 295.200195312 82.7998046875 357.599609375 169.200195312 357.599609375 254.400390625 c 0
 357.599609375 320.400390625 320.400390625 385.200195312 224.400390625 385.200195312 c 0
 176.400390625 385.200195312 127.200195312 367.200195312 118.799804688 328.799804688 c 0
EndSplineSet
Substitution2: "'lnum' Lining Figures in Latin lookup 4 subtable" six
Substitution2: "'smcp' Lowercase to Small Capitals in Latin lookup 0 subtable" six.smcp
EndChar

StartChar: seven.onum
Encoding: 65544 -1 69
Width: 544
VWidth: 1200
Flags: W
HStem: 12 84<134.923 313.2> 16.7998 87.6006<399.6 514.009> 328.8 87.6006<411.248 455.928> 384 84<33.8648 166.381>
VStem: 303.6 85.2002<-299.205 -1.7233>
LayerCount: 2
Fore
SplineSet
157.200195312 12 m 2x88
 135.599609375 12 121.200195312 25.2001953125 121.200195312 40.7998046875 c 0
 121.200195312 64.7998046875 145.200195312 92.400390625 171.599609375 96 c 1
 316.799804688 100.799804688 l 1
 322.799804688 151.200195312 328.799804688 284.400390625 332.400390625 332.400390625 c 1
 241.200195312 348 145.200195312 367.200195312 51.599609375 384 c 1
 32.400390625 392.400390625 27.599609375 415.200195312 27.599609375 427.200195312 c 0
 27.599609375 446.400390625 48 468 70.7998046875 468 c 0
 72 468 74.400390625 468 76.7998046875 468 c 0x98
 96 463.200195312 404.400390625 428.400390625 428.400390625 416.400390625 c 0
 442.799804688 409.200195312 460.799804688 399.599609375 460.799804688 379.200195312 c 0
 460.799804688 346.799804688 448.799804688 328.799804688 420 328.799804688 c 0
 417.599609375 328.799804688 415.200195312 328.799804688 412.799804688 328.799804688 c 1
 409.200195312 289.200195312 400.799804688 145.200195312 399.599609375 104.400390625 c 1
 442.799804688 104.400390625 454.799804688 106.799804688 492 106.799804688 c 1
 516 100.799804688 524.400390625 91.2001953125 524.400390625 73.2001953125 c 0
 524.400390625 7.2001953125 456 19.2001953125 394.799804688 16.7998046875 c 1x68
 390 -27.599609375 388.799804688 -70.7998046875 388.799804688 -114 c 0
 388.799804688 -160.799804688 390 -208.799804688 392.400390625 -259.200195312 c 1
 387.599609375 -284.400390625 363.599609375 -310.799804688 339.599609375 -310.799804688 c 0
 310.799804688 -310.799804688 303.599609375 -258 303.599609375 -194.400390625 c 0
 303.599609375 -121.200195312 313.200195312 -36 313.200195312 0 c 0
 313.200195312 7.2001953125 313.200195312 13.2001953125 312 15.599609375 c 1
 157.200195312 12 l 2x88
EndSplineSet
Substitution2: "'lnum' Lining Figures in Latin lookup 4 subtable" seven
Substitution2: "'smcp' Lowercase to Small Capitals in Latin lookup 0 subtable" seven.smcp
EndChar

StartChar: eight.onum
Encoding: 65545 -1 70
Width: 452
VWidth: 1200
Flags: W
HStem: 2.40039 74.3994<156.79 307.637> 652.8 58.7998<161.136 300.302>
VStem: 34.7998 82.7998<114.743 248.241> 60 72<510.854 625.707> 337.2 76.7998<105.36 236.835> 349.2 66<514.311 606.373>
LayerCount: 2
Fore
SplineSet
243.599609375 711.599609375 m 0xd0
 342 711.599609375 415.200195312 642 415.200195312 561.599609375 c 0xd4
 415.200195312 504 357.599609375 440.400390625 284.400390625 397.200195312 c 1
 345.599609375 328.799804688 414 262.799804688 414 160.799804688 c 0
 414 52.7998046875 331.200195312 2.400390625 234 2.400390625 c 0
 135.599609375 2.400390625 34.7998046875 56.400390625 34.7998046875 159.599609375 c 0xe8
 34.7998046875 243.599609375 102 338.400390625 178.799804688 399.599609375 c 1
 117.599609375 434.400390625 60 505.200195312 60 577.200195312 c 0
 60 674.400390625 146.400390625 711.599609375 243.599609375 711.599609375 c 0xd0
337.200195312 156 m 1xe8
 337.200195312 228 282 297.599609375 231.599609375 351.599609375 c 1
 183.599609375 319.200195312 117.599609375 242.400390625 117.599609375 172.799804688 c 0
 117.599609375 122.400390625 156 76.7998046875 235.200195312 76.7998046875 c 0
 285.599609375 76.7998046875 336 99.599609375 337.200195312 156 c 1xe8
240 652.799804688 m 0
 204 652.799804688 132 646.799804688 132 566.400390625 c 0
 132 512.400390625 184.799804688 475.200195312 232.799804688 451.200195312 c 1
 279.599609375 471.599609375 349.200195312 514.799804688 349.200195312 555.599609375 c 0xd4
 349.200195312 603.599609375 289.200195312 652.799804688 240 652.799804688 c 0
EndSplineSet
Substitution2: "'lnum' Lining Figures in Latin lookup 4 subtable" eight
Substitution2: "'smcp' Lowercase to Small Capitals in Latin lookup 0 subtable" eight.smcp
EndChar

StartChar: nine.onum
Encoding: 65546 -1 71
Width: 442
VWidth: 1200
Flags: W
HStem: 6 91.2002<172.079 290.546> 397.2 75.5996<188.235 296.898>
VStem: 64.7998 66<149.274 330.459> 302.4 82.7998<-299.585 -186> 319.2 73.2002<127.218 374.269>
LayerCount: 2
Fore
SplineSet
385.200195312 -256.799804688 m 1xf0
 381.599609375 -285.599609375 360 -310.799804688 338.400390625 -310.799804688 c 0
 292.799804688 -310.799804688 302.400390625 -222 302.400390625 -190.799804688 c 0xf0
 302.400390625 -115.200195312 307.200195312 -63.599609375 307.200195312 39.599609375 c 1
 273.599609375 12 248.400390625 6 217.200195312 6 c 0
 207.599609375 6 198 6 187.200195312 7.2001953125 c 0
 102 13.2001953125 64.7998046875 142.799804688 64.7998046875 255.599609375 c 0
 64.7998046875 390 118.799804688 472.799804688 248.400390625 472.799804688 c 0
 366 472.799804688 392.400390625 366 392.400390625 277.200195312 c 0xe8
 392.400390625 115.200195312 382.799804688 -196.799804688 382.799804688 -186 c 1
 382.799804688 -200.400390625 384 -218.400390625 385.200195312 -256.799804688 c 1xf0
205.200195312 97.2001953125 m 0
 206.400390625 97.2001953125 208.799804688 97.2001953125 211.200195312 97.2001953125 c 0
 238.799804688 97.2001953125 294 109.200195312 312 128.400390625 c 1
 312 145.200195312 319.200195312 205.200195312 319.200195312 264 c 0xe8
 319.200195312 361.200195312 300 397.200195312 244.799804688 397.200195312 c 0
 182.400390625 397.200195312 130.799804688 322.799804688 130.799804688 243.599609375 c 0
 130.799804688 157.200195312 176.400390625 100.799804688 205.200195312 97.2001953125 c 0
EndSplineSet
Substitution2: "'lnum' Lining Figures in Latin lookup 4 subtable" nine
Substitution2: "'smcp' Lowercase to Small Capitals in Latin lookup 0 subtable" nine.smcp
EndChar

StartChar: fraction
Encoding: 8260 8260 72
Width: 612
VWidth: 1200
Flags: W
LayerCount: 2
Fore
SplineSet
517.200195312 712.799804688 m 1
 529.200195312 724.799804688 543.599609375 730.799804688 555.599609375 730.799804688 c 0
 572.400390625 730.799804688 585.599609375 721.200195312 585.599609375 705.599609375 c 0
 585.599609375 697.200195312 582 688.799804688 576 679.200195312 c 0
 420 459.599609375 268.799804688 219.599609375 111.599609375 0 c 1
 100.799804688 -9.599609375 88.7998046875 -13.2001953125 78 -13.2001953125 c 0
 62.400390625 -13.2001953125 49.2001953125 -4.7998046875 49.2001953125 12 c 0
 49.2001953125 19.2001953125 50.400390625 26.400390625 55.2001953125 34.7998046875 c 0
 216 255.599609375 361.200195312 495.599609375 517.200195312 712.799804688 c 1
EndSplineSet
EndChar

StartChar: AE
Encoding: 198 198 73
Width: 661
VWidth: 1200
Flags: W
HStem: 0 75.5996<406.8 614.834> 286.8 81.6006<172.499 316.8> 298.8 73.2002<400.8 590.155> 560.4 80.3994<398.457 625.151>
VStem: 36 72<3.23637 179.357> 313.2 82.7998<428.244 562.8> 318 81.5996<76.0121 289.2 372 560.501> 320.4 86.3994<75.5996 289.2>
LayerCount: 2
Fore
SplineSet
601.200195312 640.799804688 m 1xd9
 627.599609375 634.799804688 638.400390625 622.799804688 638.400390625 608.400390625 c 0
 638.400390625 552 516 560.400390625 498 560.400390625 c 0
 476.400390625 560.400390625 448.799804688 562.799804688 396 567.599609375 c 1xdc
 396 516 396 421.200195312 399.599609375 372 c 1xba
 478.799804688 370.799804688 483.599609375 368.400390625 559.200195312 368.400390625 c 1xda
 585.599609375 363.599609375 595.200195312 351.599609375 595.200195312 337.200195312 c 0
 595.200195312 320.400390625 578.400390625 300 555.599609375 295.200195312 c 1
 496.799804688 295.200195312 544.799804688 298.799804688 427.200195312 298.799804688 c 0
 417.599609375 298.799804688 409.200195312 298.799804688 400.799804688 298.799804688 c 1xba
 400.799804688 234 406.799804688 168 406.799804688 102 c 0
 406.799804688 92.400390625 406.799804688 84 406.799804688 75.599609375 c 1
 523.200195312 75.599609375 478.799804688 79.2001953125 595.200195312 79.2001953125 c 1
 618 75.599609375 627.599609375 63.599609375 627.599609375 50.400390625 c 0
 627.599609375 31.2001953125 607.200195312 7.2001953125 583.200195312 1.2001953125 c 1
 462 1.2001953125 494.400390625 0 380.400390625 0 c 0
 354 0 320.400390625 3.599609375 320.400390625 31.2001953125 c 2
 322.799804688 289.200195312 l 1
 290.400390625 289.200195312 261.599609375 286.799804688 232.799804688 286.799804688 c 0
 207.599609375 286.799804688 181.200195312 288 152.400390625 296.400390625 c 1
 130.799804688 207.599609375 120 106.799804688 108 20.400390625 c 0
 105.599609375 8.400390625 88.7998046875 1.2001953125 72 1.2001953125 c 0
 54 1.2001953125 36 9.599609375 36 30 c 0
 36 75.599609375 43.2001953125 288 123.599609375 427.200195312 c 0
 223.200195312 600 280.799804688 643.200195312 372 643.200195312 c 0
 444 643.200195312 468 640.799804688 601.200195312 640.799804688 c 1xd9
313.200195312 562.799804688 m 1
 253.200195312 523.200195312 199.200195312 435.599609375 171.599609375 373.200195312 c 1
 190.799804688 369.599609375 208.799804688 368.400390625 225.599609375 368.400390625 c 0xdc
 255.599609375 368.400390625 284.400390625 372 316.799804688 372 c 1
 318 391.200195312 318 409.200195312 318 426 c 0xba
 318 474 314.400390625 513.599609375 313.200195312 562.799804688 c 1
EndSplineSet
Substitution2: "'c2sc' Capitals to Small Capitals in Latin lookup 1 subtable" AE.smcp
EndChar

StartChar: ae
Encoding: 230 230 74
Width: 682
VWidth: 1200
Flags: W
HStem: -3.59961 87.5996<409.211 515.845> 0 69.5996<141.976 241.474> 212.4 70.7998<375.6 483.943> 384 75.5996<168.692 276.304> 393.6 69.6006<410.347 509.118>
VStem: 34.7998 68.4004<114.9 205.2> 514.8 86.4004<310.668 385.59>
LayerCount: 2
Fore
SplineSet
476.400390625 223.200195312 m 0x2e
 436.799804688 211.200195312 412.799804688 212.400390625 375.599609375 212.400390625 c 1
 384 145.200195312 396 84 459.599609375 84 c 0
 526.799804688 84 571.200195312 168 609.599609375 168 c 0
 622.799804688 168 648 136.799804688 648 120 c 0
 648 97.2001953125 550.799804688 -3.599609375 442.799804688 -3.599609375 c 0
 440.400390625 -3.599609375 438 -3.599609375 435.599609375 -3.599609375 c 1xae
 435.599609375 -3.599609375 360 15.599609375 313.200195312 80.400390625 c 1
 280.799804688 25.2001953125 224.400390625 0 171.599609375 0 c 0
 74.400390625 0 34.7998046875 66 34.7998046875 176.400390625 c 0
 34.7998046875 298.799804688 96 459.599609375 253.200195312 459.599609375 c 0x76
 291.599609375 459.599609375 325.200195312 448.799804688 339.599609375 423.599609375 c 1
 358.799804688 439.200195312 412.799804688 463.200195312 446.400390625 463.200195312 c 0
 520.799804688 463.200195312 601.200195312 418.799804688 601.200195312 361.200195312 c 0
 601.200195312 294 529.200195312 238.799804688 476.400390625 223.200195312 c 0x2e
264 123.599609375 m 0
 280.799804688 169.200195312 296.400390625 228 296.400390625 283.200195312 c 0
 296.400390625 328.799804688 288 384 225.599609375 384 c 0
 111.599609375 384 103.200195312 199.200195312 103.200195312 205.200195312 c 1
 103.200195312 145.200195312 132 69.599609375 189.599609375 69.599609375 c 0x76
 220.799804688 69.599609375 252 91.2001953125 264 123.599609375 c 0
427.200195312 384 m 0
 385.200195312 361.200195312 380.400390625 325.200195312 373.200195312 283.200195312 c 1
 482.400390625 283.200195312 514.799804688 316.799804688 514.799804688 351.599609375 c 0
 514.799804688 379.200195312 490.799804688 393.599609375 463.200195312 393.599609375 c 0x2e
 451.200195312 393.599609375 438 390 427.200195312 384 c 0
EndSplineSet
Substitution2: "'smcp' Lowercase to Small Capitals in Latin lookup 0 subtable" AE.smcp
EndChar

StartChar: Thorn
Encoding: 222 222 75
Width: 492
VWidth: 1200
Flags: W
HStem: 219.6 76.8008<136.8 314.069> 513.6 78<136.8 294.429> 647.2 20G<91.7998 107.4>
VStem: 60 76.7998<11.2261 220.8 298.633 513.51 588 661.885>
LayerCount: 2
Fore
SplineSet
60 632.400390625 m 1
 66 654 82.7998046875 667.200195312 100.799804688 667.200195312 c 0
 114 667.200195312 127.200195312 660 136.799804688 644.400390625 c 1
 136.799804688 588 l 1
 154.799804688 590.400390625 174 591.599609375 194.400390625 591.599609375 c 0
 312 591.599609375 442.799804688 547.200195312 442.799804688 402 c 0
 442.799804688 253.200195312 315.599609375 219.599609375 187.200195312 219.599609375 c 0
 170.400390625 219.599609375 153.599609375 219.599609375 136.799804688 220.799804688 c 1
 136.799804688 46.7998046875 l 1
 133.200195312 20.400390625 108 0 86.400390625 0 c 0
 72 0 60 10.7998046875 60 34.7998046875 c 2
 60 632.400390625 l 1
370.799804688 394.799804688 m 1
 360 489.599609375 264 513.599609375 175.200195312 513.599609375 c 0
 162 513.599609375 148.799804688 513.599609375 136.799804688 512.400390625 c 1
 136.799804688 300 l 1
 158.400390625 298.799804688 183.599609375 296.400390625 208.799804688 296.400390625 c 0
 280.799804688 296.400390625 354 312 370.799804688 394.799804688 c 1
EndSplineSet
Substitution2: "'c2sc' Capitals to Small Capitals in Latin lookup 1 subtable" Thorn.smcp
EndChar

StartChar: thorn
Encoding: 254 254 76
Width: 454
VWidth: 1200
Flags: W
HStem: 1.2002 78<120.541 283.099> 387.6 79.2002<158.023 285.921>
VStem: 43.2002 76.7998<-295.05 16.7998 88.8821 350.426 418.8 570.727> 334.8 80.4004<131.934 332.795>
LayerCount: 2
Fore
SplineSet
39.599609375 544.799804688 m 0
 39.599609375 564 56.400390625 574.799804688 78 574.799804688 c 0
 96 574.799804688 114 566.400390625 120 547.200195312 c 1
 120 469.200195312 120 496.799804688 120 418.799804688 c 1
 127.200195312 435.599609375 157.200195312 466.799804688 225.599609375 466.799804688 c 0
 370.799804688 466.799804688 415.200195312 344.400390625 415.200195312 217.200195312 c 0
 415.200195312 87.599609375 336 1.2001953125 195.599609375 1.2001953125 c 0
 152.400390625 1.2001953125 130.799804688 12 120 16.7998046875 c 1
 120 -133.200195312 118.799804688 -109.200195312 118.799804688 -262.799804688 c 1
 112.799804688 -288 88.7998046875 -308.400390625 67.2001953125 -308.400390625 c 0
 52.7998046875 -308.400390625 40.7998046875 -298.799804688 40.7998046875 -274.799804688 c 0
 40.7998046875 -103.200195312 43.2001953125 -104.400390625 43.2001953125 67.2001953125 c 0
 43.2001953125 423.599609375 39.599609375 500.400390625 39.599609375 544.799804688 c 0
208.799804688 387.599609375 m 1
 152.400390625 380.400390625 120 328.799804688 120 301.200195312 c 2
 120 97.2001953125 l 1
 132 94.7998046875 152.400390625 79.2001953125 196.799804688 79.2001953125 c 0
 279.599609375 79.2001953125 334.799804688 116.400390625 334.799804688 220.799804688 c 0
 334.799804688 308.400390625 315.599609375 387.599609375 208.799804688 387.599609375 c 1
EndSplineSet
Substitution2: "'smcp' Lowercase to Small Capitals in Latin lookup 0 subtable" Thorn.smcp
EndChar

StartChar: eth
Encoding: 240 240 77
Width: 463
VWidth: 1200
Flags: W
HStem: -2.40039 79.2002<176.456 282> 373.2 70.7998<176.197 245.811> 471.6 21G<137.4 150.6> 646 20G<149.4 164.4 279.6 292.8>
VStem: 48 75.5996<139.176 309.919> 334.8 76.7998<139.865 314.944>
LayerCount: 2
Fore
SplineSet
175.200195312 481.200195312 m 1
 164.400390625 475.200195312 154.799804688 471.599609375 146.400390625 471.599609375 c 0
 128.400390625 471.599609375 116.400390625 483.599609375 116.400390625 500.400390625 c 0
 116.400390625 508.799804688 120 518.400390625 127.200195312 529.200195312 c 1
 156 560.400390625 l 1
 152.400390625 564 l 2
 145.200195312 571.200195312 126 595.200195312 126 598.799804688 c 1
 127.200195312 598.799804688 l 1
 120 606 116.400390625 615.599609375 116.400390625 624 c 0
 116.400390625 645.599609375 138 666 160.799804688 666 c 0
 168 666 174 663.599609375 181.200195312 660 c 1
 217.200195312 615.599609375 l 1
 252 651.599609375 l 1
 264 661.200195312 274.799804688 664.799804688 284.400390625 664.799804688 c 0
 301.200195312 664.799804688 313.200195312 652.799804688 313.200195312 636 c 0
 313.200195312 627.599609375 310.799804688 614.400390625 300 603.599609375 c 2
 259.200195312 562.799804688 l 1
 346.799804688 452.400390625 406.799804688 382.799804688 411.599609375 232.799804688 c 1
 411.599609375 134.400390625 324 -2.400390625 214.799804688 -2.400390625 c 0
 105.599609375 -2.400390625 48 118.799804688 48 204 c 0
 48 313.200195312 118.799804688 444 247.200195312 444 c 1
 196.799804688 507.599609375 l 1
 175.200195312 481.200195312 l 1
279.599609375 96 m 0
 316.799804688 127.200195312 334.799804688 177.599609375 334.799804688 226.799804688 c 0
 334.799804688 288 298.799804688 373.200195312 234 373.200195312 c 0
 156 373.200195312 123.599609375 291.599609375 123.599609375 234 c 0
 123.599609375 157.200195312 163.200195312 76.7998046875 232.799804688 76.7998046875 c 0
 248.400390625 76.7998046875 265.200195312 82.7998046875 279.599609375 96 c 0
EndSplineSet
Substitution2: "'smcp' Lowercase to Small Capitals in Latin lookup 0 subtable" Eth.smcp
EndChar

StartChar: germandbls
Encoding: 223 223 78
Width: 529
VWidth: 1200
Flags: W
HStem: -40.7998 69.5996<275.904 359.84> 304.8 58.7998<179.193 238.239> 615.6 80.4004<185.734 295.818>
VStem: 39.5996 75.6006<144.392 502.111> 45.5996 85.2002<-296.004 -13.4158> 172.8 79.2002<53.0594 104.546> 320.4 73.1992<442.626 591> 397.2 75.5996<71.9186 261.786>
LayerCount: 2
Fore
SplineSet
130.799804688 -259.200195312 m 1xef
 126 -285.599609375 100.799804688 -309.599609375 78 -309.599609375 c 0
 34.7998046875 -309.599609375 45.599609375 -217.200195312 45.599609375 -160.799804688 c 0xef
 45.599609375 -50.400390625 49.2001953125 69.599609375 49.2001953125 164.400390625 c 0
 49.2001953125 241.200195312 39.599609375 319.200195312 39.599609375 394.799804688 c 0
 39.599609375 466.799804688 48 540 82.7998046875 608.400390625 c 0
 117.599609375 675.599609375 182.400390625 696 234 696 c 0
 330 696 393.599609375 613.200195312 393.599609375 536.400390625 c 0
 393.599609375 526.799804688 386.400390625 387.599609375 300 356.400390625 c 1
 428.400390625 348 472.799804688 253.200195312 472.799804688 162 c 0
 472.799804688 22.7998046875 409.200195312 -40.7998046875 303.599609375 -40.7998046875 c 0
 244.799804688 -40.7998046875 186 -15.599609375 172.799804688 60 c 1
 172.799804688 88.7998046875 195.599609375 115.200195312 222 115.200195312 c 0
 232.799804688 115.200195312 243.599609375 110.400390625 252 97.2001953125 c 1
 267.599609375 48 291.599609375 28.7998046875 315.599609375 28.7998046875 c 0
 372 28.7998046875 397.200195312 100.799804688 397.200195312 181.200195312 c 0
 397.200195312 274.799804688 366 307.200195312 238.799804688 307.200195312 c 0
 226.799804688 307.200195312 217.200195312 306 211.200195312 304.799804688 c 1
 188.400390625 306 177.599609375 321.599609375 177.599609375 336 c 0
 177.599609375 349.200195312 186 361.200195312 204 363.599609375 c 1
 286.799804688 394.799804688 320.400390625 457.200195312 320.400390625 529.200195312 c 0
 320.400390625 568.799804688 306 612 232.799804688 615.599609375 c 1
 158.400390625 615.599609375 115.200195312 475.200195312 115.200195312 357.599609375 c 0xf7
 115.200195312 207.599609375 121.200195312 -54 130.799804688 -259.200195312 c 1xef
EndSplineSet
Substitution2: "'smcp' Lowercase to Small Capitals in Latin lookup 0 subtable" germandbls.smcp
EndChar

StartChar: acute
Encoding: 180 180 79
Width: 247
VWidth: 1200
Flags: W
HStem: 720 169.2<87.5996 166.8>
VStem: 51.5996 151.2
LayerCount: 2
Fore
SplineSet
136.799804688 872.400390625 m 1
 144 884.400390625 156 889.200195312 166.799804688 889.200195312 c 0
 183.599609375 889.200195312 202.799804688 874.799804688 202.799804688 844.799804688 c 1
 184.799804688 808.799804688 134.400390625 720 87.599609375 720 c 0
 63.599609375 720 51.599609375 738 51.599609375 751.200195312 c 0
 51.599609375 762 57.599609375 774 67.2001953125 784.799804688 c 1
 103.200195312 804 120 835.200195312 136.799804688 872.400390625 c 1
EndSplineSet
EndChar

StartChar: grave
Encoding: 96 96 80
Width: 220
VWidth: 1200
Flags: W
HStem: 594 69.5996<121.936 192.895>
VStem: 21.5996 175.2
LayerCount: 2
Fore
SplineSet
79.2001953125 724.799804688 m 1
 106.799804688 694.799804688 130.799804688 670.799804688 171.599609375 663.599609375 c 1
 186 654 196.799804688 640.799804688 196.799804688 627.599609375 c 0
 196.799804688 612 181.200195312 594 158.400390625 594 c 0
 102 594 21.599609375 676.799804688 21.599609375 698.400390625 c 0
 21.599609375 721.200195312 38.400390625 734.400390625 56.400390625 734.400390625 c 0
 63.599609375 734.400390625 72 730.799804688 79.2001953125 724.799804688 c 1
EndSplineSet
EndChar

StartChar: circumflex
Encoding: 710 710 81
Width: 325
VWidth: 1200
Flags: W
HStem: 712.8 134.4
VStem: 36 244.8<732 771.6>
LayerCount: 2
Fore
SplineSet
157.200195312 778.799804688 m 1
 139.200195312 764.400390625 92.400390625 712.799804688 68.400390625 712.799804688 c 0
 48 712.799804688 36 732 36 752.400390625 c 0
 36 771.599609375 128.400390625 847.200195312 159.599609375 847.200195312 c 0
 183.599609375 847.200195312 280.799804688 784.799804688 280.799804688 748.799804688 c 0
 280.799804688 728.400390625 259.200195312 715.200195312 241.200195312 715.200195312 c 0
 231.599609375 715.200195312 171.599609375 763.200195312 157.200195312 778.799804688 c 1
EndSplineSet
EndChar

StartChar: caron
Encoding: 711 711 82
Width: 391
VWidth: 1200
Flags: W
HStem: 640.8 158.4
VStem: 64.7998 271.2
LayerCount: 2
Fore
SplineSet
274.799804688 780 m 0
 280.799804688 787.200195312 296.400390625 793.200195312 309.599609375 793.200195312 c 0
 324 793.200195312 336 787.200195312 336 771.599609375 c 0
 336 769.200195312 334.799804688 766.799804688 334.799804688 764.400390625 c 0
 325.200195312 739.200195312 220.799804688 640.799804688 195.599609375 640.799804688 c 0
 168 640.799804688 80.400390625 728.400390625 64.7998046875 771.599609375 c 1
 67.2001953125 790.799804688 79.2001953125 799.200195312 93.599609375 799.200195312 c 0
 126 799.200195312 147.599609375 751.200195312 195.599609375 706.799804688 c 1
 228 730.799804688 252 752.400390625 274.799804688 780 c 0
EndSplineSet
EndChar

StartChar: hungarumlaut
Encoding: 733 733 83
Width: 307
VWidth: 1200
Flags: W
HStem: 606 180<192 255.6>
VStem: 97.2002 67.2002<705.401 783.375> 224.4 67.1992<703.517 779.331>
LayerCount: 2
Fore
SplineSet
97.2001953125 763.200195312 m 1
 105.599609375 777.599609375 117.599609375 786 130.799804688 786 c 0
 147.599609375 786 163.200195312 771.599609375 164.400390625 747.599609375 c 1
 154.799804688 706.799804688 116.400390625 606 66 606 c 0
 40.7998046875 606 31.2001953125 622.799804688 31.2001953125 637.200195312 c 0
 31.2001953125 646.799804688 34.7998046875 657.599609375 40.7998046875 667.200195312 c 1
 75.599609375 691.200195312 87.599609375 723.599609375 97.2001953125 763.200195312 c 1
224.400390625 760.799804688 m 1
 230.400390625 776.400390625 243.599609375 782.400390625 255.599609375 782.400390625 c 0
 271.200195312 782.400390625 288 772.799804688 291.599609375 745.200195312 c 1
 279.599609375 705.599609375 243.599609375 603.599609375 192 603.599609375 c 0
 168 603.599609375 157.200195312 620.400390625 157.200195312 634.799804688 c 0
 157.200195312 645.599609375 160.799804688 655.200195312 168 664.799804688 c 1
 202.799804688 688.799804688 214.799804688 721.200195312 224.400390625 760.799804688 c 1
EndSplineSet
EndChar

StartChar: dieresis
Encoding: 168 168 84
Width: 404
VWidth: 1200
Flags: W
HStem: 531.6 97.2002<82.0379 157.667 247.973 321.855>
VStem: 68.4004 99.5996<542.18 614.7> 238.8 98.4004<546.752 621.85>
LayerCount: 2
Fore
SplineSet
292.799804688 627.599609375 m 0
 313.200195312 627.599609375 336 616.799804688 337.200195312 589.200195312 c 1
 332.400390625 552 307.200195312 535.200195312 283.200195312 535.200195312 c 0
 260.400390625 535.200195312 238.799804688 552 238.799804688 583.200195312 c 0
 238.799804688 610.799804688 253.200195312 627.599609375 292.799804688 627.599609375 c 0
124.799804688 628.799804688 m 0
 148.799804688 628.799804688 166.799804688 608.400390625 168 577.200195312 c 1
 163.200195312 548.400390625 139.200195312 531.599609375 112.799804688 531.599609375 c 0
 82.7998046875 531.599609375 72 552 68.400390625 571.200195312 c 1
 68.400390625 601.200195312 96 628.799804688 124.799804688 628.799804688 c 0
EndSplineSet
EndChar

StartChar: dotaccent
Encoding: 729 729 85
Width: 140
VWidth: 1200
Flags: W
HStem: 536.4 82.7998<36.7203 102.429>
VStem: 31.2002 78<542.79 613.028>
LayerCount: 2
Fore
SplineSet
31.2001953125 579.599609375 m 1
 36 604.799804688 43.2001953125 612 70.7998046875 619.200195312 c 1
 91.2001953125 619.200195312 109.200195312 600 109.200195312 577.200195312 c 0
 109.200195312 559.200195312 87.599609375 536.400390625 70.7998046875 536.400390625 c 0
 49.2001953125 536.400390625 34.7998046875 547.200195312 31.2001953125 579.599609375 c 1
EndSplineSet
EndChar

StartChar: tilde
Encoding: 732 732 86
Width: 469
VWidth: 1200
Flags: W
HStem: 502.8 56.4004<243.745 320.221> 548.4 62.3994<139.228 217.596>
VStem: 74.4004 314.399<549.178 557.971>
LayerCount: 2
Fore
SplineSet
169.200195312 548.400390625 m 0x60
 142.799804688 548.400390625 134.400390625 505.200195312 109.200195312 505.200195312 c 0
 99.599609375 505.200195312 74.400390625 517.200195312 74.400390625 537.599609375 c 0
 74.400390625 570 134.400390625 610.799804688 169.200195312 610.799804688 c 0x60
 211.200195312 610.799804688 240 574.799804688 286.799804688 559.200195312 c 1
 312 559.200195312 333.599609375 607.200195312 360 607.200195312 c 0
 369.599609375 607.200195312 388.799804688 594 388.799804688 578.400390625 c 0
 388.799804688 544.799804688 320.400390625 502.799804688 284.400390625 502.799804688 c 0xa0
 228 502.799804688 205.200195312 548.400390625 169.200195312 548.400390625 c 0x60
EndSplineSet
EndChar

StartChar: breve
Encoding: 728 728 87
Width: 300
VWidth: 1200
Flags: W
HStem: 468 64.7998<110.342 195.582>
VStem: 22.7998 254.4<514.58 589.2>
LayerCount: 2
Fore
SplineSet
22.7998046875 568.799804688 m 0
 22.7998046875 589.200195312 37.2001953125 608.400390625 61.2001953125 608.400390625 c 0
 103.200195312 608.400390625 88.7998046875 532.799804688 154.799804688 532.799804688 c 0
 208.799804688 532.799804688 207.599609375 603.599609375 244.799804688 603.599609375 c 0
 262.799804688 603.599609375 277.200195312 589.200195312 277.200195312 567.599609375 c 0
 277.200195312 508.799804688 211.200195312 468 148.799804688 468 c 0
 99.599609375 468 22.7998046875 499.200195312 22.7998046875 568.799804688 c 0
EndSplineSet
EndChar

StartChar: ring
Encoding: 730 730 88
Width: 202
VWidth: 1200
Flags: W
HStem: 490.8 52.7998<72.6066 135.258> 610.8 42<74.9391 134.328>
VStem: 20.4004 50.3994<545.066 606.798> 136.8 48<546.022 609.643>
LayerCount: 2
Fore
SplineSet
100.799804688 490.799804688 m 0
 51.599609375 490.799804688 20.400390625 538.799804688 20.400390625 568.799804688 c 0
 20.400390625 622.799804688 63.599609375 652.799804688 112.799804688 652.799804688 c 0
 156 652.799804688 184.799804688 622.799804688 184.799804688 565.200195312 c 1
 181.200195312 529.200195312 152.400390625 492 100.799804688 490.799804688 c 0
109.200195312 610.799804688 m 0
 88.7998046875 610.799804688 70.7998046875 595.200195312 70.7998046875 574.799804688 c 0
 70.7998046875 560.400390625 79.2001953125 543.599609375 100.799804688 543.599609375 c 0
 122.400390625 543.599609375 136.799804688 552 136.799804688 578.400390625 c 0
 136.799804688 596.400390625 124.799804688 610.799804688 109.200195312 610.799804688 c 0
EndSplineSet
EndChar

StartChar: cedilla
Encoding: 184 184 89
Width: 571
VWidth: 1200
Flags: W
HStem: -307.2 75.6006<203.301 351.249> -145.2 156<222.056 287.928> -140.4 62.4004<288.003 357.237>
VStem: 208.8 81.6006<-77.2198 2.39528> 360 72<-222.583 -142.835>
LayerCount: 2
Fore
SplineSet
216 -15.599609375 m 0xd8
 220.799804688 0 240 10.7998046875 258 10.7998046875 c 0xd8
 278.400390625 10.7998046875 290.400390625 -1.2001953125 290.400390625 -30 c 0
 290.400390625 -42 288 -52.7998046875 288 -60 c 0
 288 -72 291.599609375 -78 310.799804688 -78 c 0
 315.599609375 -78 322.799804688 -76.7998046875 331.200195312 -75.599609375 c 1
 406.799804688 -75.599609375 432 -97.2001953125 432 -151.200195312 c 0
 432 -236.400390625 376.799804688 -307.200195312 267.599609375 -307.200195312 c 0
 212.400390625 -307.200195312 142.799804688 -289.200195312 142.799804688 -248.400390625 c 0
 142.799804688 -226.799804688 157.200195312 -205.200195312 183.599609375 -205.200195312 c 0
 204 -205.200195312 238.799804688 -231.599609375 279.599609375 -231.599609375 c 0
 336 -231.599609375 360 -226.799804688 360 -168 c 0
 360 -146.400390625 343.200195312 -140.400390625 324 -140.400390625 c 0xb8
 306 -140.400390625 284.400390625 -145.200195312 271.200195312 -145.200195312 c 0
 220.799804688 -145.200195312 208.799804688 -109.200195312 208.799804688 -72 c 0
 208.799804688 -51.599609375 212.400390625 -31.2001953125 216 -15.599609375 c 0xd8
EndSplineSet
EndChar

StartChar: ogonek
Encoding: 731 731 90
Width: 856
VWidth: 1200
Flags: W
HStem: -303.6 79.1992<173.761 339.851>
VStem: 94.7998 75.6006<-218.584 -127.796>
LayerCount: 2
Fore
SplineSet
187.200195312 -4.7998046875 m 0
 192 -2.400390625 196.799804688 -2.400390625 201.599609375 -2.400390625 c 0
 225.599609375 -2.400390625 249.599609375 -26.400390625 249.599609375 -51.599609375 c 0
 249.599609375 -81.599609375 170.400390625 -118.799804688 170.400390625 -188.400390625 c 0
 170.400390625 -222 205.200195312 -224.400390625 226.799804688 -224.400390625 c 0
 259.200195312 -224.400390625 290.400390625 -212.400390625 325.200195312 -212.400390625 c 1
 350.400390625 -219.599609375 368.400390625 -242.400390625 368.400390625 -261.599609375 c 0
 368.400390625 -292.799804688 304.799804688 -303.599609375 241.200195312 -303.599609375 c 0
 136.799804688 -303.599609375 94.7998046875 -249.599609375 94.7998046875 -175.200195312 c 0
 94.7998046875 -104.400390625 134.400390625 -27.599609375 187.200195312 -4.7998046875 c 0
EndSplineSet
EndChar

StartChar: question
Encoding: 63 63 91
Width: 368
VWidth: 1200
Flags: W
HStem: 31.2002 100.8<155.377 232.237> 632.4 79.1992<138.761 254.8>
VStem: 118.8 81.6006<266.831 358.954> 142.8 96<41.7872 124.65> 278.4 76.7998<525.698 609.507>
LayerCount: 2
Fore
SplineSet
187.200195312 132 m 0xd8
 219.599609375 132 238.799804688 128.400390625 238.799804688 84 c 0
 238.799804688 36 208.799804688 31.2001953125 184.799804688 31.2001953125 c 0
 166.799804688 31.2001953125 142.799804688 63.599609375 142.799804688 84 c 0
 142.799804688 103.200195312 159.599609375 132 187.200195312 132 c 0xd8
200.400390625 632.400390625 m 0xe8
 121.200195312 632.400390625 109.200195312 553.200195312 75.599609375 553.200195312 c 0
 49.2001953125 553.200195312 34.7998046875 571.200195312 34.7998046875 595.200195312 c 0
 34.7998046875 640.799804688 116.400390625 711.599609375 199.200195312 711.599609375 c 0
 264 711.599609375 355.200195312 664.799804688 355.200195312 560.400390625 c 0
 355.200195312 454.799804688 200.400390625 364.799804688 200.400390625 320.400390625 c 0
 200.400390625 286.799804688 226.799804688 271.200195312 226.799804688 250.799804688 c 0
 226.799804688 231.599609375 208.799804688 214.799804688 192 214.799804688 c 0
 159.599609375 214.799804688 118.799804688 255.599609375 118.799804688 320.400390625 c 0
 118.799804688 430.799804688 253.200195312 481.200195312 277.200195312 560.400390625 c 0
 278.400390625 564 278.400390625 567.599609375 278.400390625 570 c 0
 278.400390625 604.799804688 231.599609375 632.400390625 200.400390625 632.400390625 c 0xe8
EndSplineSet
EndChar

StartChar: exclam
Encoding: 33 33 92
Width: 247
VWidth: 1200
Flags: W
HStem: 31.2002 100.8<92.9775 170.313>
VStem: 76.7998 87.6006<436.874 706.95> 80.4004 96<41.7872 124.65>
LayerCount: 2
Fore
SplineSet
76.7998046875 687.599609375 m 1xc0
 81.599609375 702 104.400390625 712.799804688 126 712.799804688 c 0
 144 712.799804688 160.799804688 705.599609375 164.400390625 687.599609375 c 1
 164.400390625 558 154.799804688 472.799804688 154.799804688 346.799804688 c 0
 154.799804688 324 154.799804688 300 156 274.799804688 c 1
 151.200195312 258 133.200195312 242.400390625 117.599609375 242.400390625 c 0
 108 242.400390625 98.400390625 248.400390625 92.400390625 264 c 1
 82.7998046875 418.799804688 76.7998046875 529.200195312 76.7998046875 687.599609375 c 1xc0
124.799804688 132 m 0
 157.200195312 132 176.400390625 128.400390625 176.400390625 84 c 0
 176.400390625 36 147.599609375 31.2001953125 123.599609375 31.2001953125 c 0
 104.400390625 31.2001953125 80.400390625 63.599609375 80.400390625 84 c 0xa0
 80.400390625 103.200195312 97.2001953125 132 124.799804688 132 c 0
EndSplineSet
EndChar

StartChar: questiondown
Encoding: 191 191 93
Width: 375
VWidth: 1200
Flags: W
HStem: -208.8 78<130.742 245> 370.8 100.8<153.687 231.022>
VStem: 31.2002 75.5996<-107.611 -24.0417> 147.6 96<378.307 461.013> 184.8 82.7998<142.796 235.253>
LayerCount: 2
Fore
SplineSet
199.200195312 370.799804688 m 0xf0
 166.799804688 370.799804688 147.599609375 373.200195312 147.599609375 418.799804688 c 0
 147.599609375 466.799804688 176.400390625 471.599609375 200.400390625 471.599609375 c 0
 219.599609375 471.599609375 243.599609375 439.200195312 243.599609375 418.799804688 c 0
 243.599609375 399.599609375 226.799804688 370.799804688 199.200195312 370.799804688 c 0xf0
184.799804688 -130.799804688 m 0xe8
 264 -130.799804688 276 -51.599609375 310.799804688 -51.599609375 c 0
 336 -51.599609375 351.599609375 -68.400390625 351.599609375 -92.400390625 c 0
 351.599609375 -139.200195312 268.799804688 -208.799804688 187.200195312 -208.799804688 c 0
 121.200195312 -208.799804688 31.2001953125 -163.200195312 31.2001953125 -58.7998046875 c 0
 31.2001953125 46.7998046875 184.799804688 138 184.799804688 180 c 0
 184.799804688 214.799804688 158.400390625 231.599609375 158.400390625 252 c 0
 158.400390625 270 176.400390625 286.799804688 193.200195312 286.799804688 c 0
 225.599609375 286.799804688 267.599609375 246 267.599609375 181.200195312 c 0
 267.599609375 72 132 20.400390625 108 -58.7998046875 c 0
 106.799804688 -62.400390625 106.799804688 -66 106.799804688 -68.400390625 c 0
 106.799804688 -102 153.599609375 -130.799804688 184.799804688 -130.799804688 c 0xe8
EndSplineSet
EndChar

StartChar: exclamdown
Encoding: 161 161 94
Width: 214
VWidth: 1200
Flags: W
HStem: 370.8 100.8<83.3771 160.237>
VStem: 67.2002 87.5996<-205.501 65.2769> 70.7998 96<378.307 461.013>
LayerCount: 2
Fore
SplineSet
67.2001953125 -184.799804688 m 1xc0
 67.2001953125 -27.599609375 72 84 82.7998046875 238.799804688 c 1
 87.599609375 253.200195312 97.2001953125 259.200195312 106.799804688 259.200195312 c 0
 122.400390625 259.200195312 140.400390625 243.599609375 145.200195312 228 c 1
 144 204 144 181.200195312 144 159.599609375 c 0
 144 32.400390625 154.799804688 -54 154.799804688 -184.799804688 c 1
 150 -204 134.400390625 -211.200195312 116.400390625 -211.200195312 c 0
 94.7998046875 -211.200195312 72 -200.400390625 67.2001953125 -184.799804688 c 1xc0
115.200195312 370.799804688 m 0
 87.599609375 370.799804688 70.7998046875 399.599609375 70.7998046875 418.799804688 c 0
 70.7998046875 439.200195312 94.7998046875 471.599609375 112.799804688 471.599609375 c 0
 136.799804688 471.599609375 166.799804688 466.799804688 166.799804688 418.799804688 c 0xa0
 166.799804688 373.200195312 147.599609375 370.799804688 115.200195312 370.799804688 c 0
EndSplineSet
EndChar

StartChar: asterisk
Encoding: 42 42 95
Width: 404
VWidth: 1200
Flags: W
HStem: 641.2 20G<303.6 333>
VStem: 43.2002 314.399
LayerCount: 2
Fore
SplineSet
56.400390625 610.799804688 m 1
 48 619.200195312 43.2001953125 630 43.2001953125 639.599609375 c 0
 43.2001953125 657.599609375 57.599609375 673.200195312 78 673.200195312 c 0
 102 673.200195312 146.400390625 620.400390625 171.599609375 595.200195312 c 1
 176.400390625 640.799804688 168 718.799804688 212.400390625 718.799804688 c 0
 226.799804688 718.799804688 241.200195312 709.200195312 247.200195312 688.799804688 c 1
 242.400390625 624 l 1
 266.400390625 638.400390625 290.400390625 650.400390625 316.799804688 661.200195312 c 1
 321.599609375 661.200195312 l 2
 344.400390625 661.200195312 357.599609375 645.599609375 357.599609375 628.799804688 c 0
 357.599609375 596.400390625 274.799804688 564 236.400390625 538.799804688 c 1
 279.599609375 505.200195312 350.400390625 495.599609375 350.400390625 459.599609375 c 0
 350.400390625 442.799804688 337.200195312 427.200195312 314.400390625 427.200195312 c 0
 286.799804688 427.200195312 250.799804688 447.599609375 226.799804688 464.400390625 c 1
 223.200195312 418.799804688 225.599609375 379.200195312 190.799804688 379.200195312 c 0
 175.200195312 379.200195312 159.599609375 391.200195312 156 415.200195312 c 1
 156 439.200195312 157.200195312 463.200195312 159.599609375 487.200195312 c 1
 138 471.599609375 104.400390625 448.799804688 85.2001953125 448.799804688 c 0
 64.7998046875 448.799804688 50.400390625 464.400390625 50.400390625 481.200195312 c 0
 50.400390625 508.799804688 96 526.799804688 127.200195312 547.200195312 c 1
 103.200195312 570 80.400390625 591.599609375 56.400390625 610.799804688 c 1
EndSplineSet
EndChar

StartChar: comma
Encoding: 44 44 96
Width: 202
VWidth: 1200
Flags: W
HStem: -87.5996 192<82.9208 115.562>
VStem: 80.4004 68.3994<-19.3296 101.799>
LayerCount: 2
Fore
SplineSet
80.400390625 73.2001953125 m 1
 84 94.7998046875 99.599609375 104.400390625 115.200195312 104.400390625 c 0
 128.400390625 104.400390625 142.799804688 94.7998046875 148.799804688 75.599609375 c 1
 148.799804688 31.2001953125 135.599609375 -87.599609375 79.2001953125 -87.599609375 c 0
 55.2001953125 -87.599609375 45.599609375 -72 45.599609375 -52.7998046875 c 0
 45.599609375 -45.599609375 46.7998046875 -39.599609375 49.2001953125 -32.400390625 c 1
 76.7998046875 -1.2001953125 80.400390625 32.400390625 80.400390625 73.2001953125 c 1
EndSplineSet
EndChar

StartChar: hyphen
Encoding: 45 45 97
Width: 404
VWidth: 1200
Flags: W
HStem: 195.6 80.4004<41.4241 361.518>
VStem: 36 332.4<205.06 268.064>
LayerCount: 2
Fore
SplineSet
322.799804688 195.599609375 m 1
 68.400390625 195.599609375 l 2
 40.7998046875 195.599609375 36 217.200195312 36 232.799804688 c 0
 36 259.200195312 52.7998046875 271.200195312 85.2001953125 276 c 1
 331.200195312 276 l 1
 355.200195312 268.799804688 368.400390625 255.599609375 368.400390625 238.799804688 c 0
 368.400390625 214.799804688 349.200195312 202.799804688 322.799804688 195.599609375 c 1
EndSplineSet
EndChar

StartChar: period
Encoding: 46 46 98
Width: 214
VWidth: 1200
Flags: W
HStem: 1.2002 118.8<72.6968 149.417>
VStem: 55.2002 109.2<14.3147 103.839>
LayerCount: 2
Fore
SplineSet
164.400390625 60 m 1
 164.400390625 32.400390625 140.400390625 1.2001953125 109.200195312 1.2001953125 c 0
 88.7998046875 1.2001953125 55.2001953125 15.599609375 55.2001953125 40.7998046875 c 0
 55.2001953125 70.7998046875 70.7998046875 120 111.599609375 120 c 0
 124.799804688 120 159.599609375 106.799804688 164.400390625 60 c 1
EndSplineSet
EndChar

StartChar: colon
Encoding: 58 58 99
Width: 232
VWidth: 1200
Flags: W
HStem: 1.2002 111.6<74.0153 143.607> 300 118.8<76.1282 152.665>
VStem: 64.7998 103.2<12.6988 103.657 313.235 403.858>
LayerCount: 2
Fore
SplineSet
144 108 m 1
 151.200195312 103.200195312 168 75.599609375 168 55.2001953125 c 0
 168 22.7998046875 140.400390625 1.2001953125 112.799804688 1.2001953125 c 0
 85.2001953125 1.2001953125 64.7998046875 24 64.7998046875 56.400390625 c 0
 64.7998046875 92.400390625 84 112.799804688 123.599609375 112.799804688 c 0
 128.400390625 112.799804688 135.599609375 111.599609375 144 108 c 1
168 358.799804688 m 1
 168 331.200195312 144 300 112.799804688 300 c 0
 92.400390625 300 58.7998046875 313.200195312 58.7998046875 339.599609375 c 0
 58.7998046875 368.400390625 73.2001953125 418.799804688 115.200195312 418.799804688 c 0
 128.400390625 418.799804688 163.200195312 404.400390625 168 358.799804688 c 1
EndSplineSet
EndChar

StartChar: semicolon
Encoding: 59 59 100
Width: 232
VWidth: 1200
Flags: W
HStem: 298.8 117.601<76.1282 153.017>
VStem: 56.4004 111.6<19.0404 107.656 311.804 397.955>
LayerCount: 2
Fore
SplineSet
168 356.400390625 m 1
 168 328.799804688 144 298.799804688 112.799804688 298.799804688 c 0
 92.400390625 298.799804688 58.7998046875 312 58.7998046875 337.200195312 c 0
 58.7998046875 367.200195312 73.2001953125 416.400390625 115.200195312 416.400390625 c 0
 128.400390625 416.400390625 163.200195312 403.200195312 168 356.400390625 c 1
106.799804688 118.799804688 m 0
 152.400390625 118.799804688 168 94.7998046875 168 37.2001953125 c 0
 168 -43.2001953125 109.200195312 -86.400390625 88.7998046875 -86.400390625 c 0
 75.599609375 -86.400390625 66 -80.400390625 66 -72 c 0
 66 -54 104.400390625 -28.7998046875 111.599609375 4.7998046875 c 1
 84 4.7998046875 56.400390625 27.599609375 56.400390625 64.7998046875 c 0
 56.400390625 84 70.7998046875 118.799804688 106.799804688 118.799804688 c 0
EndSplineSet
EndChar

StartChar: numbersign
Encoding: 35 35 101
Width: 457
VWidth: 1200
Flags: W
HStem: 99.5996 64.8008<37.2949 85.2002> 106.8 64.7998<320.4 382.922> 274.8 76.7998<61.5029 141.9 380.475 430.844> 291.6 67.2002<244.063 289.2> 444.4 20G<202.8 238.8 347.4 375>
VStem: 76.7998 75.6006<13.6231 98.5326>
LayerCount: 2
Fore
SplineSet
82.7998046875 274.799804688 m 1xac
 60 277.200195312 49.2001953125 292.799804688 49.2001953125 307.200195312 c 0
 49.2001953125 346.799804688 120 343.200195312 171.599609375 351.599609375 c 1xac
 190.799804688 391.200195312 176.400390625 464.400390625 229.200195312 464.400390625 c 0
 248.400390625 464.400390625 259.200195312 448.799804688 259.200195312 433.200195312 c 0
 259.200195312 420 250.799804688 380.400390625 243.599609375 358.799804688 c 1
 279.599609375 358.799804688 296.400390625 356.400390625 315.599609375 355.200195312 c 1
 328.799804688 394.799804688 327.599609375 463.200195312 367.200195312 463.200195312 c 0
 382.799804688 463.200195312 397.200195312 451.200195312 397.200195312 430.799804688 c 0
 397.200195312 406.799804688 388.799804688 373.200195312 380.400390625 348 c 1
 418.799804688 340.799804688 435.599609375 339.599609375 435.599609375 313.200195312 c 0
 435.599609375 300 427.200195312 284.400390625 406.799804688 280.799804688 c 1
 391.200195312 280.799804688 375.599609375 283.200195312 360 284.400390625 c 1
 332.400390625 220.799804688 334.799804688 202.799804688 320.400390625 171.599609375 c 1
 358.799804688 171.599609375 l 1
 375.599609375 164.400390625 385.200195312 152.400390625 385.200195312 139.200195312 c 0
 385.200195312 123.599609375 375.599609375 109.200195312 356.400390625 106.799804688 c 1
 307.200195312 106.799804688 l 1x5c
 301.200195312 61.2001953125 303.599609375 -3.599609375 262.799804688 -3.599609375 c 0
 248.400390625 -3.599609375 236.400390625 1.2001953125 232.799804688 22.7998046875 c 1
 243.599609375 104.400390625 l 1
 152.400390625 99.599609375 l 1
 142.799804688 61.2001953125 145.200195312 1.2001953125 108 1.2001953125 c 0
 94.7998046875 1.2001953125 79.2001953125 12 76.7998046875 34.7998046875 c 1
 79.2001953125 56.400390625 82.7998046875 76.7998046875 85.2001953125 99.599609375 c 1
 68.400390625 99.599609375 l 1
 46.7998046875 103.200195312 34.7998046875 118.799804688 34.7998046875 132 c 0
 34.7998046875 147.599609375 48 164.400390625 70.7998046875 164.400390625 c 2
 103.200195312 164.400390625 l 1
 112.799804688 204 127.200195312 241.200195312 142.799804688 277.200195312 c 1
 123.599609375 276 104.400390625 274.799804688 82.7998046875 274.799804688 c 1xac
214.799804688 288 m 1
 200.400390625 259.200195312 190.799804688 229.200195312 168 166.799804688 c 1
 196.799804688 166.799804688 228 168 256.799804688 169.200195312 c 1
 268.799804688 211.200195312 277.200195312 250.799804688 289.200195312 291.599609375 c 1x1c
 272.400390625 291.599609375 255.599609375 292.799804688 214.799804688 288 c 1
EndSplineSet
EndChar

StartChar: percent
Encoding: 37 37 102
Width: 643
VWidth: 1200
Flags: W
HStem: 7.2002 68.3994<409.643 509.997> 220.8 68.4004<428.293 528.065> 348 76.7998<121.201 223.942> 588 58.7998<151.081 246.838>
VStem: 43.2002 73.2002<429.736 553.537> 256.8 75.6006<457.508 580.627> 324 74.4004<87.3031 191.935> 541.2 66<107.876 210.305>
LayerCount: 2
Fore
SplineSet
202.799804688 646.799804688 m 0xfd
 271.200195312 646.799804688 332.400390625 612 332.400390625 535.200195312 c 0
 332.400390625 448.799804688 253.200195312 348 163.200195312 348 c 0
 108 348 43.2001953125 391.200195312 43.2001953125 484.799804688 c 0
 43.2001953125 588 123.599609375 646.799804688 202.799804688 646.799804688 c 0xfd
480 636 m 0
 492 644.400390625 505.200195312 649.200195312 517.200195312 649.200195312 c 0
 536.400390625 649.200195312 538.799804688 636 538.799804688 618 c 0
 538.799804688 612 538.799804688 604.799804688 538.799804688 598.799804688 c 0
 538.799804688 580.799804688 484.799804688 505.200195312 472.799804688 487.200195312 c 0
 374.400390625 344.400390625 246 141.599609375 190.799804688 48 c 0
 172.799804688 18 152.400390625 7.2001953125 135.599609375 7.2001953125 c 0
 114 7.2001953125 97.2001953125 25.2001953125 97.2001953125 40.7998046875 c 0
 97.2001953125 79.2001953125 164.400390625 141.599609375 200.400390625 195.599609375 c 0
 306 350.400390625 290.400390625 342 411.599609375 529.200195312 c 0
 439.200195312 571.200195312 436.799804688 601.200195312 480 636 c 0
487.200195312 289.200195312 m 0
 556.799804688 289.200195312 607.200195312 224.400390625 607.200195312 152.400390625 c 0
 607.200195312 61.2001953125 536.400390625 7.2001953125 447.599609375 7.2001953125 c 0
 385.200195312 7.2001953125 324 43.2001953125 324 127.200195312 c 0xfb
 324 220.799804688 409.200195312 289.200195312 487.200195312 289.200195312 c 0
256.799804688 514.799804688 m 0xfd
 256.799804688 544.799804688 252 588 212.400390625 588 c 0
 145.200195312 588 116.400390625 536.400390625 116.400390625 481.200195312 c 0
 116.400390625 436.799804688 128.400390625 424.799804688 166.799804688 424.799804688 c 0
 204 424.799804688 256.799804688 457.200195312 256.799804688 514.799804688 c 0xfd
541.200195312 151.200195312 m 0
 541.200195312 169.200195312 535.200195312 220.799804688 492 220.799804688 c 0
 454.799804688 220.799804688 398.400390625 198 398.400390625 136.799804688 c 0xfb
 398.400390625 88.7998046875 430.799804688 75.599609375 454.799804688 75.599609375 c 0
 499.200195312 75.599609375 541.200195312 118.799804688 541.200195312 151.200195312 c 0
EndSplineSet
Substitution2: "'smcp' Lowercase to Small Capitals in Latin lookup 0 subtable" percent.smcp
EndChar

StartChar: ampersand
Encoding: 38 38 103
Width: 564
VWidth: 1200
Flags: W
HStem: 4.7998 85.2002<170.022 270.962> 588 75.5996<228.884 290.586>
VStem: 67.2002 70.7998<125.052 268.036> 146.4 68.3994<431.53 576.138> 304.8 73.2002<453.096 575.005> 394.8 73.2002<228.887 312.05>
LayerCount: 2
Fore
SplineSet
394.799804688 283.200195312 m 0
 399.599609375 306 416.400390625 315.599609375 433.200195312 315.599609375 c 0
 451.200195312 315.599609375 468 303.599609375 468 280.799804688 c 0
 468 250.799804688 435.599609375 198 398.400390625 147.599609375 c 1
 414 114 428.400390625 81.599609375 439.200195312 44.400390625 c 1
 435.599609375 21.599609375 418.799804688 7.2001953125 402 7.2001953125 c 0
 370.799804688 7.2001953125 364.799804688 54 350.400390625 88.7998046875 c 1
 295.200195312 22.7998046875 261.599609375 4.7998046875 220.799804688 4.7998046875 c 0
 130.799804688 4.7998046875 67.2001953125 121.200195312 67.2001953125 204 c 0
 67.2001953125 300 128.400390625 346.799804688 188.400390625 385.200195312 c 1
 165.599609375 432 146.400390625 481.200195312 146.400390625 530.400390625 c 0
 146.400390625 619.200195312 206.400390625 663.599609375 259.200195312 663.599609375 c 0
 330 663.599609375 378 590.400390625 378 517.200195312 c 0
 378 446.400390625 326.400390625 403.200195312 271.200195312 363.599609375 c 1
 291.599609375 327.599609375 318 295.200195312 336 262.799804688 c 2
 363.599609375 212.400390625 l 1
 379.200195312 237.599609375 391.200195312 262.799804688 394.799804688 283.200195312 c 0
214.799804688 90 m 0
 246 90 285.599609375 117.599609375 319.200195312 153.599609375 c 1
 290.400390625 206.400390625 254.400390625 255.599609375 226.799804688 312 c 2
 219.599609375 326.400390625 l 1
 175.200195312 292.799804688 138 256.799804688 138 204 c 0
 138 182.400390625 151.200195312 90 214.799804688 90 c 0
214.799804688 504 m 1
 217.200195312 475.200195312 226.799804688 446.400390625 241.200195312 417.599609375 c 1
 277.200195312 442.799804688 304.799804688 468 304.799804688 507.599609375 c 0
 304.799804688 558 282 588 259.200195312 588 c 0
 237.599609375 588 216 561.599609375 214.799804688 504 c 1
EndSplineSet
Substitution2: "'smcp' Lowercase to Small Capitals in Latin lookup 0 subtable" ampersand.smcp
EndChar

StartChar: at
Encoding: 64 64 104
Width: 550
VWidth: 1200
Flags: W
HStem: 2.40039 74.3994<173.755 358.343> 144 58.7998<211.608 289.976> 283.2 55.2002<229.978 299.828> 397.2 70.7998<212.796 392.204>
VStem: 34.7998 66<140.812 289.031> 146.4 64.7998<204.427 264.484> 288 63.5996<118.844 145.2> 423.6 68.4004<264.927 368.559>
LayerCount: 2
Fore
SplineSet
160.799804688 172.799804688 m 0
 151.200195312 184.799804688 146.400390625 198 146.400390625 212.400390625 c 0
 146.400390625 270 213.599609375 338.400390625 278.400390625 338.400390625 c 0
 289.200195312 338.400390625 300 336 310.799804688 332.400390625 c 1
 310.799804688 339.599609375 327.599609375 345.599609375 343.200195312 345.599609375 c 0
 357.599609375 345.599609375 370.799804688 340.799804688 370.799804688 328.799804688 c 0
 370.799804688 296.400390625 363.599609375 264 360 228 c 1
 397.200195312 248.400390625 423.599609375 284.400390625 423.599609375 325.200195312 c 0
 423.599609375 380.400390625 354 397.200195312 300 397.200195312 c 0
 180 397.200195312 100.799804688 298.799804688 100.799804688 210 c 0
 100.799804688 141.599609375 151.200195312 76.7998046875 267.599609375 76.7998046875 c 0
 340.799804688 76.7998046875 397.200195312 114 427.200195312 156 c 0
 436.799804688 170.400390625 450 176.400390625 462 176.400390625 c 0
 478.799804688 176.400390625 492 164.400390625 492 146.400390625 c 0
 492 144 492 140.400390625 490.799804688 136.799804688 c 0
 469.200195312 45.599609375 379.200195312 2.400390625 285.599609375 2.400390625 c 0
 164.400390625 2.400390625 34.7998046875 74.400390625 34.7998046875 211.200195312 c 0
 34.7998046875 357.599609375 183.599609375 468 320.400390625 468 c 0
 391.200195312 468 492 433.200195312 492 320.400390625 c 0
 492 244.799804688 429.599609375 175.200195312 351.599609375 156 c 1
 348 117.599609375 326.400390625 116.400390625 313.200195312 116.400390625 c 0
 290.400390625 116.400390625 288 133.200195312 288 141.599609375 c 0
 288 145.200195312 l 1
 278.400390625 144 267.599609375 144 256.799804688 144 c 0
 219.599609375 144 178.799804688 151.200195312 160.799804688 172.799804688 c 0
292.799804688 204 m 1
 295.200195312 217.200195312 300 255.599609375 300 267.599609375 c 0
 300 278.400390625 290.400390625 283.200195312 277.200195312 283.200195312 c 0
 250.799804688 283.200195312 211.200195312 261.599609375 211.200195312 211.200195312 c 1
 223.200195312 204 241.200195312 202.799804688 259.200195312 202.799804688 c 0
 271.200195312 202.799804688 284.400390625 202.799804688 292.799804688 204 c 1
EndSplineSet
EndChar

StartChar: degree
Encoding: 176 176 105
Width: 232
VWidth: 1200
Flags: W
HStem: 550.8 52.7998<82.581 146.006> 670.8 42<84.9861 144.919>
VStem: 31.2002 49.2002<605.173 666.599> 147.6 48<606.013 669.556>
LayerCount: 2
Fore
SplineSet
111.599609375 550.799804688 m 0
 61.2001953125 550.799804688 31.2001953125 598.799804688 31.2001953125 628.799804688 c 0
 31.2001953125 682.799804688 73.2001953125 712.799804688 123.599609375 712.799804688 c 0
 166.799804688 712.799804688 195.599609375 682.799804688 195.599609375 625.200195312 c 1
 192 589.200195312 163.200195312 552 111.599609375 550.799804688 c 0
120 670.799804688 m 0
 99.599609375 670.799804688 80.400390625 655.200195312 80.400390625 634.799804688 c 0
 80.400390625 620.400390625 88.7998046875 603.599609375 111.599609375 603.599609375 c 0
 132 603.599609375 147.599609375 612 147.599609375 637.200195312 c 0
 147.599609375 656.400390625 134.400390625 670.799804688 120 670.799804688 c 0
EndSplineSet
EndChar

StartChar: mu
Encoding: 181 181 106
AltUni2: 0003bc.ffffffff.0
Width: 493
VWidth: 1200
Flags: W
HStem: 1.2002 78<175.736 325.061> 449.2 20G<78 106.2 376.8 400.8>
VStem: 46.7998 81.6006<-286.65 24 122.207 462.032> 348 87.5996<230.279 462.559> 360 80.4004<115.861 430.514>
LayerCount: 2
Fore
SplineSet
127.200195312 -247.200195312 m 1xe8
 123.599609375 -272.400390625 94.7998046875 -307.200195312 73.2001953125 -307.200195312 c 0
 60 -307.200195312 48 -296.400390625 48 -272.400390625 c 0
 48 -34.7998046875 46.7998046875 36 46.7998046875 430.799804688 c 1
 51.599609375 442.799804688 60 469.200195312 96 469.200195312 c 0
 116.400390625 469.200195312 127.200195312 457.200195312 132 435.599609375 c 1
 132 325.200195312 130.799804688 255.599609375 128.400390625 145.200195312 c 1
 157.200195312 108 196.799804688 79.2001953125 247.200195312 79.2001953125 c 0
 351.599609375 79.2001953125 360 142.799804688 360 226.799804688 c 0xe8
 360 301.200195312 348 363.599609375 348 430.799804688 c 1
 352.799804688 451.200195312 361.200195312 466.799804688 392.400390625 466.799804688 c 0
 409.200195312 466.799804688 428.400390625 463.200195312 435.599609375 436.799804688 c 1xf0
 435.599609375 363.599609375 440.400390625 298.799804688 440.400390625 226.799804688 c 0
 440.400390625 63.599609375 380.400390625 1.2001953125 240 1.2001953125 c 0
 200.400390625 1.2001953125 163.200195312 7.2001953125 128.400390625 24 c 1
 127.200195312 -84 127.200195312 -136.799804688 127.200195312 -247.200195312 c 1xe8
EndSplineSet
EndChar

StartChar: copyright
Encoding: 169 169 107
Width: 759
VWidth: 1200
Flags: W
HStem: -1.2002 76.7998<274.162 491.099> 135.6 80.4004<317.62 417.123> 457.2 78<322.722 417.606> 596.4 70.7998<296.853 493.377>
VStem: 44.4004 76.7998<227.28 427.011> 214.8 76.7998<243.773 422.715> 620.4 76.7998<207.317 467.976>
LayerCount: 2
Fore
SplineSet
379.200195312 667.200195312 m 1
 456 663.599609375 544.799804688 661.200195312 607.200195312 601.200195312 c 0
 676.799804688 532.799804688 697.200195312 427.200195312 697.200195312 334.799804688 c 0
 697.200195312 139.200195312 596.400390625 4.7998046875 394.799804688 -1.2001953125 c 1
 272.400390625 -1.2001953125 44.400390625 55.2001953125 44.400390625 332.400390625 c 0
 44.400390625 512.400390625 204 652.799804688 379.200195312 667.200195312 c 1
379.200195312 596.400390625 m 1
 232.799804688 580.799804688 121.200195312 464.400390625 121.200195312 327.599609375 c 0
 121.200195312 181.200195312 240 75.599609375 379.200195312 75.599609375 c 0
 544.799804688 75.599609375 620.400390625 172.799804688 620.400390625 328.799804688 c 0
 620.400390625 478.799804688 571.200195312 592.799804688 379.200195312 596.400390625 c 1
379.200195312 535.200195312 m 0
 416.400390625 535.200195312 523.200195312 492 523.200195312 436.799804688 c 0
 523.200195312 411.599609375 499.200195312 396 476.400390625 396 c 0
 447.599609375 396 416.400390625 457.200195312 368.400390625 457.200195312 c 0
 315.599609375 457.200195312 291.599609375 396 291.599609375 336 c 0
 291.599609375 268.799804688 310.799804688 216 363.599609375 216 c 0
 376.799804688 216 445.200195312 256.799804688 486 256.799804688 c 0
 502.799804688 256.799804688 514.799804688 249.599609375 514.799804688 228 c 0
 514.799804688 171.599609375 416.400390625 135.599609375 368.400390625 135.599609375 c 0
 283.200195312 135.599609375 214.799804688 216 214.799804688 313.200195312 c 0
 214.799804688 411.599609375 268.799804688 535.200195312 379.200195312 535.200195312 c 0
EndSplineSet
EndChar

StartChar: registered
Encoding: 174 174 108
Width: 760
VWidth: 1200
Flags: W
HStem: 0 76.7998<274.84 494.83> 296.4 63.5996<323.269 395.19> 450 67.2002<323.405 429.585> 596.4 68.3994<297.364 493.659>
VStem: 46.7998 76.7998<227.593 429.522> 256.8 66<164.614 298.8 360.818 449.981> 445.2 62.3994<165.297 232.201 374.729 432.497> 619.2 76.7998<208.401 467.855>
LayerCount: 2
Fore
SplineSet
379.200195312 664.799804688 m 1
 457.200195312 663.599609375 544.799804688 660 604.799804688 601.200195312 c 0
 675.599609375 531.599609375 696 427.200195312 696 336 c 0
 696 139.200195312 595.200195312 7.2001953125 394.799804688 0 c 1
 272.400390625 0 46.7998046875 56.400390625 46.7998046875 332.400390625 c 0
 46.7998046875 511.200195312 204 652.799804688 379.200195312 664.799804688 c 1
380.400390625 596.400390625 m 1
 232.799804688 579.599609375 123.599609375 464.400390625 123.599609375 327.599609375 c 0
 123.599609375 181.200195312 240 76.7998046875 380.400390625 76.7998046875 c 0
 544.799804688 76.7998046875 619.200195312 175.200195312 619.200195312 328.799804688 c 0
 619.200195312 478.799804688 571.200195312 592.799804688 380.400390625 596.400390625 c 1
512.400390625 214.799804688 m 0
 512.400390625 212.400390625 513.599609375 208.799804688 513.599609375 206.400390625 c 0
 513.599609375 183.599609375 492 162 472.799804688 162 c 0
 463.200195312 162 454.799804688 168 448.799804688 181.200195312 c 1
 436.799804688 224.400390625 400.799804688 259.200195312 384 296.400390625 c 1
 361.200195312 296.400390625 340.799804688 296.400390625 320.400390625 298.799804688 c 1
 320.400390625 242.400390625 332.400390625 156 276 156 c 0
 264 156 253.200195312 164.400390625 253.200195312 184.799804688 c 0
 253.200195312 267.599609375 256.799804688 348 256.799804688 476.400390625 c 1
 272.400390625 520.799804688 326.400390625 517.200195312 370.799804688 517.200195312 c 0
 459.599609375 517.200195312 507.599609375 475.200195312 507.599609375 412.799804688 c 0
 507.599609375 375.599609375 488.400390625 337.200195312 451.200195312 315.599609375 c 1
 471.599609375 280.799804688 499.200195312 250.799804688 512.400390625 214.799804688 c 0
322.799804688 448.799804688 m 1
 322.799804688 368.400390625 l 1
 330 362.400390625 343.200195312 360 358.799804688 360 c 0
 396 360 445.200195312 375.599609375 445.200195312 402 c 0
 445.200195312 436.799804688 381.599609375 450 351.599609375 450 c 0
 342 450 332.400390625 450 322.799804688 448.799804688 c 1
EndSplineSet
EndChar

StartChar: section
Encoding: 167 167 109
Width: 384
VWidth: 1200
Flags: W
HStem: 0 76.7998<78.7656 211.381> 585.6 81.6006<163.101 287.357>
VStem: 43.2002 66<284.72 371.45> 73.2002 79.2002<491.127 573.158> 214.8 74.4004<80.8063 160.433> 272.4 64.7998<273.51 375.268>
LayerCount: 2
Fore
SplineSet
133.200195312 643.200195312 m 1xd0
 153.599609375 656.400390625 192 667.200195312 226.799804688 667.200195312 c 0
 271.200195312 667.200195312 294 650.400390625 294 624 c 0
 294 602.400390625 278.400390625 580.799804688 260.400390625 580.799804688 c 0
 246 580.799804688 231.599609375 585.599609375 219.599609375 585.599609375 c 0
 176.400390625 585.599609375 152.400390625 564 152.400390625 532.799804688 c 0
 152.400390625 445.200195312 337.200195312 480 337.200195312 332.400390625 c 0xd4
 337.200195312 279.599609375 308.400390625 226.799804688 265.200195312 188.400390625 c 1
 284.400390625 163.200195312 289.200195312 142.799804688 289.200195312 104.400390625 c 0
 289.200195312 28.7998046875 229.200195312 0 163.200195312 0 c 0
 78 0 51.599609375 28.7998046875 51.599609375 45.599609375 c 0
 51.599609375 55.2001953125 50.400390625 84 90 84 c 0
 104.400390625 84 136.799804688 76.7998046875 164.400390625 76.7998046875 c 0
 198 76.7998046875 214.799804688 85.2001953125 214.799804688 116.400390625 c 0
 214.799804688 194.400390625 43.2001953125 207.599609375 43.2001953125 319.200195312 c 0xe8
 43.2001953125 370.799804688 79.2001953125 420 127.200195312 451.200195312 c 1
 92.400390625 468 73.2001953125 495.599609375 73.2001953125 529.200195312 c 0
 73.2001953125 604.799804688 111.599609375 631.200195312 133.200195312 643.200195312 c 1xd0
272.400390625 328.799804688 m 0
 272.400390625 362.400390625 235.200195312 403.200195312 193.200195312 403.200195312 c 0
 166.799804688 403.200195312 109.200195312 372 109.200195312 325.200195312 c 0xe4
 109.200195312 284.400390625 172.799804688 253.200195312 207.599609375 235.200195312 c 1
 238.799804688 253.200195312 272.400390625 291.599609375 272.400390625 328.799804688 c 0
EndSplineSet
EndChar

StartChar: paragraph
Encoding: 182 182 110
Width: 500
VWidth: 1200
Flags: W
HStem: 602.4 61.1992<268.8 312 380.4 450.792>
VStem: 36 232.8<422.744 581.813> 192 70.7998<5.28069 354.236> 303.6 70.8008<2.08129 390.716> 312 68.4004<375.284 603.6>
LayerCount: 2
Fore
SplineSet
192 351.599609375 m 1xa0
 104.400390625 360 36 404.400390625 36 502.799804688 c 0
 36 604.799804688 114 663.599609375 265.200195312 663.599609375 c 0
 362.400390625 663.599609375 452.400390625 672 452.400390625 637.200195312 c 0
 452.400390625 608.400390625 439.200195312 602.400390625 408 602.400390625 c 0
 399.599609375 602.400390625 391.200195312 602.400390625 380.400390625 603.599609375 c 1xc8
 376.799804688 450 374.400390625 283.200195312 374.400390625 145.200195312 c 0
 374.400390625 106.799804688 375.599609375 70.7998046875 375.599609375 40.7998046875 c 0
 375.599609375 12 356.400390625 -4.7998046875 340.799804688 -4.7998046875 c 0
 294 -4.7998046875 303.599609375 121.200195312 303.599609375 159.599609375 c 0x90
 303.599609375 237.599609375 308.400390625 409.200195312 312 604.799804688 c 1
 268.799804688 604.799804688 l 1xc8
 260.400390625 481.200195312 262.799804688 285.599609375 262.799804688 40.7998046875 c 0
 262.799804688 13.2001953125 240 1.2001953125 216 -3.599609375 c 1
 193.200195312 0 195.599609375 10.7998046875 192 32.400390625 c 1
 190.799804688 87.599609375 188.400390625 147.599609375 188.400390625 219.599609375 c 0
 188.400390625 259.200195312 188.400390625 303.599609375 192 351.599609375 c 1xa0
EndSplineSet
EndChar

StartChar: asciicircum
Encoding: 94 94 111
Width: 370
VWidth: 1200
Flags: W
HStem: 622.8 174
VStem: 36 296.4
LayerCount: 2
Fore
SplineSet
103.200195312 644.400390625 m 0
 96 636 78 628.799804688 62.400390625 628.799804688 c 0
 48 628.799804688 36 634.799804688 36 651.599609375 c 0
 36 655.200195312 36 657.599609375 37.2001953125 661.200195312 c 0
 46.7998046875 688.799804688 160.799804688 796.799804688 188.400390625 796.799804688 c 0
 219.599609375 796.799804688 315.599609375 700.799804688 332.400390625 652.799804688 c 1
 330 631.200195312 316.799804688 622.799804688 301.200195312 622.799804688 c 0
 264 622.799804688 243.599609375 673.200195312 188.400390625 724.799804688 c 1
 154.799804688 699.599609375 127.200195312 673.200195312 103.200195312 644.400390625 c 0
EndSplineSet
EndChar

StartChar: asciitilde
Encoding: 126 126 112
Width: 529
VWidth: 1200
Flags: W
HStem: 408 75.5996<299.478 388.629> 469.2 84<141.38 236.88>
LayerCount: 2
Fore
SplineSet
180 469.200195312 m 0x40
 145.200195312 469.200195312 116.400390625 408 74.400390625 408 c 0x80
 61.2001953125 408 26.400390625 420 26.400390625 445.200195312 c 0
 26.400390625 490.799804688 132 553.200195312 180 553.200195312 c 0x40
 235.200195312 553.200195312 283.200195312 505.200195312 346.799804688 483.599609375 c 1
 382.799804688 484.799804688 422.400390625 548.400390625 462 548.400390625 c 0
 475.200195312 548.400390625 499.200195312 535.200195312 499.200195312 513.599609375 c 0
 499.200195312 468 392.400390625 408 344.400390625 408 c 0x80
 268.799804688 408 229.200195312 469.200195312 180 469.200195312 c 0x40
EndSplineSet
EndChar

StartChar: underscore
Encoding: 95 95 113
Width: 571
VWidth: 1200
Flags: W
HStem: -60 58.7998<32.4658 539.231>
LayerCount: 2
Fore
SplineSet
55.2001953125 -60 m 2
 34.7998046875 -60 31.2001953125 -44.400390625 31.2001953125 -32.400390625 c 0
 31.2001953125 -13.2001953125 43.2001953125 -4.7998046875 67.2001953125 -1.2001953125 c 1
 516 -1.2001953125 l 1
 532.799804688 -7.2001953125 541.200195312 -16.7998046875 541.200195312 -28.7998046875 c 0
 541.200195312 -46.7998046875 524.400390625 -55.2001953125 504 -60 c 1
 55.2001953125 -60 l 2
EndSplineSet
EndChar

StartChar: slash
Encoding: 47 47 114
Width: 423
VWidth: 1200
Flags: W
VStem: 44.4004 63.5996<-39.1501 23.4125> 331.2 68.3994<669.206 734.276>
LayerCount: 2
Fore
SplineSet
331.200195312 712.799804688 m 1
 340.799804688 730.799804688 357.599609375 739.200195312 372 739.200195312 c 0
 386.400390625 739.200195312 399.599609375 729.599609375 399.599609375 712.799804688 c 0
 399.599609375 706.799804688 398.400390625 699.599609375 394.799804688 692.400390625 c 0
 291.599609375 444 214.799804688 228 108 -20.400390625 c 1
 97.2001953125 -34.7998046875 82.7998046875 -43.2001953125 70.7998046875 -43.2001953125 c 0
 56.400390625 -43.2001953125 44.400390625 -33.599609375 44.400390625 -14.400390625 c 0
 44.400390625 -9.599609375 45.599609375 -4.7998046875 46.7998046875 0 c 0
 154.799804688 250.799804688 226.799804688 466.799804688 331.200195312 712.799804688 c 1
EndSplineSet
EndChar

StartChar: backslash
Encoding: 92 92 115
Width: 420
VWidth: 1200
Flags: W
VStem: 25.2002 63.5996<677.496 739.695> 312 68.4004<-33.4763 31.5949>
LayerCount: 2
Fore
SplineSet
312 -12 m 1
 207.599609375 235.200195312 135.599609375 451.200195312 27.599609375 700.799804688 c 0
 26.400390625 705.599609375 25.2001953125 710.400390625 25.2001953125 715.200195312 c 0
 25.2001953125 734.400390625 37.2001953125 744 50.400390625 744 c 0
 63.599609375 744 78 735.599609375 88.7998046875 721.200195312 c 1
 195.599609375 472.799804688 272.400390625 256.799804688 375.599609375 8.400390625 c 0
 379.200195312 0 380.400390625 -6 380.400390625 -12 c 0
 380.400390625 -30 367.200195312 -38.400390625 352.799804688 -38.400390625 c 0
 338.400390625 -38.400390625 321.599609375 -30 312 -12 c 1
EndSplineSet
EndChar

StartChar: bar
Encoding: 124 124 116
Width: 176
VWidth: 1200
Flags: W
VStem: 51.5996 76.8008<-41.3795 726.025>
LayerCount: 2
Fore
SplineSet
55.2001953125 697.200195312 m 1
 61.2001953125 720 82.7998046875 739.200195312 103.200195312 739.200195312 c 0
 115.200195312 739.200195312 127.200195312 730.799804688 132 709.200195312 c 1
 132 471.599609375 128.400390625 232.799804688 128.400390625 -7.2001953125 c 1
 123.599609375 -33.599609375 98.400390625 -52.7998046875 78 -52.7998046875 c 0
 63.599609375 -52.7998046875 51.599609375 -43.2001953125 51.599609375 -19.2001953125 c 0
 51.599609375 220.799804688 55.2001953125 459.599609375 55.2001953125 697.200195312 c 1
EndSplineSet
EndChar

StartChar: dollar
Encoding: 36 36 117
Width: 507
VWidth: 1200
Flags: W
HStem: 3.59961 57.6006<286.8 374.086> 592.8 70.7998<201.174 232.8 310.8 382.5>
VStem: 70.7998 69.6006<423.031 529.321> 214.8 68.4004<-55.4895 3.59961 72 284.458> 232.8 68.4004<83.6131 288 664.899 720.775> 240 68.4004<385.2 592.237> 404.4 70.7998<90.3035 220.407 514.628 570.55>
LayerCount: 2
Fore
SplineSet
232.799804688 692.400390625 m 1xea
 236.400390625 712.799804688 252 723.599609375 267.599609375 723.599609375 c 0
 280.799804688 723.599609375 295.200195312 712.799804688 301.200195312 694.799804688 c 1
 301.200195312 667.200195312 l 1xea
 380.400390625 660 454.799804688 619.200195312 476.400390625 548.400390625 c 1
 475.200195312 524.400390625 457.200195312 511.200195312 440.400390625 511.200195312 c 0
 428.400390625 511.200195312 416.400390625 517.200195312 409.200195312 535.200195312 c 1
 399.599609375 572.400390625 356.400390625 591.599609375 310.799804688 596.400390625 c 1
 310.799804688 586.799804688 310.799804688 577.200195312 310.799804688 568.799804688 c 0
 310.799804688 532.799804688 308.400390625 502.799804688 308.400390625 466.799804688 c 1xe6
 304.799804688 361.200195312 l 1
 410.400390625 321.599609375 475.200195312 256.799804688 475.200195312 142.799804688 c 0
 475.200195312 39.599609375 370.799804688 3.599609375 284.400390625 3.599609375 c 1
 283.200195312 -20.400390625 l 2
 282 -44.400390625 264 -58.7998046875 248.400390625 -58.7998046875 c 0
 232.799804688 -58.7998046875 217.200195312 -46.7998046875 214.799804688 -22.7998046875 c 1
 214.799804688 4.7998046875 l 1xf2
 156 20.400390625 60 72 60 128.400390625 c 0
 60 148.799804688 73.2001953125 163.200195312 92.400390625 163.200195312 c 0
 118.799804688 163.200195312 171.599609375 87.599609375 219.599609375 72 c 1
 226.799804688 154.799804688 223.200195312 232.799804688 231.599609375 315.599609375 c 1
 147.599609375 348 70.7998046875 387.599609375 70.7998046875 451.200195312 c 0
 70.7998046875 544.799804688 132 643.200195312 232.799804688 663.599609375 c 1
 232.799804688 692.400390625 l 1xea
404.400390625 132 m 0
 404.400390625 219.599609375 367.200195312 255.599609375 296.400390625 288 c 1
 288 212.400390625 292.799804688 139.200195312 286.799804688 61.2001953125 c 1
 334.799804688 64.7998046875 404.400390625 76.7998046875 404.400390625 132 c 0
140.400390625 459.599609375 m 1
 142.799804688 421.200195312 195.599609375 399.599609375 238.799804688 385.200195312 c 1
 240 468 l 2xe6
 240 501.599609375 242.400390625 528 242.400390625 558 c 0
 242.400390625 568.799804688 242.400390625 580.799804688 241.200195312 592.799804688 c 1
 178.799804688 577.200195312 140.400390625 508.799804688 140.400390625 459.599609375 c 1
EndSplineSet
Substitution2: "'smcp' Lowercase to Small Capitals in Latin lookup 0 subtable" dollar.smcp
EndChar

StartChar: cent
Encoding: 162 162 118
Width: 424
VWidth: 1200
Flags: W
HStem: 0 88.7998<148.128 199.2> 360 106.8<272.743 359.086>
VStem: 25.2002 86.3994<126.339 313.722> 196.8 67.2002<103.2 372> 212.4 64.7998<464.68 554.469>
LayerCount: 2
Fore
SplineSet
212.400390625 524.400390625 m 1xe8
 217.200195312 547.200195312 234 558 248.400390625 558 c 0
 264 558 277.200195312 547.200195312 277.200195312 525.599609375 c 0
 277.200195312 524.400390625 277.200195312 522 277.200195312 519.599609375 c 2xe8
 272.400390625 466.799804688 l 1
 303.599609375 464.400390625 373.200195312 459.599609375 373.200195312 428.400390625 c 0
 373.200195312 406.799804688 358.799804688 360 331.200195312 360 c 0
 315.599609375 360 289.200195312 373.200195312 267.599609375 379.200195312 c 1
 265.200195312 316.799804688 264 259.200195312 264 202.799804688 c 0xf0
 264 169.200195312 265.200195312 136.799804688 265.200195312 103.200195312 c 1
 300 118.799804688 328.799804688 140.400390625 355.200195312 140.400390625 c 0
 372 140.400390625 382.799804688 127.200195312 382.799804688 111.599609375 c 0
 382.799804688 75.599609375 327.599609375 34.7998046875 268.799804688 13.2001953125 c 1
 274.799804688 -46.7998046875 l 1
 272.400390625 -70.7998046875 256.799804688 -84 240 -84 c 0
 206.400390625 -84 202.799804688 -44.400390625 202.799804688 0 c 1
 87.599609375 0 25.2001953125 92.400390625 25.2001953125 235.200195312 c 0
 25.2001953125 355.200195312 111.599609375 433.200195312 204 457.200195312 c 1
 207.599609375 480 211.200195312 502.799804688 212.400390625 524.400390625 c 1xe8
111.599609375 235.200195312 m 0
 111.599609375 148.799804688 127.200195312 94.7998046875 199.200195312 88.7998046875 c 1
 196.799804688 133.200195312 196.799804688 175.200195312 196.799804688 218.400390625 c 0xf0
 196.799804688 268.799804688 198 318 200.400390625 372 c 1
 151.200195312 351.599609375 111.599609375 303.599609375 111.599609375 235.200195312 c 0
EndSplineSet
EndChar

StartChar: sterling
Encoding: 163 163 119
Width: 550
VWidth: 1200
Flags: W
HStem: -4.7998 78<266.805 421.85> 267.6 82.8008<41.5141 143.812 224.4 356.821> 592.8 70.7998<259.958 390.096>
VStem: 142.8 84<136.502 266.641 347.453 536.723>
LayerCount: 2
Fore
SplineSet
448.799804688 120 m 1
 459.599609375 129.599609375 472.799804688 134.400390625 483.599609375 134.400390625 c 0
 500.400390625 134.400390625 513.599609375 123.599609375 513.599609375 105.599609375 c 0
 513.599609375 98.400390625 511.200195312 91.2001953125 507.599609375 82.7998046875 c 1
 463.200195312 24 412.799804688 -4.7998046875 355.200195312 -4.7998046875 c 0
 330 -4.7998046875 302.400390625 0 274.799804688 12 c 0
 247.200195312 22.7998046875 202.799804688 36 178.799804688 58.7998046875 c 0
 177.599609375 58.7998046875 176.400390625 58.7998046875 175.200195312 58.7998046875 c 0
 129.599609375 58.7998046875 94.7998046875 -4.7998046875 67.2001953125 -4.7998046875 c 0
 54 -4.7998046875 39.599609375 13.2001953125 39.599609375 31.2001953125 c 0
 39.599609375 84 133.200195312 128.400390625 142.799804688 144 c 1
 142.799804688 169.200195312 142.799804688 196.799804688 142.799804688 225.599609375 c 0
 142.799804688 241.200195312 148.799804688 267.599609375 132 267.599609375 c 0
 112.799804688 267.599609375 102 265.200195312 75.599609375 265.200195312 c 1
 48 268.799804688 37.2001953125 286.799804688 37.2001953125 313.200195312 c 0
 37.2001953125 334.799804688 52.7998046875 350.400390625 75.599609375 350.400390625 c 0
 79.2001953125 350.400390625 84 350.400390625 88.7998046875 349.200195312 c 2
 144 346.799804688 l 1
 144 380.400390625 l 2
 144 412.799804688 136.799804688 451.200195312 138 489.599609375 c 1
 138 607.200195312 218.400390625 663.599609375 312 663.599609375 c 0
 352.799804688 663.599609375 478.799804688 636 478.799804688 568.799804688 c 1
 474 546 454.799804688 534 436.799804688 534 c 0
 424.799804688 534 414 540 408 550.799804688 c 0
 391.200195312 578.400390625 358.799804688 592.799804688 325.200195312 592.799804688 c 0
 288 592.799804688 249.599609375 574.799804688 229.200195312 538.799804688 c 1
 224.400390625 494.400390625 220.799804688 456 220.799804688 411.599609375 c 0
 220.799804688 390 219.599609375 366 223.200195312 344.400390625 c 1
 223.200195312 344.400390625 268.799804688 349.200195312 307.200195312 349.200195312 c 0
 349.200195312 349.200195312 364.799804688 336 364.799804688 314.400390625 c 0
 364.799804688 294 348 272.400390625 327.599609375 267.599609375 c 1
 224.400390625 267.599609375 l 1
 225.599609375 247.200195312 226.799804688 223.200195312 226.799804688 200.400390625 c 0
 226.799804688 177.599609375 225.599609375 154.799804688 223.200195312 135.599609375 c 1
 249.599609375 94.7998046875 298.799804688 73.2001953125 346.799804688 73.2001953125 c 0
 387.599609375 73.2001953125 426 88.7998046875 448.799804688 120 c 1
EndSplineSet
Substitution2: "'smcp' Lowercase to Small Capitals in Latin lookup 0 subtable" sterling.smcp
EndChar

StartChar: currency
Encoding: 164 164 120
Width: 692
VWidth: 1200
Flags: W
HStem: 81.5996 75.6006<268.825 429.345> 490.8 78<253.48 416.365>
VStem: 103.2 76.7998<248.256 414.781> 500.4 79.1992<228.67 406.72>
LayerCount: 2
Fore
SplineSet
591.599609375 91.2001953125 m 1
 596.400390625 84 597.599609375 75.599609375 597.599609375 68.400390625 c 0
 597.599609375 44.400390625 577.200195312 22.7998046875 554.400390625 22.7998046875 c 0
 544.799804688 22.7998046875 535.200195312 26.400390625 526.799804688 34.7998046875 c 2
 451.200195312 111.599609375 l 1
 414 91.2001953125 372 81.599609375 330 81.599609375 c 0
 291.599609375 81.599609375 253.200195312 90 219.599609375 108 c 1
 169.200195312 55.2001953125 141.599609375 25.2001953125 116.400390625 25.2001953125 c 0
 100.799804688 25.2001953125 87.599609375 34.7998046875 87.599609375 54 c 0
 87.599609375 78 121.200195312 116.400390625 160.799804688 154.799804688 c 1
 128.400390625 192 106.799804688 241.200195312 103.200195312 320.400390625 c 1
 104.400390625 380.400390625 124.799804688 444 166.799804688 490.799804688 c 1
 121.200195312 540 94.7998046875 571.200195312 96 568.799804688 c 1
 88.7998046875 576 86.400390625 585.599609375 86.400390625 594 c 0
 86.400390625 616.799804688 109.200195312 638.400390625 133.200195312 638.400390625 c 0
 165.599609375 638.400390625 207.599609375 572.400390625 236.400390625 541.200195312 c 1
 273.599609375 559.200195312 312 568.799804688 349.200195312 568.799804688 c 0
 391.200195312 568.799804688 432 556.799804688 466.799804688 536.400390625 c 1
 499.200195312 571.200195312 540 640.799804688 578.400390625 640.799804688 c 0
 596.400390625 640.799804688 608.400390625 627.599609375 608.400390625 610.799804688 c 0
 608.400390625 602.400390625 606 594 600 584.400390625 c 1
 589.200195312 572.400390625 577.200195312 562.799804688 520.799804688 493.200195312 c 1
 556.799804688 452.400390625 579.599609375 397.200195312 579.599609375 332.400390625 c 0
 579.599609375 260.400390625 555.599609375 204 517.200195312 163.200195312 c 1
 591.599609375 91.2001953125 l 1
180 332.400390625 m 1
 186 216 270 157.200195312 351.599609375 157.200195312 c 0
 427.200195312 157.200195312 500.400390625 210 500.400390625 316.799804688 c 0
 500.400390625 429.599609375 417.599609375 490.799804688 333.599609375 490.799804688 c 0
 258 490.799804688 184.799804688 440.400390625 180 332.400390625 c 1
EndSplineSet
EndChar

StartChar: yen
Encoding: 165 165 121
Width: 464
VWidth: 1200
Flags: W
HStem: 199.2 69.5996<68.5135 176.4> 644.8 20G<50.3999 73.7998 379.2 410.4>
VStem: 176.4 70.7998<10.8111 91.2002 175.2 199.2 279.6 330.807>
LayerCount: 2
Fore
SplineSet
88.7998046875 184.799804688 m 1
 64.7998046875 188.400390625 54 204 54 219.599609375 c 0
 54 254.400390625 67.2001953125 247.200195312 176.400390625 268.799804688 c 1
 176.400390625 282 177.599609375 295.200195312 177.599609375 308.400390625 c 0
 177.599609375 315.599609375 177.599609375 322.799804688 176.400390625 331.200195312 c 1
 120 412.799804688 68.400390625 519.599609375 24 608.400390625 c 0
 21.599609375 613.200195312 20.400390625 618 20.400390625 622.799804688 c 0
 20.400390625 645.599609375 40.7998046875 664.799804688 60 664.799804688 c 0
 87.599609375 664.799804688 140.400390625 549.599609375 166.799804688 505.200195312 c 0
 177.599609375 487.200195312 204 430.799804688 217.200195312 412.799804688 c 1
 262.799804688 493.200195312 l 2
 288 537.599609375 356.400390625 666 402 666 c 0
 418.799804688 666 430.799804688 655.200195312 430.799804688 637.200195312 c 0
 430.799804688 631.200195312 429.599609375 625.200195312 427.200195312 619.200195312 c 1
 358.799804688 535.200195312 301.200195312 421.200195312 248.400390625 324 c 1
 248.400390625 279.599609375 l 1
 283.200195312 284.400390625 308.400390625 291.599609375 336 292.799804688 c 1
 355.200195312 286.799804688 363.599609375 273.599609375 363.599609375 259.200195312 c 0
 363.599609375 218.400390625 286.799804688 219.599609375 247.200195312 211.200195312 c 1
 247.200195312 199.200195312 247.200195312 187.200195312 247.200195312 175.200195312 c 1
 292.799804688 184.799804688 303.599609375 188.400390625 331.200195312 188.400390625 c 0
 351.599609375 188.400390625 364.799804688 172.799804688 364.799804688 156 c 0
 364.799804688 130.799804688 318 111.599609375 244.799804688 103.200195312 c 1
 244.799804688 84 244.799804688 64.7998046875 247.200195312 44.400390625 c 1
 242.400390625 22.7998046875 223.200195312 2.400390625 205.200195312 2.400390625 c 0
 171.599609375 2.400390625 176.400390625 60 176.400390625 91.2001953125 c 1
 147.599609375 82.7998046875 124.799804688 82.7998046875 96 73.2001953125 c 0
 92.400390625 72 88.7998046875 72 85.2001953125 72 c 0
 67.2001953125 72 56.400390625 88.7998046875 56.400390625 105.599609375 c 0
 56.400390625 122.400390625 66 140.400390625 85.2001953125 142.799804688 c 1
 176.400390625 163.200195312 l 1
 176.400390625 172.799804688 176.400390625 188.400390625 176.400390625 199.200195312 c 1
 147.599609375 193.200195312 118.799804688 187.200195312 88.7998046875 184.799804688 c 1
EndSplineSet
Substitution2: "'smcp' Lowercase to Small Capitals in Latin lookup 0 subtable" yen.smcp
EndChar

StartChar: quotesingle
Encoding: 39 39 122
Width: 164
VWidth: 1200
Flags: W
HStem: 655.2 216<54.4624 109.215>
VStem: 44.4004 68.3994<658.279 796.075> 51.5996 69.6006<695.599 867.732>
LayerCount: 2
Fore
SplineSet
51.599609375 840 m 1xa0
 55.2001953125 860.400390625 70.7998046875 871.200195312 85.2001953125 871.200195312 c 0
 122.400390625 871.200195312 121.200195312 819.599609375 121.200195312 798 c 0xa0
 120 756 116.400390625 775.200195312 112.799804688 692.400390625 c 0
 111.599609375 668.400390625 94.7998046875 655.200195312 79.2001953125 655.200195312 c 0
 63.599609375 655.200195312 48 667.200195312 44.400390625 691.200195312 c 1xc0
 46.7998046875 787.200195312 49.2001953125 744 51.599609375 840 c 1xa0
EndSplineSet
EndChar

StartChar: quotedbl
Encoding: 34 34 123
Width: 303
VWidth: 1200
Flags: W
HStem: 547.2 216<54.4624 109.215>
VStem: 44.4004 68.3994<550.279 688.075> 51.5996 69.6006<587.599 759.732> 166.8 68.4004<565.674 748.371>
LayerCount: 2
Fore
SplineSet
51.599609375 732 m 1xb0
 55.2001953125 752.400390625 70.7998046875 763.200195312 85.2001953125 763.200195312 c 0
 122.400390625 763.200195312 121.200195312 711.599609375 121.200195312 690 c 0xb0
 120 648 116.400390625 667.200195312 112.799804688 584.400390625 c 0
 111.599609375 560.400390625 94.7998046875 547.200195312 79.2001953125 547.200195312 c 0
 63.599609375 547.200195312 48 559.200195312 44.400390625 583.200195312 c 1xd0
 46.7998046875 679.200195312 49.2001953125 636 51.599609375 732 c 1xb0
172.799804688 721.200195312 m 1
 176.400390625 742.799804688 192 754.799804688 207.599609375 754.799804688 c 0
 220.799804688 754.799804688 235.200195312 744 240 724.799804688 c 1
 240 631.200195312 235.200195312 696 235.200195312 600 c 0
 235.200195312 574.799804688 216 562.799804688 200.400390625 562.799804688 c 0
 184.799804688 562.799804688 169.200195312 572.400390625 166.799804688 596.400390625 c 1
 166.799804688 691.200195312 172.799804688 627.599609375 172.799804688 721.200195312 c 1
EndSplineSet
EndChar

StartChar: quoteleft
Encoding: 8216 8216 124
Width: 190
VWidth: 1200
Flags: W
HStem: 567.6 192<72.8381 105.141>
VStem: 39.5996 68.4004<635.406 756.545>
LayerCount: 2
Fore
SplineSet
108 728.400390625 m 1
 108 687.599609375 111.599609375 652.799804688 139.200195312 622.799804688 c 1
 141.599609375 615.599609375 142.799804688 609.599609375 142.799804688 602.400390625 c 0
 142.799804688 583.200195312 132 567.599609375 109.200195312 567.599609375 c 0
 52.7998046875 567.599609375 39.599609375 685.200195312 39.599609375 730.799804688 c 1
 46.7998046875 748.799804688 60 759.599609375 73.2001953125 759.599609375 c 0
 88.7998046875 759.599609375 104.400390625 748.799804688 108 728.400390625 c 1
EndSplineSet
EndChar

StartChar: quoteright
Encoding: 8217 8217 125
Width: 220
VWidth: 1200
Flags: W
HStem: 567.6 192<81.9647 113.371>
VStem: 79.2002 68.3994<635.406 756.472>
LayerCount: 2
Fore
SplineSet
79.2001953125 728.400390625 m 1
 82.7998046875 748.799804688 97.2001953125 759.599609375 112.799804688 759.599609375 c 0
 127.200195312 759.599609375 140.400390625 748.799804688 147.599609375 730.799804688 c 1
 147.599609375 685.200195312 133.200195312 567.599609375 76.7998046875 567.599609375 c 0
 54 567.599609375 44.400390625 583.200195312 44.400390625 602.400390625 c 0
 44.400390625 609.599609375 45.599609375 615.599609375 48 622.799804688 c 1
 75.599609375 652.799804688 79.2001953125 687.599609375 79.2001953125 728.400390625 c 1
EndSplineSet
EndChar

StartChar: guillemotleft
Encoding: 171 171 126
Width: 478
VWidth: 1200
Flags: W
LayerCount: 2
Fore
SplineSet
184.799804688 406.799804688 m 0
 192 415.200195312 223.200195312 427.200195312 231.599609375 427.200195312 c 0
 249.599609375 427.200195312 259.200195312 414 259.200195312 397.200195312 c 0
 259.200195312 351.599609375 148.799804688 276 127.200195312 247.200195312 c 1
 160.799804688 216 232.799804688 159.599609375 232.799804688 118.799804688 c 0
 232.799804688 96 219.599609375 82.7998046875 200.400390625 82.7998046875 c 0
 192 82.7998046875 156 108 148.799804688 118.799804688 c 0
 100.799804688 184.799804688 55.2001953125 193.200195312 55.2001953125 243.599609375 c 0
 55.2001953125 313.200195312 142.799804688 352.799804688 184.799804688 406.799804688 c 0
364.799804688 411.599609375 m 1
 373.200195312 418.799804688 384 421.200195312 392.400390625 421.200195312 c 0
 409.200195312 421.200195312 426 410.400390625 426 396 c 0
 426 364.799804688 343.200195312 273.599609375 310.799804688 238.799804688 c 1
 331.200195312 199.200195312 420 151.200195312 420 109.200195312 c 0
 420 91.2001953125 406.799804688 76.7998046875 385.200195312 76.7998046875 c 0
 356.400390625 76.7998046875 337.200195312 108 319.200195312 128.400390625 c 0
 303.599609375 145.200195312 241.200195312 187.200195312 236.400390625 243.599609375 c 1
 236.400390625 272.400390625 344.400390625 388.799804688 364.799804688 411.599609375 c 1
EndSplineSet
EndChar

StartChar: guillemotright
Encoding: 187 187 127
Width: 508
VWidth: 1200
Flags: W
LayerCount: 2
Fore
SplineSet
301.200195312 396 m 0
 344.400390625 343.200195312 432 303.599609375 432 232.799804688 c 0
 432 183.599609375 385.200195312 175.200195312 337.200195312 108 c 1
 331.200195312 97.2001953125 295.200195312 72 286.799804688 72 c 0
 267.599609375 72 253.200195312 85.2001953125 253.200195312 108 c 0
 253.200195312 148.799804688 325.200195312 205.200195312 360 236.400390625 c 1
 337.200195312 265.200195312 232.799804688 337.200195312 228 384 c 1
 228 403.200195312 235.200195312 416.400390625 255.599609375 416.400390625 c 0
 264 416.400390625 295.200195312 404.400390625 301.200195312 396 c 0
121.200195312 400.799804688 m 0
 142.799804688 379.200195312 250.799804688 262.799804688 250.799804688 232.799804688 c 1
 244.799804688 176.400390625 183.599609375 135.599609375 168 118.799804688 c 0
 148.799804688 97.2001953125 130.799804688 67.2001953125 100.799804688 67.2001953125 c 0
 80.400390625 67.2001953125 67.2001953125 80.400390625 67.2001953125 99.599609375 c 0
 67.2001953125 140.400390625 156 188.400390625 176.400390625 228 c 1
 145.200195312 260.400390625 60 354 60 385.200195312 c 0
 60 399.599609375 78 411.599609375 94.7998046875 411.599609375 c 0
 103.200195312 411.599609375 112.799804688 408 121.200195312 400.799804688 c 0
EndSplineSet
EndChar

StartChar: parenleft
Encoding: 40 40 128
Width: 334
VWidth: 1200
Flags: W
VStem: 60 76.7998<184.218 527.581>
LayerCount: 2
Fore
SplineSet
235.200195312 781.200195312 m 0
 241.200195312 784.799804688 247.200195312 786 254.400390625 786 c 0
 274.799804688 786 294 769.200195312 294 754.799804688 c 1
 295.200195312 745.200195312 200.400390625 618 188.400390625 596.400390625 c 0
 135.599609375 504 136.799804688 411.599609375 136.799804688 327.599609375 c 0
 136.799804688 252 169.200195312 106.799804688 207.599609375 64.7998046875 c 0
 235.200195312 34.7998046875 292.799804688 -26.400390625 292.799804688 -49.2001953125 c 0
 292.799804688 -67.2001953125 264 -73.2001953125 247.200195312 -73.2001953125 c 0
 238.799804688 -73.2001953125 228 -70.7998046875 217.200195312 -61.2001953125 c 0
 84 72 60 188.400390625 60 328.799804688 c 0
 60 416.400390625 60 514.799804688 116.400390625 619.200195312 c 0
 156 691.200195312 207.599609375 764.400390625 235.200195312 781.200195312 c 0
EndSplineSet
EndChar

StartChar: parenright
Encoding: 41 41 129
Width: 364
VWidth: 1200
Flags: W
VStem: 219.6 75.6006<191.929 534.383>
LayerCount: 2
Fore
SplineSet
120 -68.400390625 m 0
 112.799804688 -73.2001953125 105.599609375 -74.400390625 98.400390625 -74.400390625 c 0
 76.7998046875 -74.400390625 58.7998046875 -56.400390625 58.7998046875 -42 c 0
 58.7998046875 -34.7998046875 153.599609375 92.400390625 166.799804688 120 c 1
 219.599609375 211.200195312 219.599609375 303.599609375 219.599609375 388.799804688 c 0
 219.599609375 466.799804688 187.200195312 613.200195312 147.599609375 655.200195312 c 0
 118.799804688 685.200195312 60 746.400390625 60 771.599609375 c 0
 60 787.200195312 87.599609375 793.200195312 108 793.200195312 c 0
 116.400390625 793.200195312 127.200195312 792 133.200195312 783.599609375 c 1
 271.200195312 648 295.200195312 529.200195312 295.200195312 387.599609375 c 0
 295.200195312 298.799804688 295.200195312 199.200195312 238.799804688 94.7998046875 c 0
 199.200195312 22.7998046875 144 -51.599609375 120 -68.400390625 c 0
EndSplineSet
EndChar

